<svg width="156" height="36" viewBox="0 0 var(--logoW) 36" fill="none" xmlns="http://www.w3.org/2000/svg">
<path d="M0.632318 27.7374C0.245836 27.5645 0 27.2004 0 26.8009V1.7219C0 0.939703 0.892692 0.438094 1.63516 0.803101L8.52722 4.19137C8.89302 4.37118 9.12192 4.72484 9.12192 5.11017V29.8845C9.12192 30.6495 8.2645 31.1521 7.52445 30.821L0.632318 27.7374Z" fill="url(#paint0_linear_3_62250)"/>
<path d="M24.9951 32.5507C24.5888 32.3855 24.3262 32.0117 24.3262 31.5986V6.17503C24.3262 5.39283 25.2189 4.89122 25.9613 5.25623L32.8535 8.64448C33.2192 8.82428 33.4481 9.17796 33.4481 9.5633V34.4018C33.4481 35.1506 32.6237 35.6535 31.8871 35.3539L24.9951 32.5507Z" fill="url(#paint1_linear_3_62250)"/>
<path d="M13.8353 11.2253C13.4347 11.3928 13.177 11.7639 13.177 12.173V32.0159C13.177 32.8035 14.0808 33.3047 14.8237 32.9291L19.6887 30.469C20.0481 30.2873 20.2718 29.9369 20.2718 29.5559V10.1377C20.2718 9.38423 19.438 8.88138 18.7003 9.18996L13.8353 11.2253Z" fill="url(#paint2_linear_3_62250)"/>
<path d="M63.7153 24.8061H51.9346V11.8701H63.7153V14.4573H54.7112V17.063H63.0211V19.6502H54.7112V22.2189H63.7153V24.8061ZM68.2688 18.3566H75.1903V14.4573H68.2688V18.3566ZM68.2688 24.8061H65.4922V11.8701H76.579L77.9473 13.1822V19.6502L76.579 20.9438H68.2688V24.8061ZM82.5041 24.8061H79.7274V11.8701H82.5041V24.8061ZM95.5789 24.8061H85.861L84.492 23.531V13.1822L85.861 11.8701H95.5789L96.9472 13.1822V15.7509H94.191V14.4573H87.2686V22.2189H94.191V20.9438H96.9472V23.531L95.5789 24.8061ZM98.7281 11.8701H101.505V22.2189H108.426V11.8701H111.183V23.531L109.814 24.8061H100.096L98.7281 23.531V11.8701ZM115.934 18.3566H122.856V14.4573H115.934V18.3566ZM125.612 24.8061H122.856V23.531L121.467 22.2189L120.079 20.9438H115.934V24.8061H113.157V11.8701H124.244L125.612 13.1822V19.6502L124.244 20.9438L125.612 22.2189V24.8061ZM127.587 11.8701H130.363V22.2189H137.285V11.8701H140.041V23.531L138.673 24.8061H128.955L127.587 23.531V11.8701ZM153.102 24.8061H143.384L142.016 23.531V20.9438H144.792V22.2189H151.714V19.6502H143.384L142.016 18.7262V13.1822L143.384 11.8701H153.102L154.47 13.1822V15.7509H151.714V14.4573H144.792V17.0445H153.102L154.47 18.3381V23.531L153.102 24.8061Z" fill="white"/>
<defs>
<linearGradient id="paint0_linear_3_62250" x1="0" y1="15.7675" x2="9.12192" y2="15.7675" gradientUnits="userSpaceOnUse">
<stop stop-color="#0F135A"/>
<stop offset="0.322917" stop-color="#6530DA"/>
<stop offset="0.703125" stop-color="#763FBF"/>
<stop offset="1" stop-color="#7E49F3"/>
</linearGradient>
<linearGradient id="paint1_linear_3_62250" x1="24.3262" y1="35.9888" x2="45.0348" y2="19.5057" gradientUnits="userSpaceOnUse">
<stop stop-color="#0F135A"/>
<stop offset="0.322917" stop-color="#6530DA"/>
<stop offset="0.703125" stop-color="#763FBF"/>
<stop offset="1" stop-color="#7E49F3"/>
</linearGradient>
<linearGradient id="paint2_linear_3_62250" x1="13.177" y1="8.53252" x2="29.6334" y2="21.2672" gradientUnits="userSpaceOnUse">
<stop stop-color="#0F135A"/>
<stop offset="0.322917" stop-color="#6530DA"/>
<stop offset="0.703125" stop-color="#763FBF"/>
<stop offset="1" stop-color="#7E49F3"/>
</linearGradient>
</defs>
</svg>
