<svg width="108" height="24" viewBox="0 0 108 24" fill="none" xmlns="http://www.w3.org/2000/svg">
<path d="M5.97398 20.9174C6.24595 20.7913 6.41895 20.5258 6.41895 20.2345V1.94609C6.41895 1.37569 5.79076 1.0099 5.26832 1.27607L0.418441 3.7469C0.161068 3.87802 0 4.13593 0 4.41692V22.4831C0 23.041 0.603307 23.4075 1.12412 23.166L5.97398 20.9174Z" fill="url(#paint0_linear_3196_7613)"/>
<path d="M23.0655 20.5648C23.3513 20.4443 23.5361 20.1717 23.5361 19.8705V1.33086C23.5361 0.760453 22.908 0.394663 22.3855 0.660838L17.5356 3.13167C17.2783 3.26279 17.1172 3.52069 17.1172 3.80169V21.9147C17.1172 22.4607 17.6973 22.8275 18.2156 22.609L23.0655 20.5648Z" fill="url(#paint1_linear_3196_7613)"/>
<path d="M13.8008 6.24294C14.0827 6.36515 14.264 6.6357 14.264 6.93404V21.4042C14.264 21.9785 13.628 22.3439 13.1053 22.07L9.68182 20.276C9.42894 20.1436 9.27148 19.888 9.27148 19.6102V5.44983C9.27148 4.90038 9.85827 4.53368 10.3774 4.75873L13.8008 6.24294Z" fill="url(#paint2_linear_3196_7613)"/>
<path d="M44.1108 16.5381H35.9551V7.91406H44.1108V9.63885H37.8773V11.376H43.6302V13.1008H37.8773V14.8132H44.1108V16.5381ZM47.2631 12.2384H52.0548V9.63885H47.2631V12.2384ZM47.2631 16.5381H45.3409V7.91406H53.0162L53.9635 8.78879V13.1008L53.0162 13.9632H47.2631V16.5381ZM57.1181 16.5381H55.1958V7.91406H57.1181V16.5381ZM66.1697 16.5381H59.4421L58.4943 15.688V8.78879L59.4421 7.91406H66.1697L67.117 8.78879V10.5013H65.2088V9.63885H60.4166V14.8132H65.2088V13.9632H67.117V15.688L66.1697 16.5381ZM68.3498 7.91406H70.2721V14.8132H75.0639V7.91406H76.9725V15.688L76.0247 16.5381H69.2971L68.3498 15.688V7.91406ZM80.2614 12.2384H85.0531V9.63885H80.2614V12.2384ZM86.9612 16.5381H85.0531V15.688L84.0917 14.8132L83.1309 13.9632H80.2614V16.5381H78.3391V7.91406H86.014L86.9612 8.78879V13.1008L86.014 13.9632L86.9612 14.8132V16.5381ZM88.3284 7.91406H90.2506V14.8132H95.0424V7.91406H96.9505V15.688L96.0033 16.5381H89.2756L88.3284 15.688V7.91406ZM105.993 16.5381H99.2649L98.3176 15.688V13.9632H100.239V14.8132H105.032V13.1008H99.2649L98.3176 12.4848V8.78879L99.2649 7.91406H105.993L106.94 8.78879V10.5013H105.032V9.63885H100.239V11.3637H105.993L106.94 12.226V15.688L105.993 16.5381Z" fill="white"/>
<defs>
<linearGradient id="paint0_linear_3196_7613" x1="0" y1="12.1885" x2="6.41895" y2="12.1885" gradientUnits="userSpaceOnUse">
<stop stop-color="#0F135A"/>
<stop offset="0.322917" stop-color="#6530DA"/>
<stop offset="0.703125" stop-color="#763FBF"/>
<stop offset="1" stop-color="#7E49F3"/>
</linearGradient>
<linearGradient id="paint1_linear_3196_7613" x1="17.1172" y1="23.072" x2="32.0892" y2="11.5724" gradientUnits="userSpaceOnUse">
<stop stop-color="#0F135A"/>
<stop offset="0.322917" stop-color="#6530DA"/>
<stop offset="0.703125" stop-color="#763FBF"/>
<stop offset="1" stop-color="#7E49F3"/>
</linearGradient>
<linearGradient id="paint2_linear_3196_7613" x1="9.27148" y1="4.27929" x2="21.158" y2="13.1554" gradientUnits="userSpaceOnUse">
<stop stop-color="#0F135A"/>
<stop offset="0.322917" stop-color="#6530DA"/>
<stop offset="0.703125" stop-color="#763FBF"/>
<stop offset="1" stop-color="#7E49F3"/>
</linearGradient>
</defs>
</svg>
