<svg width="20" height="20" viewBox="0 0 20 20" fill="none" xmlns="http://www.w3.org/2000/svg">
<path d="M9.16797 3.3332H5.66797C4.26784 3.3332 3.56777 3.3332 3.03299 3.60568C2.56259 3.84536 2.18014 4.22782 1.94045 4.69822C1.66797 5.233 1.66797 5.93307 1.66797 7.3332V14.3332C1.66797 15.7333 1.66797 16.4334 1.94045 16.9682C2.18014 17.4386 2.56259 17.821 3.03299 18.0607C3.56777 18.3332 4.26784 18.3332 5.66797 18.3332H12.668C14.0681 18.3332 14.7682 18.3332 15.3029 18.0607C15.7734 17.821 16.1558 17.4386 16.3955 16.9682C16.668 16.4334 16.668 15.7333 16.668 14.3332V10.8332M6.66795 13.3332H8.0634C8.47105 13.3332 8.67488 13.3332 8.86669 13.2871C9.03675 13.2463 9.19932 13.179 9.34844 13.0876C9.51664 12.9845 9.66076 12.8404 9.94902 12.5521L17.918 4.5832C18.6083 3.89284 18.6083 2.77355 17.918 2.0832C17.2276 1.39284 16.1083 1.39284 15.418 2.0832L7.449 10.0521C7.16074 10.3404 7.01662 10.4845 6.91355 10.6527C6.82217 10.8018 6.75482 10.9644 6.714 11.1345C6.66795 11.3263 6.66795 11.5301 6.66795 11.9378V13.3332Z" stroke="currentColor" stroke-width="1.5" stroke-linecap="round" stroke-linejoin="round"/>
</svg>
