<svg width="22" height="18" viewBox="0 0 22 18" fill="none" xmlns="http://www.w3.org/2000/svg">
<path d="M1.83301 4.4165L9.31752 9.65566C9.92359 10.0799 10.2266 10.292 10.5562 10.3742C10.8474 10.4468 11.1519 10.4468 11.4431 10.3742C11.7727 10.292 12.0758 10.0799 12.6818 9.65566L20.1663 4.4165M6.23301 16.3332H15.7663C17.3065 16.3332 18.0766 16.3332 18.6648 16.0334C19.1823 15.7698 19.603 15.3491 19.8666 14.8316C20.1663 14.2434 20.1663 13.4733 20.1663 11.9332V6.0665C20.1663 4.52636 20.1663 3.75629 19.8666 3.16803C19.603 2.65058 19.1823 2.22989 18.6648 1.96624C18.0766 1.6665 17.3065 1.6665 15.7663 1.6665H6.23301C4.69286 1.6665 3.92279 1.6665 3.33453 1.96624C2.81709 2.22989 2.39639 2.65058 2.13274 3.16803C1.83301 3.75629 1.83301 4.52636 1.83301 6.0665V11.9332C1.83301 13.4733 1.83301 14.2434 2.13274 14.8316C2.39639 15.3491 2.81709 15.7698 3.33453 16.0334C3.92279 16.3332 4.69286 16.3332 6.23301 16.3332Z" stroke="#777777" stroke-width="2" stroke-linecap="round" stroke-linejoin="round"/>
</svg>
