<svg width="20" height="21" viewBox="0 0 20 21" fill="none" xmlns="http://www.w3.org/2000/svg">
<path d="M2.22222 20.25C1.61111 20.25 1.08778 20.0326 0.652222 19.5978C0.217407 19.1622 0 18.6389 0 18.0278V2.47222C0 1.86111 0.217407 1.33778 0.652222 0.902222C1.08778 0.467407 1.61111 0.25 2.22222 0.25H6.66667C7.27778 0.25 7.80111 0.467407 8.23667 0.902222C8.67148 1.33778 8.88889 1.86111 8.88889 2.47222V18.0278C8.88889 18.6389 8.67148 19.1622 8.23667 19.5978C7.80111 20.0326 7.27778 20.25 6.66667 20.25H2.22222ZM13.3333 8.02778C12.7222 8.02778 12.1993 7.81 11.7644 7.37444C11.3289 6.93963 11.1111 6.41667 11.1111 5.80556V2.47222C11.1111 1.86111 11.3289 1.33778 11.7644 0.902222C12.1993 0.467407 12.7222 0.25 13.3333 0.25H17.7778C18.3889 0.25 18.9122 0.467407 19.3478 0.902222C19.7826 1.33778 20 1.86111 20 2.47222V5.80556C20 6.41667 19.7826 6.93963 19.3478 7.37444C18.9122 7.81 18.3889 8.02778 17.7778 8.02778H13.3333ZM13.3333 20.25C12.7222 20.25 12.1993 20.0326 11.7644 19.5978C11.3289 19.1622 11.1111 18.6389 11.1111 18.0278V12.4722C11.1111 11.8611 11.3289 11.3378 11.7644 10.9022C12.1993 10.4674 12.7222 10.25 13.3333 10.25H17.7778C18.3889 10.25 18.9122 10.4674 19.3478 10.9022C19.7826 11.3378 20 11.8611 20 12.4722V18.0278C20 18.6389 19.7826 19.1622 19.3478 19.5978C18.9122 20.0326 18.3889 20.25 17.7778 20.25H13.3333Z" fill="currentColor"/>
</svg>
