<svg width="14" height="14" viewBox="0 0 14 14" fill="none" xmlns="http://www.w3.org/2000/svg">
<path fill-rule="evenodd" clip-rule="evenodd" d="M6.99992 13.6663C10.6818 13.6663 13.6666 10.6816 13.6666 6.99967C13.6666 3.31778 10.6818 0.333008 6.99992 0.333008C3.31802 0.333008 0.333252 3.31778 0.333252 6.99967C0.333252 10.6816 3.31802 13.6663 6.99992 13.6663ZM6.33325 3.66634C6.33325 3.29815 6.63173 2.99967 6.99992 2.99967C7.36811 2.99967 7.66659 3.29815 7.66659 3.66634V7.66634C7.66659 8.03453 7.36811 8.33301 6.99992 8.33301C6.63173 8.33301 6.33325 8.03453 6.33325 7.66634V3.66634ZM7.66659 10.9997V9.66634H6.33325V10.9997H7.66659Z" fill="currentColor"/>
</svg>
