<svg width="12" height="14" viewBox="0 0 12 14" fill="none" xmlns="http://www.w3.org/2000/svg">
<path d="M2 13.6673C1.44444 13.6673 0.972222 13.4729 0.583333 13.084C0.194444 12.6951 0 12.2229 0 11.6673V9.66732H2V0.333984L3 1.33398L4 0.333984L5 1.33398L6 0.333984L7 1.33398L8 0.333984L9 1.33398L10 0.333984L11 1.33398L12 0.333984V11.6673C12 12.2229 11.8056 12.6951 11.4167 13.084C11.0278 13.4729 10.5556 13.6673 10 13.6673H2ZM10 12.334C10.1889 12.334 10.3472 12.2701 10.475 12.1423C10.6028 12.0145 10.6667 11.8562 10.6667 11.6673V2.33398H3.33333V9.66732H9.33333V11.6673C9.33333 11.8562 9.39722 12.0145 9.525 12.1423C9.65278 12.2701 9.81111 12.334 10 12.334ZM4 5.00065V3.66732H8V5.00065H4ZM4 7.00065V5.66732H8V7.00065H4ZM9.33333 5.00065C9.14444 5.00065 8.98611 4.93676 8.85833 4.80898C8.73056 4.68121 8.66667 4.52287 8.66667 4.33398C8.66667 4.1451 8.73056 3.98676 8.85833 3.85898C8.98611 3.73121 9.14444 3.66732 9.33333 3.66732C9.52222 3.66732 9.68056 3.73121 9.80833 3.85898C9.93611 3.98676 10 4.1451 10 4.33398C10 4.52287 9.93611 4.68121 9.80833 4.80898C9.68056 4.93676 9.52222 5.00065 9.33333 5.00065ZM9.33333 7.00065C9.14444 7.00065 8.98611 6.93676 8.85833 6.80898C8.73056 6.68121 8.66667 6.52287 8.66667 6.33398C8.66667 6.1451 8.73056 5.98676 8.85833 5.85898C8.98611 5.73121 9.14444 5.66732 9.33333 5.66732C9.52222 5.66732 9.68056 5.73121 9.80833 5.85898C9.93611 5.98676 10 6.1451 10 6.33398C10 6.52287 9.93611 6.68121 9.80833 6.80898C9.68056 6.93676 9.52222 7.00065 9.33333 7.00065Z" fill="currentColor"/>
</svg>
