<svg width="14" height="12" viewBox="0 0 14 12" fill="none" xmlns="http://www.w3.org/2000/svg">
<path d="M4.00016 8H5.00016V5.33333H4.00016V6.16667H3.00016V7.16667H4.00016V8ZM5.66683 7.16667H11.0002V6.16667H5.66683V7.16667ZM9.00016 5.33333H10.0002V4.5H11.0002V3.5H10.0002V2.66667H9.00016V5.33333ZM3.00016 4.5H8.3335V3.5H3.00016V4.5ZM4.3335 12V10.6667H1.66683C1.30016 10.6667 0.986274 10.5361 0.725163 10.275C0.464052 10.0139 0.333496 9.7 0.333496 9.33333V1.33333C0.333496 0.966667 0.464052 0.652778 0.725163 0.391667C0.986274 0.130556 1.30016 0 1.66683 0H12.3335C12.7002 0 13.0141 0.130556 13.2752 0.391667C13.5363 0.652778 13.6668 0.966667 13.6668 1.33333V9.33333C13.6668 9.7 13.5363 10.0139 13.2752 10.275C13.0141 10.5361 12.7002 10.6667 12.3335 10.6667H9.66683V12H4.3335Z" fill="currentColor"/>
</svg>
