<svg width="16" height="16" viewBox="0 0 16 16" fill="none" xmlns="http://www.w3.org/2000/svg">
<path fill-rule="evenodd" clip-rule="evenodd" d="M0 1.33333C0 0.59696 0.511657 0 1.14286 0H14.8571C15.4883 0 16 0.59696 16 1.33333C16 2.06971 15.4883 2.66667 14.8571 2.66667H1.14286C0.511657 2.66667 0 2.06971 0 1.33333ZM0 8C0 7.2636 0.511657 6.66667 1.14286 6.66667H10.2857C10.9169 6.66667 11.4286 7.2636 11.4286 8C11.4286 8.7364 10.9169 9.33333 10.2857 9.33333H1.14286C0.511657 9.33333 0 8.7364 0 8ZM1.14286 13.3333C0.511657 13.3333 0 13.9303 0 14.6667C0 15.4031 0.511657 16 1.14286 16H14.8571C15.4883 16 16 15.4031 16 14.6667C16 13.9303 15.4883 13.3333 14.8571 13.3333H1.14286Z" fill="white"/>
</svg>
