<svg width="20" height="23" viewBox="0 0 20 23" fill="none" xmlns="http://www.w3.org/2000/svg">
<path d="M19.7773 14.6275L17.7237 12.5739V9.85349C17.7214 7.9735 17.022 6.16115 15.7609 4.7669C14.4998 3.37265 12.7665 2.49554 10.8961 2.30518V0.75H9.37888V2.30518C7.50855 2.49554 5.77524 3.37265 4.5141 4.7669C3.25297 6.16115 2.55362 7.9735 2.55126 9.85349V12.5739L0.497668 14.6275C0.355388 14.7698 0.275434 14.9627 0.275391 15.1639V17.4397C0.275391 17.6409 0.355317 17.8339 0.497587 17.9762C0.639856 18.1184 0.832815 18.1984 1.03401 18.1984H6.34439V18.7878C6.32788 19.7502 6.66711 20.6849 7.29705 21.4127C7.927 22.1405 8.80336 22.6102 9.75819 22.7319C10.2856 22.7842 10.8181 22.7255 11.3214 22.5597C11.8248 22.3938 12.2878 22.1245 12.6808 21.7689C13.0738 21.4134 13.388 20.9795 13.6033 20.4952C13.8185 20.0109 13.93 19.4869 13.9306 18.957V18.1984H19.241C19.4422 18.1984 19.6352 18.1184 19.7774 17.9762C19.9197 17.8339 19.9996 17.6409 19.9996 17.4397V15.1639C19.9996 14.9627 19.9196 14.7698 19.7773 14.6275ZM12.4134 18.957C12.4134 19.5606 12.1736 20.1395 11.7468 20.5663C11.32 20.9931 10.7411 21.2329 10.1375 21.2329C9.53391 21.2329 8.95503 20.9931 8.52822 20.5663C8.10141 20.1395 7.86163 19.5606 7.86163 18.957V18.1984H12.4134V18.957ZM18.4824 16.6811H1.79264V15.4779L3.84624 13.4243C3.98851 13.2821 4.06847 13.0892 4.06851 12.888V9.85349C4.06851 8.24389 4.70792 6.70022 5.84608 5.56206C6.98424 4.42391 8.52791 3.7845 10.1375 3.7845C11.7471 3.7845 13.2908 4.42391 14.4289 5.56206C15.5671 6.70022 16.2065 8.24389 16.2065 9.85349V12.888C16.2065 13.0892 16.2865 13.2821 16.4288 13.4243L18.4824 15.4779V16.6811Z" fill="white"/>
<circle cx="15.8279" cy="6.82006" r="3.41381" fill="#8C77ED"/>
</svg>
