<svg width="28" height="28" viewBox="0 0 28 28" fill="none" xmlns="http://www.w3.org/2000/svg">
<path d="M4.79512 18.5953C2.79242 20.5957 1.84828 23.2419 2.04855 25.6623C2.0554 25.7275 2.08443 25.7883 2.13078 25.8345C2.17713 25.8808 2.23799 25.9098 2.30318 25.9167C4.72932 26.1167 7.36431 25.1851 9.37846 23.1733C9.73095 22.8172 10.0561 22.4351 10.3512 22.0302C10.3969 21.9742 10.4197 21.903 10.4149 21.8309C10.4101 21.7587 10.3782 21.6911 10.3255 21.6416L9.18105 20.4985C9.1542 20.4676 9.12101 20.4429 9.08375 20.4259C9.04648 20.4089 9.006 20.4001 8.96505 20.4001C8.92409 20.4001 8.88361 20.4089 8.84635 20.4259C8.80908 20.4429 8.7759 20.4676 8.74904 20.4985C8.61457 20.6471 8.46294 20.7843 8.33133 20.9357C7.07821 22.1874 5.71351 23.0333 4.65207 23.3019C4.91815 22.2388 5.76501 20.8757 7.01813 19.6241C7.16118 19.4783 7.30423 19.3383 7.45586 19.2068C7.48679 19.18 7.51158 19.1469 7.52857 19.1097C7.54557 19.0724 7.55436 19.032 7.55436 18.9911C7.55436 18.9502 7.54557 18.9097 7.52857 18.8725C7.51158 18.8353 7.48679 18.8022 7.45586 18.7753L6.31146 17.6323C6.26226 17.5792 6.19475 17.5468 6.12255 17.5415C6.05034 17.5361 5.9788 17.5584 5.92236 17.6037C5.52225 17.9055 5.14544 18.237 4.79512 18.5953ZM0.454971 16.7492C2.14011 15.2832 3.66788 14.7489 4.65207 14.5517C4.71095 14.5388 4.76663 14.5141 4.81578 14.4793C4.86493 14.4444 4.90656 14.4 4.93817 14.3488C5.08695 14.1116 5.24144 13.8801 5.40452 13.6544C5.73208 13.1901 6.08549 12.7445 6.46309 12.3198C6.64906 12.1112 6.84075 11.9055 7.0353 11.7083L7.13257 11.614C7.15447 11.5953 7.18202 11.5844 7.21081 11.5832C7.23961 11.582 7.26798 11.5904 7.29139 11.6072C7.31479 11.624 7.33188 11.6482 7.33992 11.6758C7.34795 11.7035 7.34647 11.733 7.3357 11.7597C7.31568 11.7997 7.29851 11.8369 7.28134 11.8769C7.16976 12.1255 7.0639 12.377 6.96949 12.6313C6.7771 13.1324 6.61282 13.6437 6.4774 14.163C6.42876 14.3516 6.38298 14.5431 6.34007 14.7346C6.32671 14.8089 6.332 14.8854 6.35546 14.9572C6.37893 15.029 6.41984 15.0939 6.47454 15.1461L6.80355 15.4747L12.5256 21.1901L13.4211 22.0988C13.4637 22.1416 13.4973 22.1924 13.5199 22.2484C13.5425 22.3044 13.5536 22.3643 13.5527 22.4246C13.5527 23.0619 13.341 25.1451 11.2639 27.5427C11.229 27.5891 11.2091 27.6449 11.2068 27.7029C11.2045 27.7608 11.2199 27.8181 11.2509 27.8671C11.282 27.9161 11.3272 27.9545 11.3806 27.9772C11.434 27.9999 11.4931 28.0058 11.55 27.9942C13.5698 27.4484 18.4164 25.6366 19.7897 20.6214C19.7992 20.5855 19.7998 20.5479 19.7915 20.5117C19.7832 20.4756 19.7662 20.442 19.742 20.4138C19.7177 20.3857 19.687 20.3639 19.6525 20.3503C19.6179 20.3366 19.5806 20.3316 19.5436 20.3356C18.701 20.4389 17.8512 20.4724 17.0031 20.4356C16.8629 20.4356 16.6426 20.4071 16.4309 20.3842C16.4026 20.3795 16.3767 20.3654 16.3573 20.3443C16.3379 20.3232 16.3261 20.2963 16.3238 20.2677C16.3215 20.2391 16.3288 20.2106 16.3446 20.1867C16.3603 20.1628 16.3837 20.1448 16.4108 20.1356C16.6025 20.0813 16.7999 20.0213 16.9229 19.9784C18.2548 19.4787 19.5075 18.7895 20.6423 17.9323C21.3927 17.3847 22.0996 16.78 22.7565 16.1234C24.7513 14.1316 26.2465 11.697 27.1201 9.01817C27.9936 6.33938 28.2209 3.49227 27.7833 0.709062C27.7637 0.584239 27.7049 0.468857 27.6155 0.379509C27.526 0.290161 27.4105 0.231452 27.2855 0.211825C23.9963 -0.297833 20.6301 0.116484 17.5631 1.40844C14.4962 2.7004 11.8496 4.81906 9.91919 7.52749C9.84284 7.63431 9.74423 7.72334 9.63014 7.78845C9.51605 7.85357 9.3892 7.89323 9.2583 7.90471C2.79814 8.47624 0.612326 14.2145 0.00293159 16.4778C-0.00510979 16.5334 0.00348091 16.5903 0.0276299 16.6411C0.0517769 16.6919 0.0904064 16.7345 0.138676 16.7635C0.186945 16.7925 0.242706 16.8066 0.298973 16.804C0.355238 16.8015 0.409506 16.7824 0.454971 16.7492ZM15.2864 8.44481C15.695 8.0368 16.2155 7.75895 16.7821 7.6464C17.3487 7.53385 17.936 7.59165 18.4698 7.81249C19.0035 8.03334 19.4597 8.4073 19.7807 8.88711C20.1016 9.36691 20.2729 9.93101 20.2729 10.5081C20.2729 11.0851 20.1016 11.6492 19.7807 12.129C19.4597 12.6088 19.0035 12.9828 18.4698 13.2036C17.936 13.4245 17.3487 13.4823 16.7821 13.3697C16.2155 13.2572 15.695 12.9793 15.2864 12.5713C15.0152 12.3004 14.8 11.9787 14.6531 11.6247C14.5063 11.2707 14.4308 10.8912 14.4308 10.5081C14.4308 10.1249 14.5063 9.74543 14.6531 9.39142C14.8 9.03741 15.0152 8.71575 15.2864 8.44481Z" fill="white"/>
</svg>
