<svg width="16" height="16" viewBox="0 0 16 16" fill="none" xmlns="http://www.w3.org/2000/svg">
<path fill-rule="evenodd" clip-rule="evenodd" d="M7.88272 13.4517V14.2491C7.88272 14.8885 7.56403 15.4406 7.01025 15.7603C6.74381 15.9141 6.44644 15.9999 6.13812 16C5.82953 16.0002 5.53225 15.9142 5.26562 15.7603L1.72012 13.7133C1.16628 13.3935 0.847656 12.8416 0.847656 12.2021V1.74494C0.847656 0.782719 1.63041 0 2.59259 0H10.4011C11.3633 0 12.1461 0.782656 12.1461 1.74494V3.94928C12.1461 4.2655 11.8894 4.52225 11.5732 4.52225C11.2568 4.52225 11.0003 4.26553 11.0003 3.94928V1.74494C11.0003 1.41453 10.7315 1.14569 10.4011 1.14569H3.55881L7.01025 3.13872C7.56384 3.45841 7.88272 4.01028 7.88272 4.64956V12.3059H10.4011C10.7314 12.3059 11.0003 12.0372 11.0003 11.7068V9.77441C11.0003 9.45797 11.2567 9.20144 11.5732 9.20144C11.8895 9.20144 12.1461 9.45803 12.1461 9.77441V11.7068C12.1461 12.6691 11.3633 13.4517 10.4011 13.4517H7.88272ZM13.1916 7.29869L12.5606 7.92966C12.3369 8.15337 12.3369 8.51606 12.5606 8.73981C12.6683 8.84756 12.8134 8.90744 12.9657 8.90744C13.1181 8.90744 13.2631 8.84772 13.3709 8.73981L14.9797 7.13081C15.2033 6.90712 15.2033 6.54463 14.9797 6.32094L13.3709 4.71219C13.1472 4.48844 12.7845 4.48853 12.5606 4.71216C12.337 4.93566 12.337 5.2985 12.5606 5.52206L13.1916 6.15287H8.96469C8.64816 6.15287 8.39184 6.40937 8.39184 6.72587C8.39184 7.04238 8.64819 7.29872 8.96469 7.29872H13.1916V7.29869Z" fill="white"/>
</svg>
