<svg width="20" height="19" viewBox="0 0 20 19" fill="none" xmlns="http://www.w3.org/2000/svg">
<path d="M10.0072 18.284C7.49761 18.284 5.36445 17.4056 3.60773 15.6489C1.85102 13.8922 0.972656 11.759 0.972656 9.2494C0.972656 6.7398 1.85102 4.60664 3.60773 2.84992C5.36445 1.0932 7.49761 0.214844 10.0072 0.214844C10.2414 0.214844 10.4717 0.223209 10.6979 0.23994C10.924 0.25667 11.1456 0.281766 11.3624 0.315228C10.6764 0.800417 10.1283 1.43217 9.7181 2.21048C9.30787 2.98879 9.10309 3.82933 9.10375 4.73212C9.10375 6.23788 9.63077 7.51777 10.6848 8.57181C11.7388 9.62584 13.0187 10.1529 14.5245 10.1529C15.4447 10.1529 16.2896 9.94773 17.0592 9.5375C17.8288 9.12726 18.4562 8.5795 18.9414 7.89421C18.9748 8.11171 18.9999 8.33323 19.0167 8.55876C19.0334 8.78429 19.0418 9.0145 19.0418 9.2494C19.0418 11.759 18.1634 13.8922 16.4067 15.6489C14.65 17.4056 12.5168 18.284 10.0072 18.284Z" fill="#8C77ED"/>
</svg>
