<svg width="12" height="12" viewBox="0 0 12 12" fill="none" xmlns="http://www.w3.org/2000/svg">
<path d="M9.33309 5.53176L3.99294 0.191706C3.86943 0.068097 3.70455 0 3.52875 0C3.35294 0 3.18807 0.068097 3.06456 0.191706L2.67129 0.584873C2.41539 0.841066 2.41539 1.25745 2.67129 1.51326L7.15555 5.99751L2.66632 10.4867C2.5428 10.6104 2.47461 10.7751 2.47461 10.9508C2.47461 11.1267 2.5428 11.2915 2.66632 11.4152L3.05958 11.8083C3.18319 11.9319 3.34797 12 3.52377 12C3.69958 12 3.86445 11.9319 3.98796 11.8083L9.33309 6.46336C9.45689 6.33936 9.52489 6.1738 9.5245 5.99781C9.52489 5.82112 9.45689 5.65566 9.33309 5.53176Z" fill="currentColor"/>
</svg>
