<svg width="20" height="20" viewBox="0 0 20 20" fill="none" xmlns="http://www.w3.org/2000/svg">
<path d="M2.35294 20C1.70588 20 1.15177 19.804 0.69059 19.412C0.229414 19.02 -0.000782316 18.5493 1.9974e-06 18V4H2.35294V18H15.2941V20H2.35294ZM7.05883 16C6.41177 16 5.85765 15.804 5.39647 15.412C4.9353 15.02 4.7051 14.5493 4.70588 14V2C4.70588 1.45 4.93647 0.979001 5.39765 0.587002C5.85882 0.195002 6.41255 -0.000664969 7.05883 1.69779e-06H17.6471C18.2941 1.69779e-06 18.8482 0.196002 19.3094 0.588002C19.7706 0.980002 20.0008 1.45067 20 2V14C20 14.55 19.7694 15.021 19.3082 15.413C18.8471 15.805 18.2933 16.0007 17.6471 16H7.05883ZM7.05883 14H17.6471V2H7.05883V14Z" fill="currentColor"/>
</svg>
