<svg width="14" height="14" viewBox="0 0 14 14" fill="none" xmlns="http://www.w3.org/2000/svg">
<path d="M8.2499 13.6663H5.7499C5.58323 13.6663 5.43879 13.6108 5.31657 13.4997C5.19434 13.3886 5.12212 13.2497 5.0999 13.083L4.8999 11.533C4.75546 11.4775 4.61923 11.4108 4.49123 11.333C4.36323 11.2552 4.23834 11.1719 4.11657 11.083L2.66657 11.683C2.51101 11.7386 2.35545 11.7441 2.1999 11.6997C2.04434 11.6552 1.92212 11.5608 1.83323 11.4163L0.599899 9.26634C0.51101 9.1219 0.483233 8.96634 0.516566 8.79967C0.549899 8.63301 0.633233 8.49967 0.766566 8.39968L2.01657 7.44967C2.00545 7.3719 1.9999 7.29679 1.9999 7.22434V6.77501C1.9999 6.70256 2.00545 6.62745 2.01657 6.54967L0.766566 5.59967C0.633233 5.49967 0.549899 5.36634 0.516566 5.19967C0.483233 5.03301 0.51101 4.87745 0.599899 4.73301L1.83323 2.58301C1.91101 2.42745 2.03034 2.33012 2.19123 2.29101C2.35212 2.2519 2.51057 2.26034 2.66657 2.31634L4.11657 2.91634C4.23879 2.82745 4.36657 2.74412 4.4999 2.66634C4.63323 2.58856 4.76657 2.5219 4.8999 2.46634L5.0999 0.916341C5.12212 0.749674 5.19434 0.610786 5.31657 0.499674C5.43879 0.388563 5.58323 0.333008 5.7499 0.333008H8.2499C8.41657 0.333008 8.56101 0.388563 8.68323 0.499674C8.80545 0.610786 8.87768 0.749674 8.8999 0.916341L9.0999 2.46634C9.24434 2.5219 9.38057 2.58856 9.50856 2.66634C9.63657 2.74412 9.76146 2.82745 9.88323 2.91634L11.3332 2.31634C11.4888 2.26079 11.6443 2.25523 11.7999 2.29967C11.9555 2.34412 12.0777 2.43856 12.1666 2.58301L13.3999 4.73301C13.4888 4.87745 13.5166 5.03301 13.4832 5.19967C13.4499 5.36634 13.3666 5.49967 13.2332 5.59967L11.9832 6.54967C11.9943 6.62745 11.9999 6.70256 11.9999 6.77501V7.22434C11.9999 7.29679 11.9888 7.3719 11.9666 7.44967L13.2166 8.39968C13.3499 8.49967 13.4332 8.63301 13.4666 8.79967C13.4999 8.96634 13.4721 9.1219 13.3832 9.26634L12.1499 11.3997C12.061 11.5441 11.9359 11.6415 11.7746 11.6917C11.6132 11.7419 11.455 11.739 11.2999 11.683L9.88323 11.083C9.76101 11.1719 9.63323 11.2552 9.4999 11.333C9.36657 11.4108 9.23323 11.4775 9.0999 11.533L8.8999 13.083C8.87768 13.2497 8.80545 13.3886 8.68323 13.4997C8.56101 13.6108 8.41657 13.6663 8.2499 13.6663ZM7.03323 9.33301C7.67768 9.33301 8.22768 9.10523 8.68323 8.64968C9.13879 8.19412 9.36657 7.64412 9.36657 6.99967C9.36657 6.35523 9.13879 5.80523 8.68323 5.34967C8.22768 4.89412 7.67768 4.66634 7.03323 4.66634C6.37768 4.66634 5.82479 4.89412 5.37457 5.34967C4.92434 5.80523 4.69945 6.35523 4.6999 6.99967C4.6999 7.64412 4.92479 8.19412 5.37457 8.64968C5.82434 9.10523 6.37723 9.33301 7.03323 9.33301Z" fill="currentColor"/>
</svg>
