<svg width="26" height="26" viewBox="0 0 26 26" fill="none" xmlns="http://www.w3.org/2000/svg">
<path d="M18.9216 17.8081L23.3831 22.2685L21.9091 23.7424L17.4487 19.281C15.7891 20.6114 13.7247 21.3351 11.5977 21.332C6.42266 21.332 2.22266 17.132 2.22266 11.957C2.22266 6.78203 6.42266 2.58203 11.5977 2.58203C16.7727 2.58203 20.9727 6.78203 20.9727 11.957C20.9757 14.0841 20.2521 16.1484 18.9216 17.8081ZM16.832 17.0352C18.154 15.6757 18.8923 13.8533 18.8893 11.957C18.8893 7.92786 15.6258 4.66536 11.5977 4.66536C7.56849 4.66536 4.30599 7.92786 4.30599 11.957C4.30599 15.9852 7.56849 19.2487 11.5977 19.2487C13.4939 19.2517 15.3163 18.5134 16.6758 17.1914L16.832 17.0352Z" fill="#ADADAD"/>
</svg>
