<svg width="13" height="14" viewBox="0 0 13 14" fill="none" xmlns="http://www.w3.org/2000/svg">
<circle cx="6.5" cy="7.10938" r="6" stroke="currentColor"/>
<path d="M7.27467 3.14526C7.4077 2.816 7.8319 2.72606 8.08761 2.97249C8.1807 3.0622 8.30506 3.11243 8.43434 3.11243C8.78847 3.11243 9.03014 3.47073 8.89748 3.79907L6.91643 8.70235C6.77991 9.04025 6.39532 9.2035 6.05742 9.06698L5.65889 8.90596C5.32099 8.76944 5.15774 8.38485 5.29426 8.04695L7.27467 3.14526Z" fill="currentColor"/>
<path d="M5.19992 10.9174C5.12007 10.979 5.00352 10.9319 4.98881 10.8321L4.81915 9.68135C4.77705 9.39582 5.06092 9.1725 5.32851 9.28061L6.03335 9.56539C6.30095 9.6735 6.35001 10.0313 6.12139 10.2075L5.19992 10.9174Z" fill="currentColor"/>
</svg>
