<svg width="19" height="18" viewBox="0 0 19 18" fill="none" xmlns="http://www.w3.org/2000/svg">
<path fill-rule="evenodd" clip-rule="evenodd" d="M17.7333 15.7885V12.5192H18.278C18.4695 12.5192 18.6531 12.4407 18.7885 12.3009C18.9239 12.1611 19 11.9715 19 11.7738V6.72615C19 6.52847 18.9239 6.33887 18.7885 6.19909C18.6531 6.0593 18.4695 5.98077 18.278 5.98077H17.7333V2.71154C17.7333 2.19131 17.5332 1.69238 17.1768 1.32452C16.8205 0.956662 16.3372 0.75 15.8333 0.75H1.9C1.39609 0.75 0.912816 0.956662 0.556497 1.32452C0.200178 1.69238 0 2.19131 0 2.71154L0 15.7885C0 16.3087 0.200178 16.8076 0.556497 17.1755C0.912816 17.5433 1.39609 17.75 1.9 17.75H15.8333C16.3372 17.75 16.8205 17.5433 17.1768 17.1755C17.5332 16.8076 17.7333 16.3087 17.7333 15.7885ZM17.7333 7.28846V11.2115H12.0333C11.5294 11.2115 11.0461 11.0049 10.6898 10.637C10.3335 10.2692 10.1333 9.77023 10.1333 9.25C10.1333 8.72977 10.3335 8.23084 10.6898 7.86298C11.0461 7.49512 11.5294 7.28846 12.0333 7.28846H17.7333Z" fill="white"/>
</svg>
