<svg width="20" height="21" viewBox="0 0 20 21" fill="none" xmlns="http://www.w3.org/2000/svg">
<path d="M3.77734 4.02734C3.77734 3.3643 4.04074 2.72842 4.50958 2.25958C4.97842 1.79074 5.6143 1.52734 6.27734 1.52734C6.94038 1.52734 7.57627 1.79074 8.04511 2.25958C8.51395 2.72842 8.77734 3.3643 8.77734 4.02734C8.77734 4.69039 8.51395 5.32627 8.04511 5.79511C7.57627 6.26395 6.94038 6.52734 6.27734 6.52734C5.6143 6.52734 4.97842 6.26395 4.50958 5.79511C4.04074 5.32627 3.77734 4.69039 3.77734 4.02734ZM12.2511 6.00734L12.3036 6.04734C12.834 6.44048 13.4983 6.60787 14.1516 6.51298C14.805 6.4181 15.3942 6.06865 15.7909 5.54089C16.1875 5.01313 16.3593 4.34991 16.2687 3.69597C16.1781 3.04203 15.8326 2.45046 15.3074 2.05036C14.7823 1.65026 14.1202 1.47411 13.4657 1.56037C12.8112 1.64662 12.2173 1.98826 11.8138 2.51074C11.4102 3.03322 11.2297 3.69411 11.3116 4.34919C11.3936 5.00427 11.7313 5.60035 12.2511 6.00734ZM7.86234 7.77734C8.01935 7.48005 8.2347 7.21747 8.49553 7.00533C8.75635 6.79319 9.05729 6.63583 9.38033 6.54268C9.70337 6.44953 10.0419 6.42249 10.3756 6.46318C10.7094 6.50388 11.0314 6.61147 11.3226 6.77953C11.6138 6.94758 11.8681 7.17264 12.0703 7.44125C12.2725 7.70985 12.4185 8.01648 12.4994 8.34279C12.5804 8.66911 12.5947 9.0084 12.5415 9.34037C12.4883 9.67234 12.3687 9.99017 12.1898 10.2748C11.8457 10.8225 11.3028 11.2155 10.675 11.3712C10.0473 11.527 9.38357 11.4334 8.82338 11.1101C8.26319 10.7868 7.85009 10.259 7.67089 9.63748C7.49168 9.01602 7.5603 8.34928 7.86234 7.77734ZM3.15234 7.77734H6.48984C6.26769 8.41179 6.21938 9.09413 6.34995 9.75355C6.48051 10.413 6.78518 11.0254 7.23234 11.5273H6.90234C6.25789 11.5273 5.62916 11.7263 5.1022 12.0973C4.57524 12.4683 4.17582 12.9931 3.95859 13.5998C3.53901 13.4313 3.14615 13.2027 2.79234 12.9211C1.85234 12.1648 1.27734 11.0473 1.27734 9.65234C1.27734 9.15506 1.47489 8.67815 1.82652 8.32652C2.17815 7.97489 2.65506 7.77734 3.15234 7.77734ZM13.1523 11.5273C13.7966 11.5273 14.4252 11.7265 14.9519 12.0975C15.4787 12.4685 15.8778 12.9932 16.0948 13.5998C16.5198 13.4261 16.9136 13.1998 17.2623 12.9211C18.2023 12.1648 18.7773 11.0473 18.7773 9.65234C18.7773 9.15506 18.5798 8.67815 18.2282 8.32652C17.8765 7.97489 17.3996 7.77734 16.9023 7.77734H13.5648C13.7023 8.16859 13.7773 8.58984 13.7773 9.02734C13.7785 9.94999 13.4383 10.8405 12.8223 11.5273H13.1523ZM14.8861 13.9373C14.9773 14.1573 15.0273 14.3998 15.0273 14.6523C15.0273 16.0473 14.4536 17.1648 13.5123 17.9211C12.5861 18.6648 11.3436 19.0273 10.0273 19.0273C8.71109 19.0273 7.46859 18.6648 6.54234 17.9211C5.60234 17.1648 5.02734 16.0473 5.02734 14.6523C5.02668 14.4059 5.07473 14.1618 5.16873 13.934C5.26272 13.7062 5.40081 13.4993 5.57505 13.325C5.74929 13.1508 5.95625 13.0127 6.18403 12.9187C6.41182 12.8247 6.65593 12.7767 6.90234 12.7773H13.1523C13.5237 12.7773 13.8868 12.8875 14.1954 13.094C14.5041 13.3005 14.7445 13.594 14.8861 13.9373Z" fill="white"/>
</svg>
