<svg width="20" height="21" viewBox="0 0 20 21" fill="none" xmlns="http://www.w3.org/2000/svg">
<path d="M11.5626 18.5846H8.43762C8.22928 18.5846 8.04873 18.5152 7.89595 18.3763C7.74317 18.2374 7.6529 18.0638 7.62512 17.8555L7.37512 15.918C7.19456 15.8485 7.02429 15.7652 6.86428 15.668C6.70429 15.5707 6.54817 15.4666 6.39595 15.3555L4.58345 16.1055C4.38901 16.1749 4.19456 16.1819 4.00012 16.1263C3.80567 16.0707 3.6529 15.9527 3.54178 15.7721L2.00012 13.0846C1.88901 12.9041 1.85429 12.7096 1.89595 12.5013C1.93762 12.293 2.04179 12.1263 2.20845 12.0013L3.77095 10.8138C3.75706 10.7166 3.75012 10.6227 3.75012 10.5321V9.97047C3.75012 9.87991 3.75706 9.78602 3.77095 9.6888L2.20845 8.5013C2.04179 8.3763 1.93762 8.20964 1.89595 8.0013C1.85429 7.79297 1.88901 7.59853 2.00012 7.41797L3.54178 4.73047C3.63901 4.53602 3.78817 4.41436 3.98929 4.36547C4.1904 4.31658 4.38845 4.32714 4.58345 4.39714L6.39595 5.14714C6.54873 5.03602 6.70845 4.93186 6.87512 4.83464C7.04178 4.73741 7.20845 4.65408 7.37512 4.58464L7.62512 2.64714C7.6529 2.4388 7.74317 2.26519 7.89595 2.1263C8.04873 1.98741 8.22928 1.91797 8.43762 1.91797H11.5626C11.771 1.91797 11.9515 1.98741 12.1043 2.1263C12.2571 2.26519 12.3473 2.4388 12.3751 2.64714L12.6251 4.58464C12.8057 4.65408 12.976 4.73741 13.136 4.83464C13.296 4.93186 13.4521 5.03602 13.6043 5.14714L15.4168 4.39714C15.6112 4.32769 15.8057 4.32075 16.0001 4.3763C16.1946 4.43186 16.3473 4.54991 16.4585 4.73047L18.0001 7.41797C18.1112 7.59853 18.146 7.79297 18.1043 8.0013C18.0626 8.20964 17.9585 8.3763 17.7918 8.5013L16.2293 9.6888C16.2432 9.78602 16.2501 9.87991 16.2501 9.97047V10.5321C16.2501 10.6227 16.2362 10.7166 16.2085 10.8138L17.771 12.0013C17.9376 12.1263 18.0418 12.293 18.0835 12.5013C18.1251 12.7096 18.0904 12.9041 17.9793 13.0846L16.4376 15.7513C16.3265 15.9319 16.1701 16.0535 15.9685 16.1163C15.7668 16.1791 15.569 16.1755 15.3751 16.1055L13.6043 15.3555C13.4515 15.4666 13.2918 15.5707 13.1251 15.668C12.9585 15.7652 12.7918 15.8485 12.6251 15.918L12.3751 17.8555C12.3473 18.0638 12.2571 18.2374 12.1043 18.3763C11.9515 18.5152 11.771 18.5846 11.5626 18.5846ZM10.0418 13.168C10.8473 13.168 11.5348 12.8832 12.1043 12.3138C12.6737 11.7444 12.9585 11.0569 12.9585 10.2513C12.9585 9.44575 12.6737 8.75825 12.1043 8.1888C11.5348 7.61936 10.8473 7.33464 10.0418 7.33464C9.22234 7.33464 8.53123 7.61936 7.96845 8.1888C7.40567 8.75825 7.12456 9.44575 7.12512 10.2513C7.12512 11.0569 7.40623 11.7444 7.96845 12.3138C8.53067 12.8832 9.22179 13.168 10.0418 13.168Z" fill="white"/>
</svg>
