<svg width="19" height="23" viewBox="0 0 19 23" fill="none" xmlns="http://www.w3.org/2000/svg">
<path d="M10.0588 22.25L9.77941 18.95H9.5C6.8549 18.95 4.61029 18.0425 2.76618 16.2275C0.922059 14.4125 0 12.2033 0 9.6C0 6.99667 0.922059 4.7875 2.76618 2.9725C4.61029 1.1575 6.8549 0.25 9.5 0.25C10.8225 0.25 12.0568 0.492733 13.2028 0.9782C14.3487 1.46367 15.3546 2.13283 16.2204 2.9857C17.0862 3.83857 17.7657 4.82857 18.259 5.9557C18.7523 7.08283 18.9993 8.2976 19 9.6C19 10.975 18.7716 12.295 18.3149 13.56C17.8581 14.825 17.2341 15.9983 16.4428 17.08C15.6515 18.1617 14.7108 19.1425 13.6208 20.0225C12.5307 20.9025 11.3434 21.645 10.0588 22.25ZM9.47206 15.6225C9.78873 15.6225 10.0588 15.5125 10.2824 15.2925C10.5059 15.0725 10.6176 14.8067 10.6176 14.495C10.6176 14.1833 10.5059 13.9175 10.2824 13.6975C10.0588 13.4775 9.78873 13.3675 9.47206 13.3675C9.15539 13.3675 8.88529 13.4775 8.66177 13.6975C8.43824 13.9175 8.32647 14.1833 8.32647 14.495C8.32647 14.8067 8.43824 15.0725 8.66177 15.2925C8.88529 15.5125 9.15539 15.6225 9.47206 15.6225ZM8.66177 12.13H10.3382C10.3382 11.58 10.3941 11.195 10.5059 10.975C10.6176 10.755 10.9716 10.3517 11.5676 9.765C11.9029 9.435 12.1824 9.0775 12.4059 8.6925C12.6294 8.3075 12.7412 7.895 12.7412 7.455C12.7412 6.52 12.4197 5.81857 11.7766 5.3507C11.1336 4.88283 10.3747 4.64927 9.5 4.65C8.68039 4.65 7.99118 4.87477 7.43235 5.3243C6.87353 5.77383 6.48235 6.31907 6.25882 6.96L7.82353 7.565C7.91667 7.25333 8.09363 6.94607 8.35441 6.6432C8.6152 6.34033 8.99706 6.18927 9.5 6.19C10.0029 6.19 10.38 6.3275 10.6311 6.6025C10.8822 6.8775 11.0081 7.18 11.0088 7.51C11.0088 7.82167 10.9157 8.10143 10.7294 8.3493C10.5431 8.59717 10.3196 8.84907 10.0588 9.105C9.40686 9.655 9.01084 10.0906 8.87076 10.4118C8.73069 10.733 8.66102 11.3057 8.66177 12.13Z" fill="white"/>
</svg>
