<svg width="14" height="14" viewBox="0 0 14 14" fill="none" xmlns="http://www.w3.org/2000/svg">
<path fill-rule="evenodd" clip-rule="evenodd" d="M6.99992 13.6663C10.6818 13.6663 13.6666 10.6816 13.6666 6.99967C13.6666 3.31779 10.6818 0.333008 6.99992 0.333008C3.31803 0.333008 0.333252 3.31779 0.333252 6.99967C0.333252 10.6816 3.31803 13.6663 6.99992 13.6663ZM6.99992 4.33301C6.26351 4.33301 5.66659 4.92997 5.66659 5.66634H4.33325C4.33325 4.19356 5.52718 2.99967 6.99992 2.99967H7.33325C8.80599 2.99967 9.99992 4.19356 9.99992 5.66634C9.99992 7.13912 8.80599 8.33301 7.33325 8.33301H6.33325V7.66634C6.33325 7.29814 6.63175 6.99967 6.99992 6.99967H7.33325C8.06966 6.99967 8.66659 6.40271 8.66659 5.66634C8.66659 4.92997 8.06966 4.33301 7.33325 4.33301H6.99992ZM7.66659 9.66634V10.9997H6.33325V9.66634H7.66659Z" fill="currentColor"/>
</svg>
