<svg width="28" height="27" viewBox="0 0 28 27" fill="none" xmlns="http://www.w3.org/2000/svg">
<path d="M14.2747 3.41667C14.7344 3.41667 15.1895 3.5072 15.6141 3.68309C16.0388 3.85898 16.4246 4.11679 16.7496 4.44179C17.0746 4.7668 17.3324 5.15264 17.5083 5.57727C17.6842 6.00191 17.7747 6.45704 17.7747 6.91667C17.7747 7.37629 17.6842 7.83142 17.5083 8.25606C17.3324 8.6807 17.0746 9.06653 16.7496 9.39154C16.4246 9.71655 16.0388 9.97435 15.6141 10.1502C15.1895 10.3261 14.7344 10.4167 14.2747 10.4167C13.3465 10.4167 12.4562 10.0479 11.7999 9.39154C11.1435 8.73516 10.7747 7.84492 10.7747 6.91667C10.7747 5.98841 11.1435 5.09817 11.7999 4.44179C12.4562 3.78542 13.3465 3.41667 14.2747 3.41667ZM14.2747 18.4167C19.2247 18.4167 24.4414 20.85 24.4414 21.9167V23.75H4.10807V21.9167C4.10807 20.85 9.32474 18.4167 14.2747 18.4167ZM14.2747 0.25C10.5914 0.25 7.60807 3.23333 7.60807 6.91667C7.60807 10.6 10.5914 13.5833 14.2747 13.5833C17.9581 13.5833 20.9414 10.6 20.9414 6.91667C20.9414 3.23333 17.9581 0.25 14.2747 0.25ZM14.2747 15.25C9.82474 15.25 0.941406 17.4833 0.941406 21.9167V25.25C0.941406 26.1667 1.69141 26.9167 2.60807 26.9167H25.9414C26.8581 26.9167 27.6081 26.1667 27.6081 25.25V21.9167C27.6081 17.4833 18.7247 15.25 14.2747 15.25Z" fill="black"/>
</svg>
