<svg width="13" height="14" viewBox="0 0 13 14" fill="none" xmlns="http://www.w3.org/2000/svg">
<circle cx="6.5" cy="7.49219" r="6" stroke="currentColor"/>
<path d="M7.20785 4.1875L7.08363 8.75481H5.91792L5.79052 4.1875H7.20785ZM6.50078 10.7932C6.29056 10.7932 6.11008 10.7189 5.95932 10.5703C5.80857 10.4195 5.73425 10.239 5.73637 10.0288C5.73425 9.82073 5.80857 9.64237 5.95932 9.49373C6.11008 9.3451 6.29056 9.27078 6.50078 9.27078C6.70249 9.27078 6.87979 9.3451 7.03267 9.49373C7.18555 9.64237 7.26306 9.82073 7.26518 10.0288C7.26306 10.169 7.2259 10.2974 7.1537 10.4142C7.08363 10.5289 6.99127 10.6212 6.87661 10.6913C6.76195 10.7592 6.63667 10.7932 6.50078 10.7932Z" fill="currentColor"/>
</svg>
