<svg width="12" height="12" viewBox="0 0 12 12" fill="none" xmlns="http://www.w3.org/2000/svg">
<path d="M10.9998 6.83171H6.83317V10.9984C6.83317 11.2194 6.74537 11.4313 6.58909 11.5876C6.43281 11.7439 6.22085 11.8317 5.99984 11.8317C5.77882 11.8317 5.56686 11.7439 5.41058 11.5876C5.2543 11.4313 5.1665 11.2194 5.1665 10.9984V6.83171H0.999837C0.778823 6.83171 0.566862 6.74391 0.410582 6.58763C0.254301 6.43135 0.166504 6.21939 0.166504 5.99837C0.166504 5.77736 0.254301 5.5654 0.410582 5.40912C0.566862 5.25284 0.778823 5.16504 0.999837 5.16504H5.1665V0.998372C5.1665 0.777359 5.2543 0.565397 5.41058 0.409117C5.56686 0.252836 5.77882 0.165039 5.99984 0.165039C6.22085 0.165039 6.43281 0.252836 6.58909 0.409117C6.74537 0.565397 6.83317 0.777359 6.83317 0.998372V5.16504H10.9998C11.2209 5.16504 11.4328 5.25284 11.5891 5.40912C11.7454 5.5654 11.8332 5.77736 11.8332 5.99837C11.8332 6.21939 11.7454 6.43135 11.5891 6.58763C11.4328 6.74391 11.2209 6.83171 10.9998 6.83171Z" fill="currentColor"/>
</svg>
