<svg width="19" height="20" viewBox="0 0 19 20" fill="none" xmlns="http://www.w3.org/2000/svg">
<path d="M9.48628 5.93996C7.10609 5.93996 5.17434 7.87171 5.17434 10.2519C5.17434 12.6321 7.10609 14.5639 9.48628 14.5639C11.8665 14.5639 13.7982 12.6321 13.7982 10.2519C13.7982 7.87171 11.8665 5.93996 9.48628 5.93996ZM0.862389 11.1143H2.58717C3.06148 11.1143 3.44956 10.7262 3.44956 10.2519C3.44956 9.77759 3.06148 9.38952 2.58717 9.38952H0.862389C0.388075 9.38952 0 9.77759 0 10.2519C0 10.7262 0.388075 11.1143 0.862389 11.1143ZM16.3854 11.1143H18.1102C18.5845 11.1143 18.9726 10.7262 18.9726 10.2519C18.9726 9.77759 18.5845 9.38952 18.1102 9.38952H16.3854C15.9111 9.38952 15.523 9.77759 15.523 10.2519C15.523 10.7262 15.9111 11.1143 16.3854 11.1143ZM8.62389 1.62801V3.35279C8.62389 3.82711 9.01197 4.21518 9.48628 4.21518C9.9606 4.21518 10.3487 3.82711 10.3487 3.35279V1.62801C10.3487 1.1537 9.9606 0.765625 9.48628 0.765625C9.01197 0.765625 8.62389 1.1537 8.62389 1.62801ZM8.62389 17.151V18.8758C8.62389 19.3501 9.01197 19.7382 9.48628 19.7382C9.9606 19.7382 10.3487 19.3501 10.3487 18.8758V17.151C10.3487 16.6767 9.9606 16.2886 9.48628 16.2886C9.01197 16.2886 8.62389 16.6767 8.62389 17.151ZM4.30332 3.85298C4.22354 3.77303 4.12877 3.70961 4.02445 3.66633C3.92012 3.62305 3.80828 3.60078 3.69534 3.60078C3.58239 3.60078 3.47056 3.62305 3.36623 3.66633C3.2619 3.70961 3.16714 3.77303 3.08735 3.85298C3.00741 3.93276 2.94398 4.02753 2.9007 4.13185C2.85743 4.23618 2.83515 4.34802 2.83515 4.46096C2.83515 4.57391 2.85743 4.68575 2.9007 4.79007C2.94398 4.8944 3.00741 4.98916 3.08735 5.06895L4.00149 5.98308C4.33782 6.31941 4.88975 6.31941 5.21745 5.98308C5.54516 5.64675 5.55379 5.09482 5.21745 4.76711L4.30332 3.85298ZM14.9711 14.5207C14.8913 14.4408 14.7965 14.3774 14.6922 14.3341C14.5879 14.2908 14.476 14.2685 14.3631 14.2685C14.2501 14.2685 14.1383 14.2908 14.034 14.3341C13.9297 14.3774 13.8349 14.4408 13.7551 14.5207C13.6752 14.6005 13.6117 14.6953 13.5685 14.7996C13.5252 14.9039 13.5029 15.0158 13.5029 15.1287C13.5029 15.2417 13.5252 15.3535 13.5685 15.4578C13.6117 15.5622 13.6752 15.6569 13.7551 15.7367L14.6692 16.6508C15.0056 16.9872 15.5575 16.9872 15.8852 16.6508C15.9652 16.5711 16.0286 16.4763 16.0719 16.372C16.1151 16.2676 16.1374 16.1558 16.1374 16.0429C16.1374 15.9299 16.1151 15.8181 16.0719 15.7137C16.0286 15.6094 15.9652 15.5146 15.8852 15.4349L14.9711 14.5207ZM15.8852 5.06895C15.9652 4.98916 16.0286 4.8944 16.0719 4.79007C16.1151 4.68575 16.1374 4.57391 16.1374 4.46096C16.1374 4.34802 16.1151 4.23618 16.0719 4.13185C16.0286 4.02753 15.9652 3.93276 15.8852 3.85298C15.8054 3.77303 15.7107 3.70961 15.6063 3.66633C15.502 3.62305 15.3902 3.60078 15.2772 3.60078C15.1643 3.60078 15.0524 3.62305 14.9481 3.66633C14.8438 3.70961 14.749 3.77303 14.6692 3.85298L13.7551 4.76711C13.4188 5.10344 13.4188 5.65537 13.7551 5.98308C14.0914 6.31079 14.6434 6.31941 14.9711 5.98308L15.8852 5.06895ZM5.21745 15.7367C5.2974 15.6569 5.36083 15.5622 5.4041 15.4578C5.44738 15.3535 5.46966 15.2417 5.46966 15.1287C5.46966 15.0158 5.44738 14.9039 5.4041 14.7996C5.36083 14.6953 5.2974 14.6005 5.21745 14.5207C5.13767 14.4408 5.04291 14.3774 4.93858 14.3341C4.83425 14.2908 4.72242 14.2685 4.60947 14.2685C4.49652 14.2685 4.38469 14.2908 4.28036 14.3341C4.17604 14.3774 4.08127 14.4408 4.00149 14.5207L3.08735 15.4349C2.75102 15.7712 2.75102 16.3231 3.08735 16.6508C3.42369 16.9785 3.97561 16.9872 4.30332 16.6508L5.21745 15.7367Z" fill="white"/>
</svg>
