<svg width="21" height="15" viewBox="0 0 21 15" fill="none" xmlns="http://www.w3.org/2000/svg">
<path d="M9.7881 0.310765C8.61671 0.613709 7.94014 1.35087 7.82906 2.48187C7.75837 3.11805 8.02092 4.4611 8.34406 5.19827C8.60661 5.79406 9.2125 6.53122 9.52554 6.62211C9.85878 6.73319 9.73761 6.82407 9.07113 6.95535C8.71769 7.01593 8.21278 7.16741 7.95023 7.27849C7.49582 7.47035 7.43523 7.48045 6.99091 7.32898C6.73846 7.24819 6.32443 7.13711 6.07198 7.09672L5.62766 7.02603L5.99119 6.79378C6.72836 6.33936 7.19287 5.32954 7.27366 3.98649C7.33425 2.93628 7.20297 2.54246 6.62738 2.03755C5.88011 1.38117 4.69863 1.23979 3.7898 1.70431C2.74969 2.23951 2.42655 3.25942 2.80018 4.83473C3.00214 5.70318 3.26469 6.17779 3.80999 6.6524L4.26441 7.04623L3.7797 7.11692C3.04253 7.2078 1.91154 7.80359 1.24506 8.43977C-0.00710647 9.63135 -0.330247 11.2471 0.477605 12.2165C1.0229 12.8527 2.7093 13.3273 4.71883 13.398C5.65795 13.4384 6.09217 13.4989 6.64757 13.6908C8.82877 14.4381 12.0804 14.4381 14.3727 13.6807C14.9785 13.4888 15.4027 13.4182 16.3418 13.398C17.6142 13.3576 18.6139 13.1758 19.5328 12.8325C20.6234 12.4285 20.9667 11.964 20.9667 10.9037C20.9667 10.3483 20.9062 10.1161 20.6436 9.57077C20.068 8.39938 18.7149 7.41986 17.3213 7.14721L16.7255 7.03613L17.1294 6.73319C17.7353 6.27877 18.1797 5.32954 18.321 4.19855C18.422 3.34021 18.422 3.25942 18.1999 2.74442C17.7757 1.7649 16.6649 1.25999 15.4935 1.50235C14.0899 1.79519 13.5042 2.75452 13.7466 4.37022C13.898 5.36994 14.3828 6.31916 14.9482 6.74328C15.3926 7.07652 15.3926 7.07652 15.0997 7.07652C14.9382 7.07652 14.5342 7.16741 14.201 7.27849L13.585 7.49055L12.6762 7.1775C12.1713 7.01593 11.5856 6.87456 11.3735 6.87456H10.9797L11.4038 6.6625C12.1309 6.29897 12.6863 5.47092 12.9993 4.25914C13.2114 3.42099 13.2316 2.17892 13.0296 1.72451C12.8276 1.24989 12.2924 0.72479 11.7774 0.492532C11.2624 0.270372 10.3132 0.179489 9.7881 0.310765ZM11.5755 1.40137C12.0602 1.68411 12.2924 2.16882 12.2621 2.88579C12.2318 4.04708 11.6159 5.51131 11.0302 5.81425C10.5152 6.0869 10.1314 6.01622 9.70731 5.5719C9.11152 4.93572 8.59651 3.22913 8.74799 2.39098C8.83887 1.91637 9.25289 1.45186 9.7679 1.25999C10.2627 1.07822 11.1412 1.14891 11.5755 1.40137ZM5.51658 2.44147C6.13257 2.61314 6.38502 2.95648 6.38502 3.64315C6.38502 4.94581 5.67815 6.26867 4.99148 6.26867C4.2947 6.26867 3.63832 5.07709 3.61813 3.77443C3.60803 3.13825 3.63832 3.02717 3.85039 2.79491C4.24421 2.37079 4.82991 2.24961 5.51658 2.44147ZM16.7659 2.53236C17.3819 2.81511 17.5536 3.24933 17.4021 4.17836C17.2001 5.39013 16.6144 6.26867 16.0086 6.26867C15.0997 6.26867 14.201 3.70374 14.8271 2.8656C15.2108 2.34049 16.0388 2.19912 16.7659 2.53236ZM11.6664 7.83388C13.6658 8.25801 15.3724 9.89391 15.3724 11.3985C15.3724 12.267 14.9281 12.6204 13.3023 13.0445C12.4944 13.2566 12.1713 13.2869 10.4748 13.2869C8.79848 13.2768 8.44504 13.2566 7.69778 13.0445C6.58698 12.7416 6.29414 12.6204 5.9609 12.2771C5.71854 12.0347 5.67815 11.9135 5.67815 11.4288C5.67815 10.3887 6.36482 9.32841 7.52611 8.58115C8.75808 7.78339 10.2021 7.52084 11.6664 7.83388ZM5.9407 7.99545C6.18306 8.05604 6.38502 8.13683 6.38502 8.16712C6.38502 8.19742 6.15276 8.45997 5.88011 8.75282C4.94099 9.74243 4.54716 11.0451 4.80971 12.2165L4.89049 12.5497L4.15333 12.479C3.2243 12.3881 2.08321 12.1054 1.53791 11.8227C0.871432 11.4894 0.760353 10.8936 1.18447 10.0353C1.47732 9.44959 2.22458 8.71242 2.84057 8.39938C3.7595 7.92477 5.01167 7.7632 5.9407 7.99545ZM17.079 7.99545C17.7151 8.13683 18.4927 8.53066 18.9875 8.95478C19.7651 9.61116 20.2094 10.6513 20.0074 11.2874C19.8257 11.8529 18.6139 12.2973 16.7558 12.479L16.0792 12.5497L16.1802 12.2872C16.2307 12.1357 16.2812 11.7015 16.2812 11.3379C16.2812 10.7724 16.2206 10.5301 15.948 9.95449C15.7561 9.56067 15.3724 8.98507 15.0795 8.67203L14.5544 8.09644L14.9886 8.00555C15.5743 7.87428 16.5337 7.86418 17.079 7.99545Z" fill="#D9D9D9"/>
</svg>
