<svg width="20" height="21" viewBox="0 0 20 21" fill="none" xmlns="http://www.w3.org/2000/svg">
<path d="M14 7.00032V3.50097C14 2.66923 14 2.25336 13.8248 1.99779C13.6717 1.7745 13.4346 1.62281 13.1678 1.5774C12.8623 1.52542 12.4847 1.69969 11.7295 2.04824L2.85901 6.14231C2.18551 6.45316 1.84875 6.60858 1.60211 6.84963C1.38406 7.06273 1.21762 7.32287 1.1155 7.61015C1 7.9351 1 8.306 1 9.04778V14.0003M14.5 13.5003H14.51M1 10.2003L1 16.8003C1 17.9204 1 18.4805 1.21799 18.9083C1.40973 19.2846 1.71569 19.5906 2.09202 19.7823C2.51984 20.0003 3.07989 20.0003 4.2 20.0003H15.8C16.9201 20.0003 17.4802 20.0003 17.908 19.7823C18.2843 19.5906 18.5903 19.2846 18.782 18.9083C19 18.4805 19 17.9204 19 16.8003V10.2003C19 9.08021 19 8.52016 18.782 8.09234C18.5903 7.71601 18.2843 7.41005 17.908 7.2183C17.4802 7.00032 16.9201 7.00032 15.8 7.00032L4.2 7.00032C3.0799 7.00032 2.51984 7.00032 2.09202 7.2183C1.7157 7.41005 1.40973 7.71601 1.21799 8.09234C1 8.52016 1 9.08021 1 10.2003ZM15 13.5003C15 13.7765 14.7761 14.0003 14.5 14.0003C14.2239 14.0003 14 13.7765 14 13.5003C14 13.2242 14.2239 13.0003 14.5 13.0003C14.7761 13.0003 15 13.2242 15 13.5003Z" stroke="white" stroke-width="1.5" stroke-linecap="round" stroke-linejoin="round"/>
</svg>
