<svg width="600" height="600" viewBox="0 0 600 600" fill="none" xmlns="http://www.w3.org/2000/svg">
<g clip-path="url(#clip0_3602_885)">
<g clip-path="url(#clip1_3602_885)">
<path d="M672.635 552.158L-95.7344 451L-102 498.589L666.37 599.747L672.635 552.158Z" fill="#C03466"/>
<path d="M-84.8561 486.444C-86.3893 486.242 -87.6657 485.747 -88.6854 484.958C-89.6977 484.163 -90.4236 483.15 -90.8631 481.92C-91.2961 480.691 -91.4138 479.326 -91.2163 477.826C-91.0163 476.307 -90.5453 475.013 -89.8032 473.945C-89.0538 472.871 -88.0877 472.085 -86.905 471.585C-85.7215 471.08 -84.3729 470.927 -82.8591 471.126C-81.5533 471.298 -80.4409 471.683 -79.5217 472.282C-78.6027 472.881 -77.9132 473.644 -77.4533 474.569C-76.9936 475.494 -76.8098 476.533 -76.9022 477.687L-80.8196 477.171C-80.8326 476.416 -81.0466 475.782 -81.4616 475.269C-81.8691 474.75 -82.4529 474.441 -83.2131 474.341C-83.8562 474.256 -84.4411 474.356 -84.9676 474.64C-85.4867 474.919 -85.9228 475.369 -86.2756 475.991C-86.6284 476.613 -86.8663 477.39 -86.9892 478.324C-87.1138 479.27 -87.0898 480.092 -86.9172 480.789C-86.7381 481.487 -86.4311 482.042 -85.9961 482.453C-85.5611 482.864 -85.0221 483.112 -84.3789 483.196C-83.9047 483.259 -83.4664 483.218 -83.0642 483.075C-82.6554 482.932 -82.3035 482.693 -82.0083 482.359C-81.7057 482.019 -81.4812 481.593 -81.3346 481.082L-77.4172 481.598C-77.6312 482.722 -78.0745 483.679 -78.7468 484.468C-79.4117 485.252 -80.2632 485.821 -81.3012 486.175C-82.3393 486.53 -83.5243 486.62 -84.8561 486.444ZM-68.2013 488.637C-69.715 488.438 -70.9821 487.947 -72.0026 487.164C-73.0158 486.375 -73.7458 485.369 -74.1926 484.144C-74.6386 482.913 -74.7616 481.538 -74.5616 480.019C-74.3598 478.486 -73.8847 477.187 -73.1361 476.119C-72.3868 475.046 -71.4211 474.262 -70.2392 473.77C-69.05 473.271 -67.6986 473.122 -66.1849 473.321C-64.6712 473.52 -63.4077 474.014 -62.3946 474.802C-61.374 475.585 -60.6408 476.592 -60.1948 477.823C-59.748 479.048 -59.6255 480.426 -59.8272 481.958C-60.0272 483.478 -60.5019 484.774 -61.2513 485.848C-61.9999 486.915 -62.9687 487.698 -64.1579 488.197C-65.3398 488.689 -66.6875 488.836 -68.2013 488.637ZM-67.7622 485.453C-67.0736 485.543 -66.4732 485.426 -65.9611 485.1C-65.4481 484.768 -65.0302 484.28 -64.7074 483.635C-64.378 482.99 -64.1565 482.237 -64.0429 481.374C-63.9293 480.511 -63.9483 479.726 -64.0997 479.019C-64.2445 478.312 -64.5217 477.732 -64.9313 477.278C-65.3409 476.825 -65.8899 476.553 -66.5786 476.462C-67.2737 476.371 -67.8843 476.49 -68.4102 476.82C-68.9297 477.151 -69.3541 477.639 -69.6835 478.283C-70.0064 478.929 -70.2246 479.683 -70.3381 480.545C-70.4517 481.408 -70.4361 482.193 -70.2912 482.899C-70.1398 483.607 -69.8561 484.188 -69.44 484.642C-69.0167 485.091 -68.4573 485.361 -67.7622 485.453ZM-57.5477 489.745L-55.5949 474.912L-51.6385 475.433L-51.983 478.05L-51.8077 478.073C-51.3814 477.245 -50.7714 476.627 -49.9777 476.221C-49.1839 475.815 -48.2803 475.678 -47.2668 475.812C-46.2403 475.947 -45.4 476.316 -44.7459 476.92C-44.0909 477.517 -43.7 478.262 -43.5732 479.157L-43.4173 479.177C-43 478.368 -42.3584 477.761 -41.4923 477.358C-40.6189 476.949 -39.6333 476.817 -38.5354 476.961C-37.1386 477.145 -36.0629 477.735 -35.3086 478.732C-34.5468 479.723 -34.2718 481.023 -34.4837 482.633L-35.797 492.608L-39.9386 492.063L-38.7321 482.899C-38.6236 482.075 -38.7631 481.427 -39.1507 480.957C-39.5382 480.487 -40.0633 480.208 -40.726 480.121C-41.4796 480.022 -42.0989 480.183 -42.5839 480.603C-43.068 481.018 -43.3609 481.611 -43.4626 482.384L-44.6552 491.442L-48.6798 490.912L-47.4619 481.661C-47.3661 480.933 -47.501 480.326 -47.8665 479.839C-48.2255 479.353 -48.7461 479.065 -49.4282 478.975C-49.8895 478.915 -50.3205 478.976 -50.7213 479.159C-51.1148 479.336 -51.4458 479.617 -51.7145 480.001C-51.9822 480.378 -52.1522 480.84 -52.2242 481.388L-53.3964 490.291L-57.5477 489.745ZM-31.969 493.112L-30.0162 478.279L-25.8649 478.826L-27.8177 493.659L-31.969 493.112ZM-27.6791 476.642C-28.2962 476.56 -28.799 476.288 -29.1874 475.824C-29.5685 475.355 -29.7213 474.834 -29.6458 474.261C-29.5712 473.694 -29.2896 473.237 -28.8009 472.888C-28.3049 472.535 -27.7483 472.398 -27.1311 472.479C-26.5139 472.561 -26.0149 472.836 -25.6338 473.305C-25.2455 473.769 -25.0885 474.284 -25.1631 474.851C-25.2386 475.424 -25.5243 475.887 -26.0203 476.241C-26.509 476.589 -27.0619 476.723 -27.6791 476.642ZM-18.6631 486.14L-19.7921 494.715L-23.9434 494.169L-21.9906 479.336L-18.0341 479.857L-18.3786 482.474L-18.2033 482.497C-17.7583 481.678 -17.113 481.068 -16.2673 480.669C-15.4208 480.263 -14.4421 480.133 -13.3311 480.279C-12.2913 480.416 -11.4154 480.761 -10.7012 481.313C-9.9879 481.866 -9.47152 482.589 -9.15293 483.482C-8.83348 484.369 -8.74962 485.389 -8.90134 486.541L-10.1447 495.985L-14.2962 495.439L-13.1494 486.728C-13.023 485.821 -13.1637 485.083 -13.5711 484.511C-13.9775 483.934 -14.5965 483.591 -15.4281 483.481C-15.9868 483.407 -16.4962 483.462 -16.9563 483.643C-17.41 483.826 -17.7871 484.13 -18.0876 484.555C-18.3808 484.975 -18.5727 485.504 -18.6631 486.14ZM-0.35349 503.248C-1.69813 503.071 -2.82739 502.735 -3.7404 502.242C-4.64824 501.755 -5.3432 501.163 -5.82611 500.464C-6.30903 499.765 -6.58368 499.015 -6.65007 498.214L-2.74341 498.208C-2.66492 498.519 -2.51698 498.82 -2.29705 499.111C-2.07797 499.402 -1.76979 499.652 -1.37507 499.861C-0.973485 500.078 -0.471255 500.226 0.133315 500.305C1.03633 500.424 1.80864 500.303 2.45113 499.943C3.09963 499.589 3.48998 498.904 3.62389 497.887L3.98114 495.173L3.8062 495.15C3.57016 495.538 3.24532 495.892 2.8334 496.211C2.42149 496.53 1.91385 496.767 1.3122 496.924C0.709711 497.08 0.0126886 497.107 -0.780546 497.002C-1.90395 496.854 -2.89311 496.462 -3.74802 495.825C-4.59525 495.183 -5.22207 494.292 -5.62677 493.152C-6.02462 492.005 -6.11507 490.612 -5.89893 488.97C-5.67772 487.29 -5.21681 485.922 -4.51623 484.869C-3.81563 483.815 -2.97054 483.068 -1.98092 482.628C-0.984452 482.19 0.0626164 482.043 1.16028 482.187C1.99812 482.297 2.68095 482.531 3.20964 482.889C3.73833 483.24 4.14706 483.648 4.43584 484.112C4.73321 484.57 4.94907 485.011 5.08519 485.435L5.24041 485.455L5.56841 482.964L9.69069 483.507L7.71881 498.485C7.55269 499.746 7.10239 500.761 6.36621 501.529C5.63089 502.297 4.68342 502.82 3.52295 503.1C2.36763 503.386 1.07606 503.436 -0.35349 503.248ZM0.941785 494.085C1.61153 494.173 2.19826 494.084 2.70286 493.816C3.2143 493.543 3.63463 493.113 3.96296 492.528C4.29816 491.937 4.5234 491.207 4.63782 490.337C4.75224 489.468 4.72792 488.699 4.56486 488.029C4.40264 487.353 4.11158 486.807 3.68996 486.391C3.26922 485.975 2.72397 485.723 2.05421 485.635C1.37246 485.546 0.773742 485.653 0.257206 485.959C-0.257626 486.258 -0.677903 486.713 -1.00363 487.325C-1.32851 487.937 -1.54646 488.665 -1.65749 489.509C-1.77022 490.365 -1.74763 491.121 -1.58973 491.777C-1.42412 492.428 -1.1331 492.954 -0.71665 493.356C-0.292504 493.752 0.26003 493.995 0.941785 494.085ZM32.341 490.792L28.5098 490.523C28.487 490.193 28.3854 489.885 28.2049 489.599C28.0253 489.307 27.7707 489.06 27.4394 488.859C27.1167 488.653 26.7148 488.518 26.2337 488.455C25.5906 488.37 25.0308 488.434 24.5535 488.647C24.0763 488.852 23.8093 489.177 23.7508 489.622C23.7042 489.976 23.8071 490.294 24.0614 490.576C24.3147 490.858 24.7794 491.119 25.4554 491.359L28.0932 492.256C29.5095 492.744 30.5316 493.363 31.1594 494.114C31.7882 494.865 32.0314 495.774 31.8907 496.843C31.7627 497.815 31.3614 498.63 30.6868 499.288C30.0182 499.947 29.1572 500.416 28.1022 500.697C27.0549 500.971 25.8816 501.023 24.5824 500.852C22.6006 500.591 21.0757 499.974 20.0076 499.002C18.9464 498.024 18.4087 496.814 18.3936 495.371L22.5044 495.696C22.5491 496.311 22.7882 496.807 23.2209 497.185C23.6544 497.557 24.2413 497.791 24.9822 497.889C25.7094 497.984 26.3125 497.923 26.7906 497.704C27.2763 497.48 27.5515 497.146 27.6168 496.703C27.6591 496.329 27.5407 496.002 27.2599 495.723C26.98 495.437 26.5244 495.187 25.8913 494.973L23.3663 494.119C21.9431 493.637 20.921 492.992 20.3007 492.183C19.6865 491.375 19.4522 490.418 19.598 489.311C19.7235 488.358 20.0914 487.571 20.7017 486.951C21.319 486.331 22.1264 485.897 23.124 485.649C24.1276 485.401 25.2696 485.361 26.5499 485.53C28.44 485.779 29.8757 486.37 30.8563 487.305C31.8437 488.241 32.338 489.403 32.341 490.792ZM41.1736 503.036C39.66 502.837 38.3925 502.346 37.3718 501.563C36.3589 500.775 35.6286 499.768 35.1818 498.544C34.7366 497.313 34.6132 495.938 34.8132 494.418C35.0149 492.886 35.4905 491.586 36.2383 490.519C36.9877 489.445 37.9536 488.662 39.1352 488.169C40.3245 487.671 41.6764 487.521 43.1899 487.72C44.7035 487.92 45.9672 488.414 46.9801 489.202C48.0008 489.985 48.7336 490.992 49.1796 492.223C49.6265 493.447 49.7495 494.826 49.5477 496.358C49.3477 497.877 48.8726 499.174 48.1231 500.248C47.3745 501.315 46.406 502.098 45.2168 502.596C44.0352 503.089 42.6872 503.236 41.1736 503.036ZM41.6128 499.852C42.3014 499.943 42.9014 499.825 43.4137 499.5C43.9267 499.168 44.3444 498.679 44.6675 498.034C44.9966 497.39 45.218 496.636 45.3315 495.773C45.4451 494.911 45.4263 494.126 45.2752 493.418C45.1301 492.711 44.8531 492.131 44.4435 491.678C44.0338 491.224 43.4851 490.952 42.7965 490.862C42.101 490.77 41.4903 490.889 40.9644 491.22C40.4453 491.551 40.0208 492.039 39.6917 492.683C39.3686 493.328 39.1498 494.082 39.0362 494.945C38.9226 495.807 38.9388 496.592 39.084 497.299C39.2351 498.007 39.5189 498.588 39.9346 499.042C40.358 499.49 40.9174 499.761 41.6128 499.852ZM58.5519 505.324C57.0383 505.125 55.7708 504.634 54.7502 503.851C53.7373 503.063 53.007 502.056 52.5601 500.832C52.115 499.601 51.9916 498.225 52.1916 496.706C52.3933 495.174 52.8689 493.874 53.6166 492.807C54.366 491.733 55.332 490.95 56.5136 490.457C57.7029 489.959 59.0547 489.809 60.5683 490.008C62.0819 490.208 63.3456 490.702 64.3585 491.49C65.3791 492.273 66.112 493.279 66.558 494.51C67.0048 495.735 67.1278 497.114 66.9261 498.646C66.7261 500.165 66.2509 501.462 65.5015 502.535C64.7529 503.603 63.7844 504.386 62.5951 504.884C61.4135 505.377 60.0655 505.524 58.5519 505.324ZM58.9912 502.14C59.6798 502.231 60.2798 502.113 60.792 501.788C61.3051 501.456 61.7228 500.967 62.0459 500.322C62.375 499.678 62.5963 498.924 62.7099 498.061C62.8235 497.199 62.8047 496.414 62.6536 495.706C62.5085 494.999 62.2315 494.419 61.8218 493.966C61.4122 493.512 60.8635 493.24 60.1748 493.149C59.4794 493.058 58.8687 493.177 58.3427 493.508C57.8237 493.839 57.3991 494.326 57.07 494.971C56.7469 495.616 56.5282 496.37 56.4146 497.233C56.301 498.095 56.3172 498.88 56.4623 499.587C56.6134 500.294 56.8973 500.875 57.3129 501.33C57.7363 501.778 58.2957 502.048 58.9912 502.14ZM74.4853 498.403L73.3563 506.979L69.2058 506.432L71.1586 491.599L75.1145 492.12L74.7699 494.737L74.9457 494.76C75.3903 493.941 76.0358 493.332 76.8815 492.932C77.728 492.526 78.7065 492.396 79.8179 492.543C80.8572 492.679 81.734 493.024 82.4473 493.576C83.1615 494.129 83.677 494.852 83.9956 495.745C84.3151 496.632 84.3989 497.652 84.2472 498.804L83.0038 508.249L78.8532 507.702L80 498.992C80.1255 498.085 79.9846 497.346 79.5774 496.775C79.171 496.197 78.5523 495.854 77.7204 495.744C77.1622 495.671 76.6525 495.725 76.1924 495.907C75.7391 496.089 75.3615 496.393 75.0612 496.819C74.7677 497.239 74.5761 497.767 74.4853 498.403Z" fill="white"/>
<path d="M107.237 511.733C105.703 511.531 104.427 511.036 103.408 510.247C102.395 509.452 101.669 508.439 101.23 507.209C100.797 505.98 100.679 504.615 100.876 503.115C101.076 501.596 101.548 500.302 102.289 499.234C103.039 498.16 104.005 497.374 105.188 496.874C106.372 496.369 107.72 496.216 109.233 496.415C110.539 496.587 111.653 496.972 112.571 497.571C113.49 498.171 114.18 498.933 114.639 499.858C115.099 500.783 115.283 501.822 115.191 502.976L111.273 502.46C111.261 501.705 111.047 501.071 110.632 500.558C110.224 500.039 109.64 499.73 108.88 499.63C108.237 499.545 107.652 499.645 107.125 499.929C106.606 500.208 106.17 500.658 105.818 501.28C105.465 501.902 105.227 502.679 105.104 503.613C104.979 504.559 105.003 505.381 105.176 506.078C105.355 506.776 105.661 507.331 106.097 507.742C106.532 508.153 107.071 508.401 107.714 508.485C108.188 508.548 108.626 508.507 109.029 508.364C109.438 508.221 109.789 507.982 110.085 507.648C110.387 507.308 110.612 506.882 110.758 506.371L114.676 506.887C114.462 508.011 114.018 508.968 113.346 509.757C112.681 510.541 111.83 511.11 110.792 511.464C109.754 511.819 108.569 511.909 107.237 511.733ZM123.891 513.926C122.378 513.727 121.111 513.236 120.09 512.453C119.078 511.665 118.347 510.658 117.9 509.433C117.454 508.202 117.332 506.827 117.532 505.308C117.734 503.776 118.208 502.476 118.957 501.408C119.706 500.335 120.672 499.552 121.854 499.059C123.043 498.56 124.394 498.411 125.908 498.61C127.422 498.809 128.685 499.303 129.699 500.092C130.719 500.874 131.452 501.881 131.898 503.112C132.345 504.337 132.467 505.715 132.266 507.248C132.065 508.767 131.591 510.064 130.842 511.137C130.093 512.204 129.124 512.987 127.935 513.486C126.753 513.978 125.406 514.125 123.891 513.926ZM124.331 510.742C125.019 510.832 125.62 510.715 126.132 510.389C126.645 510.057 127.063 509.569 127.385 508.924C127.715 508.279 127.937 507.526 128.05 506.663C128.164 505.8 128.145 505.015 127.993 504.308C127.849 503.601 127.571 503.021 127.162 502.567C126.752 502.114 126.203 501.842 125.514 501.751C124.82 501.66 124.209 501.779 123.683 502.109C123.163 502.44 122.739 502.928 122.409 503.572C122.086 504.218 121.868 504.972 121.755 505.834C121.641 506.697 121.657 507.482 121.802 508.188C121.953 508.896 122.237 509.477 122.653 509.931C123.077 510.38 123.636 510.65 124.331 510.742ZM134.545 515.034L136.498 500.201L140.455 500.722L140.11 503.339L140.285 503.362C140.712 502.534 141.322 501.917 142.115 501.51C142.909 501.104 143.813 500.967 144.826 501.101C145.853 501.236 146.693 501.605 147.347 502.209C148.002 502.806 148.393 503.551 148.52 504.446L148.675 504.466C149.093 503.657 149.734 503.05 150.601 502.647C151.474 502.238 152.459 502.106 153.558 502.25C154.954 502.434 156.03 503.024 156.785 504.021C157.546 505.012 157.821 506.312 157.61 507.922L156.296 517.897L152.154 517.352L153.361 508.188C153.469 507.364 153.33 506.716 152.942 506.246C152.555 505.776 152.029 505.497 151.367 505.41C150.614 505.311 149.994 505.472 149.509 505.893C149.025 506.307 148.732 506.9 148.63 507.673L147.438 516.731L143.413 516.201L144.631 506.95C144.727 506.222 144.592 505.615 144.226 505.128C143.867 504.642 143.347 504.354 142.665 504.264C142.204 504.204 141.772 504.265 141.371 504.448C140.978 504.625 140.647 504.906 140.379 505.29C140.111 505.667 139.941 506.129 139.869 506.677L138.697 515.58L134.545 515.034ZM160.124 518.401L162.077 503.568L166.228 504.115L164.275 518.948L160.124 518.401ZM164.414 501.931C163.797 501.85 163.294 501.577 162.906 501.113C162.525 500.644 162.372 500.123 162.447 499.55C162.522 498.983 162.804 498.526 163.292 498.178C163.788 497.824 164.345 497.687 164.962 497.769C165.579 497.85 166.078 498.125 166.459 498.594C166.847 499.058 167.004 499.573 166.93 500.14C166.854 500.713 166.568 501.176 166.072 501.53C165.584 501.878 165.031 502.012 164.414 501.931ZM173.43 511.429L172.301 520.004L168.149 519.458L170.102 504.625L174.059 505.146L173.714 507.763L173.889 507.786C174.335 506.967 174.98 506.358 175.826 505.958C176.672 505.552 177.651 505.422 178.761 505.568C179.802 505.705 180.678 506.05 181.392 506.602C182.105 507.155 182.621 507.878 182.94 508.771C183.26 509.658 183.343 510.678 183.192 511.83L181.948 521.275L177.797 520.728L178.944 512.017C179.07 511.111 178.929 510.372 178.522 509.801C178.115 509.223 177.497 508.88 176.665 508.77C176.107 508.697 175.597 508.751 175.137 508.933C174.683 509.115 174.306 509.419 174.006 509.845C173.712 510.264 173.521 510.793 173.43 511.429ZM191.74 528.537C190.395 528.36 189.266 528.024 188.353 527.531C187.445 527.045 186.75 526.452 186.267 525.753C185.784 525.054 185.509 524.304 185.443 523.503L189.35 523.497C189.428 523.808 189.576 524.109 189.796 524.4C190.015 524.691 190.323 524.941 190.718 525.15C191.12 525.367 191.622 525.515 192.226 525.595C193.129 525.713 193.902 525.592 194.544 525.232C195.193 524.878 195.583 524.193 195.717 523.176L196.074 520.462L195.899 520.439C195.663 520.827 195.338 521.181 194.926 521.5C194.514 521.819 194.007 522.057 193.405 522.213C192.803 522.369 192.106 522.396 191.312 522.291C190.189 522.143 189.2 521.751 188.345 521.115C187.498 520.473 186.871 519.581 186.466 518.441C186.068 517.294 185.978 515.901 186.194 514.259C186.415 512.579 186.876 511.211 187.577 510.158C188.277 509.104 189.122 508.357 190.112 507.917C191.109 507.479 192.156 507.332 193.253 507.476C194.091 507.587 194.774 507.82 195.303 508.178C195.831 508.53 196.24 508.937 196.529 509.401C196.826 509.859 197.042 510.3 197.178 510.724L197.333 510.745L197.661 508.253L201.784 508.796L199.812 523.774C199.646 525.036 199.195 526.05 198.459 526.818C197.724 527.586 196.776 528.109 195.616 528.389C194.461 528.676 193.169 528.725 191.74 528.537ZM193.035 519.374C193.705 519.462 194.291 519.373 194.796 519.105C195.307 518.832 195.728 518.402 196.056 517.817C196.391 517.226 196.616 516.496 196.731 515.626C196.845 514.757 196.821 513.988 196.658 513.318C196.496 512.642 196.205 512.096 195.783 511.68C195.362 511.264 194.817 511.013 194.147 510.924C193.465 510.835 192.867 510.942 192.35 511.248C191.835 511.547 191.415 512.002 191.089 512.614C190.764 513.227 190.547 513.954 190.436 514.798C190.323 515.654 190.345 516.41 190.503 517.066C190.669 517.717 190.96 518.243 191.376 518.645C191.8 519.041 192.353 519.284 193.035 519.374ZM224.434 516.081L220.603 515.812C220.58 515.482 220.478 515.174 220.298 514.888C220.118 514.596 219.864 514.349 219.532 514.149C219.21 513.942 218.808 513.808 218.327 513.744C217.684 513.659 217.124 513.723 216.647 513.936C216.169 514.141 215.902 514.466 215.844 514.911C215.797 515.265 215.9 515.583 216.154 515.865C216.408 516.147 216.872 516.408 217.548 516.648L220.186 517.545C221.602 518.033 222.625 518.652 223.252 519.403C223.881 520.154 224.124 521.064 223.984 522.132C223.856 523.104 223.454 523.919 222.78 524.577C222.111 525.236 221.25 525.705 220.195 525.986C219.148 526.26 217.975 526.312 216.675 526.141C214.694 525.88 213.169 525.264 212.101 524.291C211.039 523.313 210.502 522.103 210.487 520.66L214.597 520.985C214.642 521.6 214.881 522.096 215.314 522.474C215.747 522.846 216.334 523.08 217.075 523.178C217.802 523.274 218.405 523.212 218.884 522.993C219.369 522.769 219.644 522.435 219.71 521.992C219.752 521.618 219.634 521.291 219.353 521.012C219.073 520.726 218.617 520.476 217.984 520.262L215.459 519.409C214.036 518.926 213.014 518.281 212.394 517.472C211.779 516.665 211.545 515.707 211.691 514.6C211.816 513.647 212.184 512.86 212.795 512.24C213.412 511.62 214.219 511.186 215.217 510.938C216.221 510.69 217.363 510.65 218.643 510.819C220.533 511.068 221.969 511.66 222.949 512.594C223.937 513.53 224.431 514.692 224.434 516.081ZM233.267 528.325C231.753 528.126 230.485 527.635 229.465 526.852C228.452 526.064 227.722 525.057 227.275 523.833C226.83 522.602 226.706 521.227 226.906 519.707C227.108 518.175 227.584 516.875 228.331 515.808C229.081 514.734 230.047 513.951 231.228 513.458C232.417 512.96 233.769 512.81 235.283 513.01C236.797 513.209 238.06 513.703 239.073 514.491C240.094 515.274 240.827 516.281 241.273 517.512C241.719 518.736 241.842 520.115 241.641 521.647C241.441 523.166 240.966 524.463 240.216 525.537C239.468 526.604 238.499 527.387 237.31 527.885C236.128 528.378 234.78 528.525 233.267 528.325ZM233.706 525.141C234.394 525.232 234.994 525.114 235.507 524.789C236.02 524.457 236.437 523.968 236.761 523.323C237.09 522.679 237.311 521.925 237.425 521.063C237.538 520.2 237.519 519.415 237.368 518.707C237.223 518 236.946 517.42 236.536 516.967C236.127 516.513 235.578 516.241 234.889 516.151C234.194 516.059 233.583 516.178 233.057 516.509C232.538 516.84 232.114 517.328 231.785 517.972C231.462 518.617 231.243 519.371 231.129 520.234C231.016 521.096 231.032 521.881 231.177 522.588C231.328 523.296 231.612 523.877 232.028 524.331C232.451 524.78 233.01 525.05 233.706 525.141ZM250.645 530.613C249.131 530.414 247.864 529.923 246.843 529.14C245.83 528.352 245.1 527.345 244.653 526.121C244.208 524.89 244.085 523.515 244.285 521.995C244.486 520.463 244.962 519.163 245.71 518.096C246.459 517.022 247.425 516.239 248.607 515.746C249.796 515.248 251.148 515.098 252.661 515.297C254.175 515.497 255.439 515.991 256.451 516.779C257.472 517.562 258.205 518.569 258.651 519.8C259.098 521.024 259.221 522.403 259.019 523.935C258.819 525.454 258.344 526.751 257.594 527.824C256.846 528.892 255.877 529.675 254.688 530.173C253.507 530.666 252.159 530.813 250.645 530.613ZM251.084 527.429C251.773 527.52 252.373 527.402 252.885 527.077C253.398 526.745 253.816 526.256 254.139 525.611C254.468 524.967 254.689 524.213 254.803 523.35C254.916 522.488 254.898 521.703 254.747 520.995C254.601 520.288 254.324 519.708 253.915 519.255C253.505 518.801 252.956 518.529 252.268 518.439C251.572 518.347 250.962 518.466 250.436 518.797C249.917 519.128 249.492 519.616 249.163 520.26C248.84 520.905 248.621 521.659 248.508 522.522C248.394 523.384 248.41 524.169 248.555 524.876C248.706 525.584 248.99 526.165 249.406 526.619C249.829 527.067 250.389 527.338 251.084 527.429ZM266.578 523.692L265.449 532.268L261.299 531.721L263.252 516.888L267.207 517.409L266.863 520.026L267.039 520.049C267.483 519.23 268.129 518.621 268.974 518.221C269.821 517.815 270.799 517.685 271.911 517.832C272.95 517.969 273.827 518.313 274.54 518.866C275.255 519.418 275.77 520.141 276.089 521.034C276.408 521.921 276.492 522.941 276.34 524.093L275.097 533.538L270.946 532.991L272.093 524.281C272.219 523.374 272.078 522.635 271.67 522.064C271.264 521.486 270.645 521.143 269.813 521.033C269.255 520.96 268.746 521.014 268.285 521.196C267.832 521.378 267.454 521.682 267.154 522.108C266.861 522.528 266.669 523.056 266.578 523.692Z" fill="white"/>
<path d="M299.329 537.022C297.795 536.821 296.519 536.325 295.5 535.536C294.487 534.741 293.761 533.729 293.322 532.498C292.889 531.269 292.771 529.904 292.968 528.404C293.168 526.885 293.64 525.591 294.381 524.523C295.131 523.449 296.097 522.663 297.28 522.164C298.464 521.658 299.812 521.505 301.325 521.704C302.631 521.876 303.744 522.261 304.663 522.86C305.582 523.46 306.272 524.222 306.731 525.147C307.191 526.072 307.375 527.111 307.283 528.265L303.365 527.749C303.352 526.994 303.138 526.36 302.724 525.847C302.315 525.328 301.732 525.019 300.972 524.919C300.329 524.834 299.744 524.934 299.217 525.218C298.698 525.497 298.262 525.947 297.91 526.569C297.556 527.191 297.319 527.968 297.196 528.902C297.071 529.848 297.095 530.67 297.267 531.367C297.447 532.065 297.753 532.62 298.189 533.031C298.624 533.442 299.163 533.69 299.806 533.774C300.28 533.837 300.718 533.796 301.121 533.653C301.53 533.51 301.881 533.272 302.177 532.937C302.479 532.597 302.704 532.171 302.85 531.66L306.768 532.176C306.554 533.3 306.11 534.257 305.438 535.046C304.773 535.83 303.922 536.399 302.883 536.754C301.846 537.108 300.66 537.198 299.329 537.022ZM315.983 539.215C314.47 539.016 313.203 538.525 312.182 537.742C311.169 536.954 310.439 535.947 309.992 534.722C309.546 533.491 309.424 532.116 309.624 530.597C309.825 529.065 310.3 527.765 311.049 526.698C311.798 525.624 312.764 524.841 313.946 524.348C315.135 523.849 316.486 523.7 318 523.899C319.514 524.098 320.777 524.592 321.791 525.381C322.81 526.163 323.544 527.17 323.99 528.401C324.437 529.626 324.559 531.004 324.357 532.537C324.157 534.056 323.683 535.353 322.934 536.426C322.185 537.494 321.216 538.276 320.027 538.775C318.845 539.268 317.498 539.414 315.983 539.215ZM316.422 536.031C317.111 536.121 317.712 536.004 318.224 535.679C318.736 535.346 319.155 534.858 319.477 534.213C319.807 533.568 320.028 532.815 320.142 531.952C320.256 531.09 320.237 530.304 320.085 529.597C319.941 528.89 319.663 528.31 319.254 527.856C318.844 527.403 318.295 527.131 317.606 527.04C316.911 526.949 316.301 527.068 315.775 527.398C315.255 527.729 314.83 528.217 314.501 528.862C314.178 529.507 313.96 530.261 313.847 531.123C313.733 531.986 313.748 532.771 313.894 533.478C314.045 534.185 314.329 534.766 314.745 535.221C315.168 535.669 315.728 535.939 316.422 536.031ZM326.637 540.323L328.59 525.49L332.547 526.011L332.202 528.628L332.377 528.651C332.804 527.823 333.413 527.206 334.207 526.799C335.001 526.393 335.904 526.256 336.918 526.39C337.945 526.525 338.785 526.894 339.439 527.498C340.094 528.095 340.485 528.841 340.612 529.735L340.767 529.755C341.184 528.946 341.826 528.339 342.692 527.936C343.566 527.527 344.551 527.395 345.65 527.539C347.046 527.723 348.121 528.313 348.877 529.31C349.638 530.301 349.913 531.601 349.701 533.211L348.388 543.186L344.246 542.641L345.453 533.477C345.561 532.653 345.422 532.006 345.034 531.535C344.646 531.065 344.121 530.786 343.459 530.699C342.705 530.6 342.086 530.761 341.601 531.182C341.116 531.596 340.824 532.189 340.722 532.962L339.529 542.02L335.505 541.49L336.723 532.239C336.819 531.512 336.684 530.904 336.318 530.417C335.959 529.931 335.438 529.643 334.757 529.554C334.295 529.493 333.864 529.554 333.463 529.737C333.07 529.914 332.739 530.195 332.47 530.579C332.203 530.956 332.033 531.419 331.961 531.966L330.788 540.869L326.637 540.323ZM352.216 543.69L354.169 528.857L358.32 529.404L356.367 544.237L352.216 543.69ZM356.505 527.22C355.889 527.139 355.386 526.866 354.997 526.402C354.617 525.933 354.464 525.412 354.539 524.839C354.614 524.272 354.896 523.815 355.384 523.467C355.88 523.113 356.437 522.976 357.053 523.058C357.671 523.139 358.17 523.414 358.551 523.884C358.939 524.347 359.096 524.862 359.022 525.429C358.946 526.002 358.66 526.465 358.164 526.819C357.676 527.168 357.123 527.301 356.505 527.22ZM365.522 536.718L364.393 545.293L360.241 544.747L362.194 529.914L366.151 530.435L365.806 533.052L365.981 533.075C366.427 532.256 367.072 531.647 367.918 531.247C368.764 530.841 369.743 530.711 370.853 530.857C371.893 530.994 372.769 531.339 373.484 531.891C374.197 532.444 374.713 533.167 375.032 534.06C375.351 534.947 375.435 535.967 375.283 537.119L374.04 546.564L369.889 546.017L371.035 537.307C371.162 536.4 371.021 535.661 370.614 535.09C370.207 534.512 369.589 534.169 368.757 534.059C368.198 533.986 367.689 534.04 367.229 534.222C366.774 534.404 366.398 534.708 366.097 535.134C365.804 535.553 365.612 536.082 365.522 536.718ZM383.831 553.826C382.487 553.649 381.357 553.313 380.444 552.82C379.537 552.334 378.842 551.741 378.359 551.042C377.876 550.343 377.601 549.593 377.535 548.792L381.441 548.786C381.52 549.097 381.668 549.398 381.888 549.689C382.107 549.98 382.415 550.23 382.81 550.439C383.211 550.656 383.714 550.804 384.318 550.884C385.221 551.003 385.993 550.882 386.636 550.521C387.284 550.167 387.675 549.482 387.809 548.465L388.166 545.751L387.991 545.728C387.755 546.116 387.43 546.47 387.018 546.789C386.606 547.108 386.099 547.346 385.497 547.502C384.895 547.659 384.197 547.685 383.404 547.58C382.281 547.432 381.292 547.04 380.437 546.404C379.59 545.762 378.963 544.87 378.558 543.73C378.16 542.584 378.07 541.19 378.286 539.548C378.507 537.868 378.968 536.501 379.669 535.447C380.369 534.393 381.214 533.646 382.204 533.206C383.2 532.768 384.247 532.621 385.345 532.765C386.183 532.876 386.866 533.11 387.394 533.467C387.923 533.819 388.332 534.226 388.621 534.69C388.918 535.148 389.134 535.589 389.27 536.013L389.425 536.034L389.753 533.542L393.875 534.085L391.904 549.063C391.737 550.325 391.287 551.339 390.551 552.107C389.816 552.875 388.868 553.398 387.708 553.678C386.552 553.965 385.261 554.014 383.831 553.826ZM385.127 544.663C385.796 544.751 386.383 544.662 386.888 544.394C387.399 544.121 387.819 543.691 388.148 543.106C388.483 542.515 388.708 541.785 388.823 540.916C388.937 540.046 388.913 539.277 388.75 538.607C388.587 537.931 388.296 537.385 387.875 536.969C387.454 536.554 386.909 536.302 386.239 536.213C385.557 536.124 384.959 536.232 384.442 536.537C383.927 536.836 383.507 537.291 383.181 537.903C382.856 538.516 382.638 539.243 382.527 540.087C382.415 540.943 382.437 541.699 382.595 542.355C382.761 543.006 383.052 543.532 383.468 543.934C383.892 544.33 384.445 544.573 385.127 544.663ZM416.526 541.37L412.695 541.101C412.672 540.771 412.57 540.463 412.39 540.177C412.21 539.885 411.955 539.638 411.624 539.438C411.302 539.231 410.9 539.097 410.419 539.033C409.775 538.949 409.216 539.012 408.738 539.225C408.261 539.43 407.994 539.755 407.936 540.2C407.889 540.554 407.992 540.872 408.246 541.154C408.5 541.436 408.964 541.697 409.64 541.937L412.278 542.834C413.694 543.322 414.716 543.941 415.344 544.692C415.973 545.443 416.216 546.353 416.075 547.421C415.947 548.393 415.546 549.208 414.872 549.866C414.203 550.525 413.342 550.994 412.287 551.275C411.24 551.549 410.066 551.601 408.767 551.43C406.785 551.169 405.26 550.553 404.192 549.58C403.131 548.602 402.593 547.392 402.578 545.949L406.689 546.274C406.734 546.889 406.973 547.385 407.406 547.763C407.839 548.135 408.426 548.369 409.167 548.467C409.894 548.563 410.497 548.501 410.975 548.282C411.461 548.058 411.736 547.724 411.802 547.281C411.844 546.907 411.726 546.58 411.445 546.301C411.165 546.015 410.709 545.765 410.076 545.551L407.551 544.698C406.128 544.216 405.106 543.57 404.486 542.761C403.871 541.954 403.637 540.996 403.783 539.889C403.908 538.936 404.276 538.149 404.887 537.529C405.504 536.909 406.311 536.475 407.309 536.227C408.312 535.979 409.454 535.939 410.735 536.108C412.625 536.357 414.06 536.949 415.041 537.883C416.028 538.819 416.523 539.981 416.526 541.37ZM425.358 553.615C423.845 553.415 422.577 552.924 421.557 552.141C420.544 551.353 419.813 550.347 419.367 549.122C418.921 547.891 418.798 546.516 418.998 544.996C419.2 543.464 419.675 542.164 420.423 541.097C421.173 540.023 422.138 539.24 423.32 538.747C424.509 538.249 425.861 538.099 427.375 538.299C428.888 538.498 430.152 538.992 431.165 539.78C432.186 540.563 432.918 541.57 433.364 542.801C433.811 544.025 433.934 545.404 433.733 546.936C433.533 548.456 433.057 549.752 432.308 550.826C431.559 551.893 430.591 552.676 429.402 553.174C428.22 553.667 426.872 553.814 425.358 553.615ZM425.798 550.43C426.486 550.521 427.086 550.403 427.598 550.078C428.112 549.746 428.529 549.257 428.852 548.612C429.181 547.968 429.403 547.214 429.516 546.352C429.63 545.489 429.611 544.704 429.46 543.996C429.315 543.289 429.038 542.709 428.628 542.256C428.219 541.802 427.67 541.53 426.981 541.44C426.286 541.348 425.675 541.467 425.149 541.798C424.63 542.129 424.206 542.617 423.876 543.261C423.553 543.906 423.335 544.66 423.221 545.523C423.107 546.386 423.124 547.17 423.269 547.877C423.42 548.585 423.704 549.166 424.119 549.62C424.543 550.069 425.102 550.339 425.798 550.43ZM442.737 555.902C441.223 555.703 439.956 555.212 438.935 554.429C437.922 553.641 437.192 552.634 436.745 551.41C436.3 550.179 436.176 548.804 436.376 547.284C436.578 545.752 437.054 544.452 437.801 543.385C438.551 542.311 439.517 541.528 440.698 541.035C441.888 540.537 443.24 540.387 444.753 540.587C446.267 540.786 447.53 541.28 448.543 542.068C449.564 542.851 450.297 543.858 450.743 545.089C451.19 546.313 451.313 547.692 451.111 549.224C450.911 550.743 450.436 552.04 449.686 553.114C448.938 554.181 447.969 554.964 446.78 555.462C445.598 555.955 444.25 556.102 442.737 555.902ZM443.176 552.718C443.865 552.809 444.465 552.691 444.977 552.366C445.49 552.034 445.908 551.545 446.231 550.9C446.56 550.256 446.781 549.502 446.895 548.639C447.008 547.777 446.989 546.992 446.838 546.284C446.693 545.577 446.416 544.997 446.007 544.544C445.597 544.09 445.048 543.818 444.36 543.728C443.664 543.636 443.053 543.755 442.528 544.086C442.008 544.417 441.584 544.905 441.255 545.549C440.932 546.194 440.713 546.948 440.599 547.811C440.486 548.673 440.502 549.458 440.647 550.165C440.798 550.873 441.082 551.454 441.498 551.908C441.921 552.356 442.481 552.627 443.176 552.718ZM458.67 548.981L457.541 557.557L453.391 557.01L455.343 542.177L459.299 542.698L458.955 545.315L459.131 545.338C459.575 544.519 460.221 543.91 461.066 543.51C461.913 543.104 462.891 542.974 464.003 543.121C465.042 543.258 465.919 543.602 466.632 544.155C467.346 544.707 467.862 545.43 468.18 546.323C468.5 547.21 468.584 548.23 468.432 549.382L467.189 558.827L463.038 558.28L464.185 549.57C464.31 548.663 464.169 547.924 463.762 547.353C463.356 546.775 462.737 546.432 461.905 546.322C461.347 546.249 460.837 546.303 460.377 546.485C459.924 546.667 459.546 546.971 459.246 547.397C458.953 547.817 458.761 548.345 458.67 548.981Z" fill="white"/>
<path d="M491.421 562.312C489.888 562.111 488.612 561.615 487.593 560.826C486.58 560.031 485.854 559.019 485.414 557.788C484.981 556.559 484.864 555.194 485.061 553.694C485.261 552.175 485.732 550.881 486.474 549.813C487.223 548.739 488.19 547.953 489.372 547.454C490.556 546.948 491.904 546.795 493.418 546.994C494.724 547.166 495.837 547.551 496.755 548.15C497.675 548.75 498.365 549.512 498.824 550.437C499.284 551.362 499.467 552.401 499.376 553.555L495.457 553.039C495.445 552.284 495.231 551.65 494.816 551.137C494.408 550.618 493.824 550.309 493.065 550.209C492.421 550.124 491.837 550.224 491.31 550.509C490.791 550.787 490.355 551.238 490.002 551.859C489.649 552.481 489.412 553.258 489.289 554.192C489.164 555.138 489.188 555.96 489.36 556.657C489.54 557.356 489.846 557.91 490.281 558.321C490.717 558.732 491.256 558.98 491.899 559.064C492.373 559.127 492.811 559.086 493.214 558.943C493.622 558.8 493.974 558.562 494.269 558.227C494.572 557.887 494.797 557.461 494.943 556.95L498.861 557.466C498.646 558.591 498.203 559.547 497.531 560.336C496.866 561.12 496.015 561.689 494.976 562.044C493.938 562.398 492.753 562.488 491.421 562.312ZM508.076 564.505C506.562 564.306 505.296 563.815 504.275 563.032C503.262 562.244 502.532 561.237 502.085 560.013C501.639 558.781 501.516 557.406 501.716 555.887C501.918 554.355 502.393 553.055 503.141 551.988C503.891 550.914 504.857 550.131 506.038 549.638C507.228 549.14 508.579 548.99 510.092 549.189C511.607 549.389 512.87 549.882 513.883 550.671C514.903 551.453 515.637 552.46 516.083 553.691C516.53 554.916 516.652 556.294 516.45 557.827C516.25 559.346 515.776 560.643 515.026 561.716C514.278 562.784 513.308 563.566 512.12 564.065C510.938 564.558 509.59 564.704 508.076 564.505ZM508.515 561.321C509.204 561.411 509.805 561.294 510.317 560.969C510.829 560.637 511.248 560.148 511.57 559.503C511.9 558.858 512.121 558.105 512.235 557.242C512.348 556.38 512.33 555.594 512.178 554.887C512.033 554.18 511.755 553.6 511.347 553.146C510.937 552.693 510.387 552.421 509.699 552.33C509.004 552.239 508.394 552.358 507.868 552.688C507.348 553.02 506.923 553.507 506.594 554.152C506.271 554.797 506.053 555.551 505.939 556.413C505.826 557.276 505.841 558.061 505.986 558.768C506.137 559.475 506.421 560.056 506.838 560.511C507.261 560.959 507.821 561.229 508.515 561.321ZM518.73 565.613L520.683 550.78L524.639 551.301L524.295 553.918L524.47 553.941C524.896 553.113 525.506 552.496 526.3 552.089C527.094 551.683 527.997 551.546 529.011 551.68C530.037 551.815 530.878 552.184 531.532 552.788C532.187 553.385 532.577 554.131 532.705 555.025L532.86 555.045C533.277 554.236 533.919 553.629 534.785 553.226C535.659 552.817 536.644 552.685 537.742 552.829C539.139 553.013 540.214 553.603 540.969 554.6C541.731 555.591 542.006 556.891 541.794 558.501L540.481 568.476L536.339 567.931L537.545 558.767C537.654 557.943 537.515 557.296 537.127 556.825C536.739 556.355 536.214 556.076 535.552 555.989C534.798 555.89 534.179 556.051 533.694 556.472C533.209 556.886 532.916 557.479 532.815 558.252L531.622 567.31L527.598 566.78L528.816 557.529C528.911 556.802 528.777 556.194 528.411 555.707C528.052 555.221 527.531 554.933 526.849 554.844C526.388 554.783 525.957 554.844 525.556 555.027C525.163 555.204 524.832 555.485 524.563 555.869C524.295 556.246 524.125 556.709 524.053 557.256L522.881 566.159L518.73 565.613ZM544.309 568.98L546.262 554.147L550.412 554.694L548.46 569.527L544.309 568.98ZM548.598 552.51C547.982 552.429 547.478 552.156 547.09 551.692C546.71 551.223 546.557 550.702 546.632 550.129C546.707 549.562 546.988 549.105 547.477 548.757C547.972 548.403 548.53 548.266 549.146 548.348C549.764 548.429 550.263 548.704 550.644 549.174C551.032 549.637 551.189 550.152 551.114 550.719C551.039 551.292 550.753 551.755 550.257 552.109C549.769 552.458 549.216 552.591 548.598 552.51ZM557.614 562.008L556.485 570.584L552.334 570.037L554.287 555.204L558.244 555.725L557.899 558.342L558.074 558.365C558.519 557.546 559.165 556.937 560.011 556.537C560.857 556.131 561.836 556.001 562.946 556.147C563.986 556.284 564.862 556.629 565.576 557.181C566.29 557.734 566.806 558.457 567.125 559.35C567.444 560.237 567.528 561.257 567.376 562.409L566.133 571.854L561.981 571.307L563.128 562.597C563.255 561.69 563.114 560.951 562.706 560.38C562.3 559.802 561.681 559.459 560.849 559.349C560.291 559.276 559.782 559.33 559.321 559.512C558.867 559.694 558.49 559.998 558.19 560.424C557.897 560.843 557.705 561.372 557.614 562.008ZM575.924 579.116C574.579 578.939 573.45 578.604 572.537 578.11C571.629 577.624 570.934 577.031 570.451 576.332C569.969 575.633 569.694 574.883 569.628 574.082L573.534 574.076C573.613 574.387 573.761 574.688 573.981 574.979C574.2 575.27 574.508 575.52 574.903 575.729C575.304 575.946 575.806 576.094 576.411 576.174C577.314 576.293 578.086 576.172 578.729 575.811C579.377 575.457 579.768 574.772 579.901 573.755L580.259 571.041L580.084 571.018C579.848 571.406 579.523 571.76 579.111 572.079C578.699 572.398 578.191 572.636 577.59 572.792C576.987 572.949 576.29 572.975 575.497 572.87C574.374 572.722 573.384 572.33 572.53 571.694C571.682 571.052 571.056 570.16 570.651 569.02C570.253 567.874 570.163 566.48 570.379 564.838C570.6 563.158 571.061 561.791 571.761 560.737C572.462 559.683 573.307 558.936 574.297 558.497C575.293 558.058 576.34 557.911 577.438 558.055C578.276 558.166 578.959 558.4 579.487 558.757C580.016 559.109 580.425 559.516 580.713 559.98C581.011 560.438 581.227 560.879 581.363 561.303L581.518 561.324L581.846 558.832L585.968 559.375L583.996 574.353C583.83 575.615 583.38 576.629 582.644 577.397C581.908 578.165 580.961 578.688 579.801 578.968C578.645 579.255 577.354 579.304 575.924 579.116ZM577.219 569.953C577.889 570.041 578.476 569.952 578.98 569.684C579.492 569.411 579.912 568.981 580.241 568.396C580.576 567.805 580.801 567.075 580.915 566.206C581.03 565.336 581.006 564.567 580.842 563.897C580.68 563.221 580.389 562.675 579.968 562.259C579.547 561.844 579.002 561.592 578.332 561.504C577.65 561.414 577.051 561.522 576.535 561.827C576.02 562.126 575.6 562.581 575.274 563.193C574.949 563.806 574.731 564.533 574.62 565.377C574.507 566.233 574.53 566.989 574.688 567.645C574.853 568.296 575.144 568.822 575.561 569.224C575.985 569.621 576.538 569.864 577.219 569.953ZM608.619 566.66L604.787 566.391C604.765 566.061 604.663 565.753 604.482 565.467C604.303 565.175 604.048 564.928 603.717 564.728C603.394 564.521 602.992 564.387 602.511 564.323C601.868 564.239 601.308 564.302 600.831 564.515C600.354 564.72 600.087 565.045 600.028 565.49C599.982 565.844 600.085 566.162 600.339 566.444C600.592 566.726 601.057 566.987 601.733 567.227L604.371 568.124C605.787 568.612 606.809 569.231 607.437 569.982C608.066 570.733 608.309 571.643 608.168 572.711C608.04 573.683 607.639 574.498 606.964 575.156C606.296 575.815 605.435 576.285 604.38 576.565C603.332 576.839 602.159 576.891 600.86 576.72C598.878 576.459 597.353 575.843 596.285 574.87C595.224 573.892 594.686 572.682 594.671 571.239L598.782 571.564C598.827 572.179 599.066 572.676 599.498 573.053C599.932 573.425 600.519 573.659 601.26 573.757C601.987 573.853 602.59 573.791 603.068 573.572C603.554 573.348 603.829 573.014 603.894 572.571C603.937 572.197 603.818 571.87 603.538 571.591C603.258 571.305 602.802 571.055 602.169 570.841L599.644 569.988C598.221 569.506 597.199 568.86 596.578 568.052C595.964 567.244 595.73 566.286 595.876 565.179C596.001 564.226 596.369 563.439 596.979 562.819C597.597 562.199 598.404 561.765 599.402 561.517C600.405 561.269 601.547 561.229 602.828 561.398C604.718 561.647 606.153 562.239 607.134 563.173C608.121 564.109 608.616 565.271 608.619 566.66ZM617.451 578.905C615.938 578.705 614.67 578.214 613.649 577.431C612.637 576.643 611.906 575.637 611.459 574.412C611.014 573.181 610.891 571.806 611.091 570.286C611.293 568.754 611.768 567.454 612.516 566.387C613.265 565.313 614.231 564.53 615.413 564.037C616.602 563.539 617.954 563.389 619.468 563.589C620.981 563.788 622.245 564.282 623.258 565.07C624.278 565.853 625.011 566.86 625.457 568.091C625.904 569.315 626.027 570.694 625.825 572.226C625.625 573.746 625.15 575.042 624.401 576.116C623.652 577.183 622.684 577.966 621.494 578.464C620.313 578.957 618.965 579.104 617.451 578.905ZM617.89 575.72C618.579 575.811 619.179 575.693 619.691 575.368C620.204 575.036 620.622 574.547 620.945 573.902C621.274 573.258 621.496 572.504 621.609 571.642C621.723 570.779 621.704 569.994 621.553 569.286C621.408 568.579 621.131 567.999 620.721 567.546C620.311 567.092 619.763 566.82 619.074 566.73C618.379 566.638 617.768 566.758 617.242 567.088C616.723 567.419 616.298 567.907 615.969 568.551C615.646 569.196 615.427 569.95 615.314 570.813C615.2 571.676 615.216 572.46 615.362 573.167C615.513 573.875 615.796 574.456 616.212 574.91C616.635 575.359 617.195 575.629 617.89 575.72ZM634.83 581.192C633.316 580.993 632.048 580.502 631.028 579.719C630.015 578.931 629.285 577.924 628.838 576.7C628.393 575.469 628.269 574.094 628.469 572.574C628.671 571.042 629.146 569.742 629.894 568.675C630.644 567.601 631.61 566.818 632.791 566.325C633.98 565.827 635.332 565.677 636.846 565.877C638.359 566.076 639.623 566.57 640.636 567.358C641.657 568.141 642.39 569.148 642.836 570.379C643.282 571.603 643.405 572.982 643.204 574.514C643.004 576.033 642.528 577.33 641.779 578.404C641.03 579.471 640.062 580.254 638.873 580.752C637.691 581.245 636.343 581.392 634.83 581.192ZM635.269 578.008C635.957 578.099 636.557 577.981 637.07 577.656C637.583 577.324 638 576.835 638.323 576.19C638.653 575.546 638.874 574.792 638.987 573.93C639.101 573.067 639.082 572.282 638.931 571.574C638.786 570.867 638.509 570.287 638.099 569.834C637.69 569.38 637.141 569.108 636.452 569.018C635.757 568.926 635.146 569.045 634.62 569.376C634.101 569.707 633.677 570.195 633.348 570.839C633.025 571.484 632.806 572.238 632.692 573.101C632.579 573.963 632.595 574.748 632.74 575.455C632.891 576.163 633.175 576.744 633.59 577.198C634.014 577.647 634.573 577.917 635.269 578.008ZM650.763 574.271L649.634 582.847L645.483 582.3L647.436 567.467L651.392 567.988L651.048 570.605L651.223 570.628C651.668 569.809 652.313 569.2 653.159 568.8C654.006 568.394 654.984 568.265 656.095 568.411C657.135 568.548 658.012 568.892 658.725 569.445C659.439 569.997 659.955 570.72 660.273 571.613C660.593 572.5 660.676 573.52 660.525 574.672L659.281 584.117L655.131 583.57L656.278 574.86C656.403 573.953 656.262 573.214 655.855 572.643C655.449 572.065 654.83 571.722 653.998 571.612C653.44 571.539 652.93 571.593 652.47 571.775C652.017 571.958 651.639 572.261 651.339 572.687C651.045 573.107 650.854 573.635 650.763 574.271Z" fill="white"/>
</g>
<g clip-path="url(#clip2_3602_885)" filter="url(#filter0_d_3602_885)">
<path d="M696.369 451L-72.001 552.158L-65.7357 599.748L702.634 498.59L696.369 451Z" fill="#C03466"/>
<path d="M-52.3197 583.579C-53.8529 583.78 -55.2141 583.632 -56.4033 583.134C-57.5869 582.628 -58.5501 581.838 -59.293 580.763C-60.0294 579.688 -60.4963 578.4 -60.6938 576.9C-60.8938 575.381 -60.7737 574.009 -60.3333 572.786C-59.8874 571.554 -59.1578 570.545 -58.1446 569.756C-57.1323 568.962 -55.8693 568.465 -54.3555 568.265C-53.0497 568.093 -51.8754 568.178 -50.8325 568.519C-49.7897 568.86 -48.9265 569.417 -48.2428 570.192C-47.5593 570.966 -47.1128 571.923 -46.9035 573.061L-50.8209 573.577C-51.0289 572.851 -51.3996 572.294 -51.9332 571.906C-52.4611 571.51 -53.1051 571.362 -53.8653 571.462C-54.5084 571.547 -55.0475 571.795 -55.4825 572.206C-55.9118 572.61 -56.2165 573.157 -56.3964 573.849C-56.5763 574.541 -56.6048 575.353 -56.4819 576.287C-56.3573 577.233 -56.1214 578.021 -55.7742 578.65C-55.4206 579.278 -54.9805 579.734 -54.454 580.018C-53.9275 580.303 -53.3426 580.403 -52.6994 580.318C-52.2252 580.255 -51.8124 580.103 -51.461 579.86C-51.1031 579.616 -50.8249 579.295 -50.6264 578.895C-50.4221 578.489 -50.3154 578.019 -50.306 577.488L-46.3886 576.972C-46.3044 578.114 -46.4849 579.153 -46.93 580.089C-47.3695 581.018 -48.0447 581.788 -48.9556 582.399C-49.8666 583.01 -50.9879 583.403 -52.3197 583.579ZM-35.6649 581.386C-37.1786 581.585 -38.5296 581.439 -39.718 580.947C-40.9007 580.448 -41.8663 579.664 -42.6148 578.597C-43.3643 577.524 -43.839 576.227 -44.039 574.708C-44.2408 573.175 -44.1182 571.797 -43.6714 570.572C-43.2254 569.341 -42.4954 568.335 -41.4814 567.553C-40.4617 566.764 -39.195 566.269 -37.6813 566.07C-36.1676 565.871 -34.8194 566.021 -33.6367 566.52C-32.4483 567.012 -31.4795 567.795 -30.7301 568.869C-29.9815 569.936 -29.5064 571.236 -29.3047 572.768C-29.1047 574.287 -29.2276 575.662 -29.6736 576.893C-30.1204 578.118 -30.8536 579.125 -31.8733 579.914C-32.8873 580.696 -34.1512 581.187 -35.6649 581.386ZM-36.0649 578.197C-35.3763 578.106 -34.8269 577.837 -34.4164 577.39C-34.0068 576.937 -33.7296 576.357 -33.5848 575.65C-33.4334 574.942 -33.4144 574.157 -33.528 573.294C-33.6416 572.432 -33.8631 571.678 -34.1925 571.034C-34.5153 570.389 -34.9332 569.9 -35.4462 569.568C-35.9592 569.236 -36.56 569.115 -37.2486 569.206C-37.9437 569.298 -38.5026 569.571 -38.9252 570.026C-39.3412 570.48 -39.6249 571.061 -39.7763 571.769C-39.9212 572.476 -39.9368 573.26 -39.8233 574.123C-39.7097 574.986 -39.4915 575.74 -39.1686 576.385C-38.8392 577.029 -38.4148 577.517 -37.8954 577.848C-37.3703 578.172 -36.7601 578.288 -36.0649 578.197ZM-25.0877 579.699L-27.0405 564.866L-23.084 564.345L-22.7395 566.962L-22.5641 566.939C-22.3667 566.029 -21.9373 565.275 -21.2757 564.677C-20.6142 564.079 -19.7767 563.713 -18.7632 563.58C-17.7367 563.444 -16.8295 563.584 -16.0414 563.997C-15.2542 564.404 -14.6836 565.024 -14.3296 565.855L-14.1737 565.834C-13.9802 564.944 -13.5175 564.192 -12.7853 563.578C-12.0475 562.957 -11.1297 562.575 -10.0318 562.43C-8.63498 562.246 -7.44323 562.538 -6.4566 563.305C-5.46431 564.065 -4.86218 565.25 -4.65028 566.86L-3.33697 576.835L-7.47854 577.38L-8.68506 568.216C-8.79355 567.392 -9.09582 566.803 -9.59187 566.449C-10.0878 566.095 -10.6672 565.962 -11.3299 566.049C-12.0835 566.148 -12.6401 566.464 -12.9996 566.996C-13.36 567.522 -13.4893 568.171 -13.3876 568.943L-12.1951 578.001L-16.2198 578.531L-17.4377 569.28C-17.5335 568.552 -17.8209 568.001 -18.3001 567.625C-18.7726 567.248 -19.35 567.105 -20.0321 567.195C-20.4934 567.256 -20.8938 567.426 -21.2337 567.707C-21.5678 567.98 -21.8149 568.337 -21.9751 568.777C-22.1361 569.211 -22.1806 569.701 -22.1085 570.248L-20.9363 579.152L-25.0877 579.699ZM0.491073 576.331L-1.46173 561.498L2.68961 560.952L4.64241 575.785L0.491073 576.331ZM0.371944 559.312C-0.245235 559.393 -0.801399 559.26 -1.29661 558.912C-1.78615 558.558 -2.06863 558.094 -2.14407 557.521C-2.21866 556.954 -2.065 556.44 -1.6831 555.977C-1.29553 555.506 -0.793199 555.231 -0.17602 555.149C0.441164 555.068 0.994489 555.205 1.48402 555.56C1.97915 555.907 2.26404 556.364 2.33863 556.931C2.41407 557.504 2.258 558.025 1.87051 558.495C1.48862 558.958 0.989127 559.23 0.371944 559.312ZM11.539 566.153L12.668 574.728L8.51667 575.275L6.56387 560.442L10.5204 559.921L10.8649 562.538L11.0403 562.515C11.2581 561.608 11.7237 560.853 12.4372 560.248C13.1498 559.637 14.0615 559.258 15.1725 559.112C16.2123 558.975 17.1475 559.081 17.9804 559.43C18.8123 559.779 19.4982 560.343 20.0372 561.124C20.5753 561.898 20.9202 562.861 21.072 564.014L22.3153 573.458L18.1639 574.005L17.0172 565.294C16.9045 564.385 16.5773 563.708 16.0361 563.262C15.494 562.809 14.8072 562.638 13.9756 562.747C13.4169 562.821 12.9389 563.005 12.5415 563.299C12.1505 563.593 11.865 563.985 11.6848 564.473C11.5103 564.955 11.4617 565.515 11.539 566.153ZM33.6526 577.939C32.3079 578.116 31.1303 578.084 30.1207 577.844C29.1179 577.609 28.2933 577.216 27.646 576.666C26.9986 576.116 26.5392 575.463 26.2677 574.706L30.0396 573.689C30.1961 573.969 30.4169 574.222 30.7046 574.446C30.9915 574.67 31.3539 574.832 31.7893 574.932C32.2333 575.037 32.7567 575.05 33.3613 574.971C34.2643 574.852 34.979 574.535 35.5062 574.02C36.0411 573.511 36.2408 572.748 36.1068 571.731L35.7496 569.017L35.5747 569.04C35.4471 569.476 35.2248 569.902 34.9095 570.317C34.5942 570.731 34.1654 571.092 33.6248 571.399C33.0833 571.706 32.4168 571.912 31.6236 572.016C30.5002 572.164 29.4432 572.042 28.4527 571.648C27.4682 571.247 26.632 570.548 25.9459 569.551C25.2649 568.547 24.8168 567.224 24.6007 565.583C24.3795 563.902 24.4708 562.462 24.8748 561.263C25.2787 560.064 25.9018 559.124 26.7439 558.443C27.5929 557.761 28.5662 557.348 29.6639 557.204C30.5017 557.094 31.2218 557.143 31.8251 557.352C32.4267 557.554 32.927 557.842 33.3259 558.215C33.7318 558.581 34.0545 558.951 34.2957 559.325L34.4509 559.305L34.1229 556.813L38.2452 556.271L40.217 571.249C40.3831 572.51 40.2108 573.607 39.6984 574.539C39.1869 575.471 38.4072 576.222 37.3586 576.792C36.3169 577.368 35.0821 577.75 33.6526 577.939ZM32.5322 568.753C33.202 568.665 33.7455 568.426 34.1636 568.037C34.5869 567.641 34.8818 567.117 35.0474 566.467C35.2182 565.809 35.2468 565.046 35.1324 564.176C35.0179 563.307 34.7953 562.57 34.4644 561.965C34.1327 561.354 33.7102 560.902 33.1954 560.61C32.6814 560.317 32.0896 560.215 31.4198 560.303C30.7381 560.393 30.1876 560.652 29.7677 561.081C29.3478 561.503 29.0598 562.052 28.9035 562.727C28.7482 563.402 28.726 564.162 28.8371 565.005C28.9498 565.861 29.1673 566.586 29.4896 567.179C29.818 567.764 30.2353 568.197 30.7416 568.478C31.2539 568.751 31.8505 568.843 32.5322 568.753ZM62.0092 557.445L58.239 558.177C58.1315 557.864 57.9535 557.593 57.7052 557.363C57.4561 557.128 57.1464 556.956 56.7745 556.847C56.4094 556.732 55.9863 556.705 55.5052 556.769C54.8621 556.853 54.3379 557.06 53.9318 557.389C53.5241 557.711 53.3503 558.094 53.4088 558.538C53.4554 558.892 53.6372 559.173 53.9558 559.38C54.2736 559.587 54.79 559.719 55.5049 559.775L58.2852 559.959C59.7794 560.064 60.9269 560.397 61.7277 560.96C62.5294 561.523 62.9997 562.338 63.1404 563.407C63.2684 564.379 63.0917 565.27 62.6103 566.08C62.135 566.889 61.4249 567.566 60.4783 568.11C59.5378 568.646 58.418 569 57.1188 569.171C55.137 569.432 53.5044 569.231 52.2211 568.568C50.9429 567.898 50.1102 566.868 49.7222 565.478L53.777 564.728C53.9794 565.311 54.3388 565.728 54.8546 565.981C55.3695 566.228 55.997 566.302 56.7379 566.205C57.4651 566.109 58.0318 565.894 58.4369 565.559C58.8482 565.216 59.0275 564.823 58.9759 564.378C58.9199 564.005 58.721 563.72 58.3775 563.523C58.0331 563.32 57.5283 563.196 56.8613 563.153L54.2015 562.982C52.7021 562.885 51.5478 562.526 50.7393 561.906C49.9369 561.284 49.4628 560.42 49.317 559.313C49.1916 558.36 49.3434 557.505 49.7724 556.747C50.2082 555.989 50.8758 555.361 51.7751 554.863C52.6804 554.364 53.7732 554.03 55.0535 553.861C56.9436 553.613 58.4836 553.813 59.6726 554.462C60.8685 555.11 61.6468 556.104 62.0092 557.445ZM73.7099 566.987C72.1963 567.186 70.8449 567.04 69.6565 566.548C68.474 566.048 67.5081 565.265 66.7595 564.198C66.0109 563.124 65.5358 561.828 65.3357 560.308C65.134 558.776 65.257 557.397 65.703 556.173C66.149 554.942 66.8793 553.935 67.8931 553.153C68.9129 552.364 70.18 551.87 71.6935 551.671C73.2071 551.471 74.5556 551.621 75.738 552.121C76.9264 552.613 77.8949 553.395 78.6444 554.469C79.393 555.536 79.8685 556.836 80.0703 558.368C80.2703 559.888 80.1469 561.263 79.7009 562.494C79.254 563.719 78.5211 564.726 77.5014 565.515C76.4876 566.297 75.2235 566.787 73.7099 566.987ZM73.3101 563.797C73.9987 563.706 74.5478 563.438 74.9584 562.991C75.368 562.537 75.645 561.957 75.7901 561.25C75.9412 560.543 75.96 559.758 75.8464 558.895C75.7328 558.032 75.5115 557.279 75.1824 556.634C74.8593 555.989 74.4416 555.501 73.9285 555.169C73.4155 554.837 72.8151 554.716 72.1265 554.807C71.431 554.898 70.872 555.171 70.4494 555.627C70.0338 556.081 69.75 556.662 69.5988 557.369C69.4537 558.076 69.4375 558.861 69.5511 559.724C69.6647 560.586 69.8834 561.34 70.2065 561.985C70.5357 562.63 70.9602 563.118 71.4793 563.449C72.0043 563.773 72.6146 563.889 73.3101 563.797ZM91.0883 564.699C89.5747 564.898 88.2233 564.752 87.0348 564.26C85.8524 563.76 84.8865 562.977 84.1379 561.91C83.3893 560.836 82.9141 559.54 82.7141 558.02C82.5124 556.488 82.6354 555.11 83.0814 553.885C83.5274 552.654 84.2577 551.647 85.2714 550.865C86.2912 550.076 87.5583 549.582 89.0719 549.383C90.5855 549.183 91.9339 549.333 93.1164 549.833C94.3048 550.325 95.2733 551.108 96.0227 552.181C96.7713 553.248 97.2469 554.548 97.4486 556.08C97.6486 557.6 97.5252 558.975 97.0792 560.206C96.6324 561.431 95.8995 562.438 94.8797 563.227C93.866 564.009 92.6019 564.499 91.0883 564.699ZM90.6885 561.509C91.3771 561.419 91.9262 561.15 92.3367 560.703C92.7464 560.249 93.0234 559.669 93.1685 558.962C93.3196 558.255 93.3384 557.47 93.2248 556.607C93.1112 555.744 92.8899 554.991 92.5608 554.346C92.2377 553.701 91.82 553.213 91.3069 552.881C90.7938 552.549 90.1934 552.428 89.5048 552.519C88.8093 552.61 88.2503 552.884 87.8278 553.339C87.4122 553.793 87.1283 554.374 86.9772 555.082C86.8321 555.788 86.8159 556.573 86.9295 557.436C87.0431 558.299 87.2618 559.052 87.5849 559.698C87.914 560.342 88.3386 560.83 88.8576 561.161C89.3827 561.485 89.993 561.601 90.6885 561.509ZM104.687 553.89L105.816 562.465L101.666 563.011L99.713 548.178L103.669 547.658L104.013 550.275L104.189 550.251C104.407 549.345 104.873 548.59 105.586 547.985C106.299 547.373 107.21 546.995 108.321 546.848C109.361 546.712 110.297 546.818 111.129 547.167C111.962 547.515 112.647 548.08 113.186 548.861C113.724 549.635 114.069 550.598 114.221 551.75L115.464 561.195L111.313 561.741L110.167 553.031C110.053 552.122 109.726 551.445 109.185 550.999C108.642 550.546 107.956 550.374 107.124 550.484C106.566 550.557 106.088 550.742 105.69 551.036C105.3 551.33 105.014 551.721 104.834 552.21C104.659 552.691 104.61 553.251 104.687 553.89Z" fill="white"/>
<path d="M139.773 558.29C138.24 558.491 136.879 558.343 135.69 557.845C134.506 557.339 133.543 556.549 132.8 555.474C132.063 554.399 131.596 553.111 131.399 551.611C131.199 550.092 131.319 548.72 131.759 547.497C132.205 546.265 132.935 545.256 133.948 544.467C134.961 543.673 136.223 543.176 137.737 542.976C139.043 542.804 140.218 542.889 141.26 543.23C142.303 543.57 143.167 544.128 143.85 544.903C144.534 545.677 144.98 546.634 145.19 547.772L141.272 548.288C141.064 547.562 140.694 547.005 140.16 546.616C139.632 546.221 138.988 546.073 138.228 546.173C137.585 546.258 137.046 546.506 136.61 546.917C136.181 547.32 135.876 547.868 135.697 548.56C135.517 549.252 135.488 550.064 135.611 550.998C135.736 551.944 135.971 552.732 136.319 553.361C136.673 553.989 137.112 554.445 137.639 554.729C138.166 555.014 138.75 555.113 139.394 555.029C139.868 554.966 140.28 554.814 140.632 554.571C140.99 554.327 141.268 554.006 141.467 553.606C141.671 553.2 141.778 552.73 141.787 552.199L145.705 551.683C145.789 552.824 145.608 553.863 145.163 554.8C144.724 555.729 144.049 556.499 143.137 557.11C142.227 557.721 141.105 558.114 139.773 558.29ZM156.428 556.097C154.914 556.296 153.564 556.15 152.375 555.658C151.193 555.159 150.227 554.375 149.478 553.308C148.729 552.234 148.254 550.938 148.054 549.418C147.853 547.886 147.975 546.508 148.422 545.283C148.868 544.052 149.598 543.046 150.612 542.264C151.632 541.475 152.898 540.98 154.411 540.781C155.926 540.582 157.273 540.732 158.457 541.231C159.644 541.723 160.614 542.506 161.363 543.579C162.112 544.647 162.586 545.947 162.788 547.479C162.988 548.998 162.866 550.373 162.42 551.604C161.973 552.829 161.239 553.836 160.22 554.625C159.205 555.407 157.942 555.898 156.428 556.097ZM156.028 552.908C156.716 552.817 157.266 552.548 157.677 552.101C158.086 551.648 158.364 551.067 158.508 550.361C158.66 549.653 158.679 548.868 158.565 548.005C158.451 547.143 158.23 546.389 157.9 545.745C157.578 545.1 157.159 544.611 156.647 544.279C156.134 543.947 155.533 543.826 154.844 543.917C154.15 544.008 153.591 544.282 153.168 544.737C152.752 545.191 152.468 545.772 152.317 546.48C152.172 547.187 152.156 547.971 152.27 548.834C152.383 549.697 152.601 550.451 152.924 551.096C153.253 551.74 153.678 552.228 154.198 552.559C154.723 552.883 155.333 552.999 156.028 552.908ZM167.005 554.41L165.052 539.577L169.009 539.056L169.354 541.673L169.529 541.65C169.726 540.739 170.156 539.985 170.817 539.387C171.479 538.789 172.316 538.424 173.33 538.29C174.356 538.155 175.264 538.294 176.052 538.708C176.839 539.115 177.409 539.735 177.764 540.566L177.919 540.545C178.112 539.655 178.575 538.903 179.308 538.289C180.046 537.668 180.963 537.285 182.061 537.141C183.458 536.957 184.649 537.249 185.637 538.016C186.628 538.776 187.231 539.961 187.443 541.571L188.756 551.546L184.614 552.091L183.408 542.927C183.299 542.103 182.998 541.514 182.501 541.16C182.005 540.806 181.426 540.673 180.763 540.76C180.01 540.859 179.453 541.175 179.094 541.707C178.733 542.233 178.604 542.882 178.705 543.654L179.898 552.712L175.873 553.242L174.655 543.991C174.56 543.263 174.272 542.712 173.793 542.336C173.32 541.959 172.743 541.816 172.061 541.906C171.6 541.966 171.199 542.137 170.859 542.418C170.525 542.691 170.278 543.048 170.118 543.488C169.957 543.922 169.912 544.412 169.984 544.959L171.157 553.863L167.005 554.41ZM192.584 551.042L190.632 536.209L194.782 535.663L196.735 550.496L192.584 551.042ZM192.465 534.023C191.848 534.104 191.291 533.971 190.796 533.623C190.307 533.268 190.025 532.805 189.949 532.232C189.875 531.665 190.028 531.15 190.41 530.688C190.797 530.217 191.3 529.942 191.917 529.86C192.534 529.779 193.088 529.916 193.577 530.271C194.072 530.618 194.357 531.075 194.432 531.642C194.507 532.215 194.351 532.736 193.963 533.206C193.582 533.669 193.082 533.941 192.465 534.023ZM203.632 540.864L204.761 549.439L200.609 549.986L198.657 535.153L202.613 534.632L202.958 537.249L203.133 537.226C203.351 536.319 203.817 535.564 204.53 534.959C205.243 534.348 206.155 533.969 207.265 533.823C208.305 533.686 209.241 533.792 210.073 534.141C210.905 534.49 211.591 535.054 212.13 535.835C212.668 536.609 213.013 537.572 213.165 538.724L214.408 548.169L210.257 548.715L209.11 540.005C208.997 539.096 208.67 538.419 208.129 537.973C207.587 537.52 206.9 537.349 206.069 537.458C205.51 537.532 205.032 537.716 204.635 538.01C204.243 538.304 203.958 538.695 203.778 539.184C203.603 539.666 203.555 540.225 203.632 540.864ZM225.746 552.65C224.401 552.827 223.223 552.795 222.214 552.555C221.211 552.32 220.386 551.927 219.739 551.377C219.092 550.827 218.632 550.174 218.361 549.417L222.133 548.4C222.289 548.68 222.51 548.933 222.798 549.157C223.085 549.381 223.447 549.543 223.882 549.643C224.326 549.748 224.85 549.761 225.454 549.682C226.357 549.563 227.072 549.246 227.599 548.731C228.134 548.222 228.334 547.459 228.2 546.442L227.843 543.728L227.668 543.751C227.54 544.187 227.318 544.613 227.003 545.027C226.687 545.442 226.258 545.803 225.718 546.11C225.176 546.417 224.51 546.623 223.717 546.727C222.593 546.875 221.536 546.752 220.546 546.359C219.561 545.958 218.725 545.259 218.039 544.262C217.358 543.258 216.91 541.935 216.694 540.293C216.472 538.613 216.564 537.173 216.968 535.974C217.372 534.775 217.995 533.835 218.837 533.154C219.686 532.472 220.659 532.059 221.757 531.915C222.595 531.805 223.315 531.854 223.918 532.063C224.52 532.265 225.02 532.553 225.419 532.926C225.825 533.292 226.147 533.662 226.389 534.036L226.544 534.016L226.216 531.524L230.338 530.982L232.31 545.96C232.476 547.221 232.304 548.318 231.791 549.25C231.28 550.182 230.5 550.933 229.452 551.503C228.41 552.079 227.175 552.461 225.746 552.65ZM224.625 543.464C225.295 543.376 225.839 543.137 226.257 542.748C226.68 542.352 226.975 541.828 227.14 541.178C227.311 540.52 227.34 539.756 227.225 538.887C227.111 538.018 226.888 537.281 226.557 536.676C226.226 536.065 225.803 535.613 225.288 535.321C224.774 535.028 224.183 534.926 223.513 535.014C222.831 535.104 222.281 535.363 221.861 535.792C221.441 536.214 221.153 536.762 220.997 537.438C220.841 538.113 220.819 538.873 220.93 539.716C221.043 540.572 221.26 541.297 221.583 541.89C221.911 542.475 222.328 542.908 222.835 543.189C223.347 543.462 223.943 543.554 224.625 543.464ZM254.102 532.156L250.332 532.888C250.224 532.575 250.047 532.304 249.798 532.074C249.549 531.839 249.239 531.666 248.867 531.558C248.502 531.443 248.079 531.416 247.598 531.48C246.955 531.564 246.431 531.771 246.025 532.099C245.617 532.422 245.443 532.805 245.502 533.249C245.548 533.603 245.73 533.884 246.049 534.091C246.367 534.298 246.883 534.429 247.598 534.486L250.378 534.67C251.872 534.775 253.02 535.108 253.821 535.671C254.622 536.233 255.093 537.049 255.233 538.118C255.361 539.09 255.185 539.981 254.703 540.791C254.228 541.6 253.518 542.277 252.571 542.82C251.631 543.357 250.511 543.711 249.212 543.882C247.23 544.143 245.597 543.942 244.314 543.279C243.036 542.609 242.203 541.579 241.815 540.189L245.87 539.439C246.072 540.021 246.432 540.439 246.948 540.692C247.463 540.939 248.09 541.013 248.831 540.916C249.558 540.82 250.125 540.605 250.53 540.27C250.941 539.927 251.121 539.534 251.069 539.089C251.013 538.716 250.814 538.431 250.47 538.234C250.126 538.03 249.621 537.907 248.954 537.864L246.295 537.693C244.795 537.596 243.641 537.237 242.832 536.617C242.03 535.995 241.556 535.131 241.41 534.023C241.285 533.071 241.436 532.216 241.865 531.458C242.301 530.7 242.969 530.072 243.868 529.574C244.773 529.075 245.866 528.741 247.147 528.572C249.037 528.323 250.577 528.523 251.766 529.173C252.962 529.821 253.74 530.815 254.102 532.156ZM265.803 541.697C264.289 541.897 262.938 541.75 261.749 541.258C260.567 540.759 259.601 539.976 258.852 538.909C258.104 537.835 257.629 536.538 257.429 535.019C257.227 533.487 257.35 532.108 257.796 530.884C258.242 529.653 258.972 528.646 259.986 527.864C261.006 527.075 262.273 526.581 263.787 526.382C265.3 526.182 266.649 526.332 267.831 526.831C269.019 527.323 269.988 528.106 270.737 529.18C271.486 530.247 271.962 531.547 272.163 533.079C272.363 534.599 272.24 535.974 271.794 537.205C271.347 538.43 270.614 539.436 269.594 540.226C268.581 541.008 267.317 541.498 265.803 541.697ZM265.403 538.508C266.092 538.417 266.641 538.149 267.051 537.702C267.461 537.248 267.738 536.668 267.883 535.961C268.034 535.254 268.053 534.469 267.939 533.606C267.826 532.743 267.605 531.99 267.275 531.345C266.952 530.7 266.535 530.211 266.022 529.879C265.508 529.547 264.908 529.427 264.219 529.517C263.524 529.609 262.965 529.882 262.542 530.337C262.127 530.792 261.843 531.373 261.692 532.08C261.547 532.787 261.531 533.572 261.644 534.435C261.758 535.297 261.976 536.051 262.3 536.696C262.629 537.341 263.053 537.828 263.572 538.16C264.097 538.483 264.708 538.6 265.403 538.508ZM283.181 539.41C281.668 539.609 280.316 539.463 279.128 538.971C277.945 538.471 276.979 537.688 276.231 536.621C275.482 535.547 275.007 534.251 274.807 532.731C274.605 531.199 274.728 529.82 275.174 528.596C275.62 527.365 276.351 526.358 277.364 525.576C278.384 524.787 279.651 524.293 281.165 524.094C282.678 523.894 284.027 524.044 285.209 524.544C286.398 525.036 287.366 525.818 288.116 526.892C288.864 527.959 289.34 529.259 289.542 530.791C289.742 532.311 289.618 533.686 289.172 534.917C288.725 536.142 287.992 537.149 286.973 537.938C285.959 538.72 284.695 539.21 283.181 539.41ZM282.781 536.22C283.47 536.129 284.019 535.861 284.43 535.414C284.839 534.96 285.116 534.38 285.261 533.673C285.413 532.966 285.431 532.181 285.318 531.318C285.204 530.455 284.983 529.702 284.654 529.057C284.331 528.412 283.913 527.924 283.4 527.592C282.887 527.26 282.286 527.139 281.598 527.23C280.902 527.321 280.343 527.594 279.921 528.05C279.505 528.504 279.221 529.085 279.07 529.792C278.925 530.499 278.909 531.284 279.022 532.147C279.136 533.009 279.355 533.763 279.678 534.408C280.007 535.053 280.432 535.541 280.951 535.872C281.476 536.196 282.086 536.312 282.781 536.22ZM296.78 528.6L297.909 537.176L293.759 537.722L291.806 522.889L295.762 522.368L296.106 524.985L296.282 524.962C296.5 524.056 296.966 523.3 297.679 522.696C298.392 522.084 299.303 521.706 300.414 521.559C301.454 521.423 302.39 521.529 303.222 521.877C304.055 522.226 304.74 522.791 305.279 523.572C305.817 524.346 306.162 525.309 306.313 526.461L307.557 535.906L303.406 536.452L302.26 527.742C302.146 526.833 301.819 526.156 301.278 525.71C300.735 525.257 300.049 525.085 299.217 525.195C298.659 525.268 298.181 525.452 297.783 525.747C297.393 526.041 297.107 526.432 296.927 526.921C296.752 527.402 296.703 527.962 296.78 528.6Z" fill="white"/>
<path d="M331.865 533C330.332 533.201 328.97 533.053 327.782 532.555C326.598 532.049 325.634 531.259 324.892 530.184C324.155 529.109 323.688 527.821 323.491 526.321C323.291 524.802 323.411 523.43 323.851 522.206C324.297 520.975 325.027 519.966 326.04 519.177C327.053 518.382 328.315 517.886 329.829 517.686C331.135 517.514 332.31 517.599 333.352 517.94C334.395 518.28 335.259 518.838 335.942 519.613C336.625 520.387 337.072 521.344 337.282 522.482L333.363 522.998C333.156 522.272 332.785 521.715 332.252 521.326C331.723 520.931 331.079 520.783 330.32 520.883C329.676 520.968 329.138 521.216 328.702 521.627C328.273 522.03 327.968 522.578 327.789 523.27C327.609 523.962 327.58 524.774 327.703 525.708C327.828 526.654 328.063 527.442 328.41 528.071C328.764 528.699 329.204 529.155 329.731 529.439C330.258 529.723 330.842 529.823 331.485 529.739C331.96 529.676 332.372 529.524 332.724 529.281C333.082 529.037 333.36 528.716 333.559 528.316C333.762 527.91 333.87 527.44 333.878 526.909L337.797 526.393C337.881 527.534 337.7 528.573 337.255 529.51C336.816 530.439 336.14 531.209 335.229 531.82C334.318 532.431 333.197 532.824 331.865 533ZM348.52 530.807C347.006 531.006 345.655 530.86 344.467 530.368C343.284 529.869 342.319 529.085 341.57 528.018C340.821 526.944 340.346 525.648 340.146 524.128C339.944 522.596 340.067 521.218 340.513 519.993C340.959 518.762 341.69 517.756 342.704 516.974C343.723 516.184 344.99 515.69 346.503 515.491C348.018 515.292 349.365 515.442 350.548 515.941C351.736 516.433 352.705 517.216 353.455 518.289C354.203 519.357 354.678 520.656 354.88 522.189C355.08 523.708 354.957 525.083 354.511 526.314C354.064 527.539 353.331 528.546 352.312 529.335C351.297 530.117 350.034 530.608 348.52 530.807ZM348.12 527.618C348.808 527.527 349.358 527.258 349.769 526.811C350.178 526.358 350.455 525.777 350.6 525.071C350.752 524.363 350.77 523.578 350.657 522.715C350.543 521.853 350.322 521.099 349.992 520.455C349.67 519.809 349.251 519.321 348.739 518.989C348.226 518.657 347.625 518.536 346.936 518.627C346.241 518.718 345.682 518.992 345.26 519.447C344.843 519.901 344.56 520.482 344.408 521.19C344.263 521.897 344.248 522.681 344.362 523.544C344.475 524.407 344.693 525.161 345.016 525.806C345.345 526.45 345.77 526.938 346.29 527.269C346.815 527.593 347.425 527.709 348.12 527.618ZM359.097 529.12L357.144 514.287L361.101 513.766L361.446 516.383L361.62 516.36C361.818 515.449 362.248 514.695 362.909 514.097C363.571 513.499 364.408 513.134 365.422 513C366.448 512.865 367.355 513.004 368.144 513.418C368.931 513.825 369.501 514.444 369.856 515.275L370.011 515.255C370.204 514.365 370.667 513.613 371.399 512.999C372.138 512.378 373.055 511.995 374.153 511.851C375.549 511.667 376.741 511.959 377.729 512.726C378.72 513.486 379.323 514.671 379.535 516.28L380.848 526.256L376.706 526.801L375.5 517.637C375.391 516.813 375.089 516.224 374.593 515.87C374.097 515.516 373.517 515.383 372.855 515.47C372.101 515.569 371.545 515.885 371.185 516.417C370.824 516.943 370.695 517.592 370.797 518.364L371.99 527.422L367.965 527.952L366.747 518.701C366.651 517.973 366.364 517.422 365.885 517.046C365.412 516.669 364.835 516.526 364.153 516.616C363.691 516.676 363.291 516.847 362.951 517.128C362.617 517.401 362.37 517.758 362.21 518.198C362.049 518.632 362.004 519.122 362.076 519.669L363.249 528.573L359.097 529.12ZM384.676 525.752L382.723 510.919L386.874 510.373L388.827 525.206L384.676 525.752ZM384.556 508.733C383.94 508.814 383.383 508.681 382.888 508.333C382.399 507.978 382.116 507.515 382.041 506.942C381.966 506.375 382.12 505.86 382.502 505.397C382.889 504.927 383.392 504.651 384.008 504.57C384.626 504.489 385.18 504.626 385.669 504.981C386.164 505.328 386.449 505.785 386.523 506.351C386.599 506.924 386.442 507.446 386.055 507.916C385.674 508.379 385.174 508.651 384.556 508.733ZM395.724 515.574L396.853 524.149L392.701 524.696L390.748 509.863L394.705 509.342L395.05 511.959L395.225 511.936C395.443 511.029 395.909 510.274 396.622 509.669C397.335 509.058 398.246 508.679 399.357 508.533C400.397 508.396 401.332 508.502 402.165 508.851C402.997 509.2 403.683 509.764 404.222 510.545C404.76 511.319 405.105 512.282 405.257 513.434L406.5 522.879L402.349 523.425L401.202 514.715C401.089 513.806 400.762 513.129 400.221 512.683C399.679 512.23 398.992 512.058 398.16 512.168C397.602 512.242 397.124 512.426 396.726 512.72C396.335 513.014 396.05 513.405 395.87 513.894C395.695 514.376 395.647 514.935 395.724 515.574ZM417.837 527.359C416.493 527.537 415.315 527.505 414.306 527.265C413.303 527.03 412.478 526.637 411.831 526.087C411.183 525.537 410.724 524.884 410.453 524.127L414.224 523.11C414.381 523.39 414.602 523.643 414.889 523.867C415.176 524.091 415.539 524.253 415.974 524.353C416.418 524.458 416.942 524.471 417.546 524.392C418.449 524.273 419.164 523.956 419.691 523.441C420.226 522.932 420.426 522.169 420.292 521.152L419.934 518.438L419.759 518.461C419.632 518.897 419.41 519.323 419.094 519.737C418.779 520.152 418.35 520.513 417.81 520.82C417.268 521.127 416.602 521.333 415.808 521.437C414.685 521.585 413.628 521.462 412.637 521.069C411.653 520.668 410.817 519.969 410.131 518.972C409.45 517.968 409.002 516.645 408.786 515.003C408.564 513.323 408.656 511.883 409.06 510.684C409.464 509.485 410.087 508.545 410.929 507.864C411.778 507.182 412.751 506.769 413.849 506.625C414.687 506.515 415.407 506.564 416.01 506.773C416.612 506.975 417.112 507.263 417.511 507.636C417.917 508.002 418.239 508.372 418.48 508.746L418.636 508.726L418.308 506.234L422.43 505.692L424.402 520.669C424.568 521.931 424.396 523.028 423.883 523.96C423.372 524.892 422.592 525.643 421.543 526.213C420.502 526.789 419.267 527.171 417.837 527.359ZM416.717 518.174C417.387 518.086 417.93 517.847 418.348 517.458C418.772 517.062 419.067 516.538 419.232 515.888C419.403 515.23 419.432 514.466 419.317 513.597C419.203 512.728 418.98 511.991 418.649 511.386C418.317 510.775 417.895 510.323 417.38 510.031C416.866 509.738 416.274 509.636 415.605 509.724C414.923 509.814 414.372 510.073 413.953 510.502C413.533 510.924 413.245 511.472 413.088 512.148C412.933 512.823 412.911 513.583 413.022 514.426C413.135 515.282 413.352 516.007 413.674 516.6C414.003 517.185 414.42 517.618 414.926 517.899C415.439 518.172 416.035 518.264 416.717 518.174ZM446.194 506.866L442.424 507.598C442.316 507.285 442.138 507.014 441.89 506.784C441.641 506.548 441.331 506.376 440.959 506.268C440.594 506.153 440.171 506.126 439.69 506.19C439.047 506.274 438.523 506.481 438.117 506.809C437.709 507.132 437.535 507.515 437.594 507.959C437.64 508.313 437.822 508.594 438.141 508.801C438.458 509.008 438.975 509.139 439.69 509.196L442.47 509.38C443.964 509.485 445.112 509.818 445.913 510.381C446.714 510.943 447.184 511.759 447.325 512.828C447.453 513.8 447.276 514.691 446.795 515.501C446.32 516.31 445.61 516.987 444.663 517.53C443.723 518.067 442.603 518.421 441.304 518.592C439.322 518.853 437.689 518.652 436.406 517.989C435.128 517.319 434.295 516.289 433.907 514.899L437.962 514.149C438.164 514.731 438.524 515.149 439.039 515.402C439.554 515.649 440.182 515.723 440.923 515.626C441.65 515.53 442.217 515.315 442.622 514.98C443.033 514.637 443.212 514.244 443.161 513.798C443.105 513.426 442.906 513.141 442.562 512.944C442.218 512.74 441.713 512.617 441.046 512.574L438.386 512.403C436.887 512.306 435.733 511.947 434.924 511.326C434.122 510.705 433.648 509.841 433.502 508.733C433.376 507.781 433.528 506.926 433.957 506.168C434.393 505.41 435.061 504.782 435.96 504.284C436.865 503.785 437.958 503.451 439.238 503.282C441.128 503.033 442.668 503.233 443.857 503.882C445.053 504.531 445.832 505.525 446.194 506.866ZM457.895 516.407C456.381 516.607 455.03 516.46 453.841 515.968C452.659 515.469 451.693 514.686 450.944 513.619C450.196 512.545 449.721 511.248 449.521 509.729C449.319 508.197 449.442 506.818 449.888 505.594C450.334 504.363 451.064 503.356 452.078 502.574C453.098 501.785 454.365 501.291 455.878 501.092C457.392 500.892 458.74 501.042 459.923 501.541C461.111 502.033 462.08 502.816 462.829 503.89C463.578 504.957 464.053 506.257 464.255 507.789C464.455 509.309 464.332 510.684 463.886 511.915C463.439 513.14 462.706 514.146 461.686 514.936C460.672 515.717 459.408 516.208 457.895 516.407ZM457.495 513.218C458.184 513.127 458.733 512.859 459.143 512.412C459.553 511.958 459.83 511.378 459.975 510.671C460.126 509.964 460.145 509.179 460.031 508.316C459.918 507.453 459.696 506.7 459.367 506.055C459.044 505.41 458.626 504.921 458.113 504.589C457.6 504.257 457 504.137 456.311 504.227C455.616 504.319 455.057 504.592 454.634 505.047C454.219 505.502 453.935 506.083 453.784 506.79C453.639 507.497 453.622 508.282 453.736 509.145C453.85 510.007 454.068 510.761 454.391 511.406C454.72 512.051 455.145 512.538 455.664 512.87C456.189 513.193 456.799 513.31 457.495 513.218ZM475.273 514.119C473.76 514.319 472.408 514.172 471.22 513.681C470.037 513.181 469.071 512.398 468.323 511.331C467.574 510.257 467.099 508.96 466.899 507.441C466.697 505.909 466.82 504.53 467.266 503.306C467.712 502.075 468.442 501.068 469.456 500.286C470.476 499.497 471.743 499.003 473.257 498.804C474.77 498.604 476.119 498.754 477.301 499.254C478.49 499.745 479.458 500.528 480.208 501.602C480.956 502.669 481.432 503.969 481.633 505.501C481.833 507.021 481.71 508.396 481.264 509.627C480.817 510.852 480.084 511.858 479.065 512.648C478.051 513.43 476.787 513.92 475.273 514.119ZM474.873 510.93C475.562 510.839 476.111 510.571 476.522 510.124C476.931 509.67 477.208 509.09 477.353 508.383C477.504 507.676 477.523 506.891 477.41 506.028C477.296 505.165 477.075 504.412 476.746 503.767C476.422 503.122 476.005 502.634 475.492 502.301C474.979 501.97 474.378 501.849 473.69 501.94C472.994 502.031 472.435 502.304 472.013 502.76C471.597 503.214 471.313 503.795 471.162 504.502C471.017 505.209 471.001 505.994 471.114 506.857C471.228 507.719 471.447 508.473 471.77 509.118C472.099 509.763 472.523 510.251 473.042 510.582C473.567 510.905 474.178 511.022 474.873 510.93ZM488.872 503.31L490.001 511.886L485.851 512.432L483.898 497.599L487.854 497.078L488.198 499.695L488.374 499.672C488.592 498.766 489.057 498.01 489.771 497.406C490.483 496.794 491.395 496.416 492.506 496.269C493.546 496.133 494.482 496.238 495.314 496.587C496.147 496.936 496.832 497.501 497.371 498.282C497.909 499.056 498.254 500.019 498.405 501.171L499.649 510.616L495.498 511.162L494.351 502.452C494.238 501.543 493.911 500.866 493.369 500.419C492.827 499.967 492.141 499.795 491.309 499.905C490.751 499.978 490.272 500.162 489.875 500.457C489.484 500.751 489.198 501.142 489.018 501.631C488.844 502.112 488.795 502.672 488.872 503.31Z" fill="white"/>
<path d="M523.958 507.71C522.424 507.912 521.063 507.764 519.875 507.266C518.691 506.76 517.727 505.97 516.985 504.895C516.248 503.82 515.781 502.532 515.584 501.032C515.383 499.513 515.504 498.141 515.944 496.917C516.39 495.686 517.12 494.677 518.133 493.888C519.146 493.093 520.408 492.596 521.922 492.397C523.228 492.225 524.403 492.31 525.445 492.651C526.488 492.991 527.351 493.549 528.034 494.324C528.718 495.098 529.164 496.055 529.374 497.193L525.456 497.709C525.249 496.983 524.878 496.426 524.345 496.037C523.816 495.642 523.172 495.494 522.412 495.594C521.769 495.679 521.23 495.927 520.795 496.338C520.366 496.741 520.061 497.289 519.882 497.981C519.701 498.672 519.673 499.485 519.796 500.419C519.921 501.365 520.156 502.153 520.503 502.782C520.857 503.41 521.297 503.866 521.824 504.15C522.35 504.434 522.935 504.534 523.578 504.45C524.052 504.387 524.465 504.235 524.817 503.992C525.175 503.748 525.453 503.427 525.651 503.027C525.855 502.621 525.963 502.151 525.971 501.62L529.889 501.104C529.973 502.245 529.793 503.284 529.348 504.221C528.908 505.15 528.233 505.92 527.322 506.531C526.411 507.142 525.289 507.535 523.958 507.71ZM540.612 505.518C539.099 505.717 537.748 505.571 536.56 505.079C535.377 504.579 534.411 503.796 533.663 502.729C532.913 501.655 532.439 500.359 532.239 498.839C532.037 497.307 532.159 495.929 532.606 494.704C533.052 493.473 533.783 492.466 534.796 491.685C535.816 490.895 537.082 490.401 538.596 490.202C540.11 490.003 541.458 490.153 542.641 490.652C543.829 491.144 544.798 491.927 545.548 493C546.296 494.068 546.771 495.367 546.973 496.9C547.173 498.419 547.05 499.794 546.604 501.025C546.157 502.25 545.423 503.257 544.405 504.046C543.39 504.828 542.127 505.318 540.612 505.518ZM540.212 502.328C540.901 502.238 541.451 501.969 541.862 501.522C542.27 501.069 542.548 500.488 542.692 499.782C542.844 499.074 542.863 498.289 542.75 497.426C542.636 496.563 542.415 495.81 542.085 495.166C541.763 494.52 541.344 494.032 540.832 493.7C540.319 493.368 539.717 493.247 539.029 493.338C538.334 493.429 537.775 493.703 537.353 494.158C536.936 494.612 536.652 495.193 536.501 495.901C536.356 496.608 536.341 497.392 536.454 498.255C536.568 499.118 536.786 499.872 537.109 500.517C537.438 501.161 537.863 501.649 538.382 501.98C538.908 502.304 539.518 502.42 540.212 502.328ZM551.19 503.831L549.237 488.998L553.194 488.477L553.538 491.094L553.713 491.071C553.911 490.16 554.34 489.406 555.002 488.808C555.663 488.21 556.501 487.845 557.514 487.711C558.541 487.576 559.448 487.715 560.236 488.129C561.024 488.536 561.594 489.155 561.948 489.986L562.104 489.966C562.297 489.076 562.76 488.324 563.492 487.71C564.23 487.089 565.148 486.706 566.246 486.562C567.642 486.378 568.834 486.67 569.821 487.437C570.813 488.197 571.416 489.382 571.628 490.991L572.941 500.967L568.799 501.512L567.592 492.348C567.484 491.524 567.182 490.935 566.685 490.581C566.19 490.227 565.61 490.094 564.948 490.181C564.194 490.28 563.637 490.596 563.278 491.128C562.917 491.653 562.788 492.302 562.89 493.075L564.082 502.133L560.058 502.663L558.84 493.412C558.744 492.684 558.457 492.133 557.977 491.757C557.505 491.38 556.927 491.237 556.246 491.327C555.784 491.387 555.384 491.558 555.044 491.839C554.71 492.112 554.463 492.469 554.302 492.909C554.141 493.343 554.097 493.833 554.169 494.38L555.341 503.284L551.19 503.831ZM576.769 500.463L574.816 485.63L578.967 485.084L580.92 499.917L576.769 500.463ZM576.649 483.443C576.033 483.525 575.476 483.392 574.981 483.044C574.492 482.689 574.209 482.226 574.134 481.653C574.059 481.086 574.213 480.571 574.594 480.108C574.982 479.638 575.485 479.362 576.101 479.281C576.719 479.2 577.272 479.337 577.761 479.691C578.256 480.039 578.542 480.496 578.616 481.062C578.692 481.635 578.535 482.157 578.148 482.627C577.766 483.09 577.267 483.362 576.649 483.443ZM587.816 490.285L588.945 498.86L584.794 499.406L582.841 484.573L586.798 484.053L587.143 486.67L587.317 486.647C587.536 485.74 588.002 484.985 588.715 484.38C589.428 483.769 590.339 483.39 591.45 483.244C592.49 483.107 593.425 483.213 594.258 483.562C595.09 483.911 595.776 484.475 596.315 485.256C596.853 486.03 597.198 486.993 597.35 488.145L598.593 497.59L594.442 498.136L593.295 489.426C593.182 488.517 592.855 487.84 592.314 487.394C591.772 486.941 591.085 486.769 590.253 486.879C589.695 486.952 589.217 487.137 588.819 487.431C588.428 487.725 588.143 488.116 587.963 488.605C587.788 489.086 587.739 489.646 587.816 490.285ZM609.93 502.07C608.585 502.247 607.408 502.216 606.398 501.975C605.396 501.741 604.571 501.348 603.924 500.798C603.276 500.248 602.817 499.595 602.545 498.838L606.317 497.821C606.474 498.101 606.694 498.354 606.982 498.578C607.269 498.802 607.631 498.964 608.067 499.064C608.511 499.169 609.034 499.182 609.639 499.103C610.542 498.984 611.257 498.667 611.784 498.152C612.319 497.643 612.518 496.88 612.384 495.863L612.027 493.149L611.852 493.172C611.725 493.608 611.502 494.033 611.187 494.448C610.872 494.863 610.443 495.224 609.902 495.531C609.361 495.838 608.694 496.044 607.901 496.148C606.778 496.296 605.721 496.173 604.73 495.78C603.746 495.379 602.91 494.68 602.223 493.683C601.543 492.679 601.094 491.356 600.878 489.714C600.657 488.034 600.748 486.594 601.152 485.395C601.556 484.196 602.179 483.256 603.021 482.575C603.87 481.893 604.844 481.48 605.941 481.336C606.779 481.225 607.499 481.275 608.103 481.483C608.704 481.686 609.205 481.974 609.604 482.347C610.009 482.713 610.332 483.083 610.573 483.457L610.728 483.437L610.4 480.945L614.523 480.403L616.495 495.38C616.661 496.642 616.488 497.739 615.976 498.671C615.464 499.603 614.685 500.354 613.636 500.924C612.594 501.5 611.36 501.882 609.93 502.07ZM608.81 492.885C609.48 492.797 610.023 492.558 610.441 492.169C610.865 491.773 611.159 491.249 611.325 490.599C611.496 489.941 611.524 489.177 611.41 488.308C611.296 487.439 611.073 486.702 610.742 486.097C610.41 485.486 609.988 485.034 609.473 484.742C608.959 484.449 608.367 484.347 607.697 484.435C607.016 484.525 606.465 484.784 606.045 485.213C605.625 485.635 605.337 486.183 605.181 486.859C605.026 487.534 605.004 488.294 605.115 489.137C605.227 489.993 605.445 490.718 605.767 491.311C606.096 491.896 606.513 492.329 607.019 492.61C607.531 492.883 608.128 492.975 608.81 492.885ZM638.287 481.577L634.517 482.309C634.409 481.996 634.231 481.724 633.983 481.495C633.734 481.259 633.424 481.087 633.052 480.979C632.687 480.863 632.264 480.837 631.783 480.901C631.14 480.985 630.615 481.192 630.209 481.52C629.802 481.843 629.628 482.226 629.686 482.67C629.733 483.024 629.915 483.305 630.233 483.512C630.551 483.719 631.068 483.85 631.783 483.907L634.563 484.091C636.057 484.196 637.204 484.529 638.005 485.092C638.807 485.654 639.277 486.47 639.418 487.539C639.546 488.511 639.369 489.402 638.888 490.212C638.413 491.021 637.702 491.698 636.756 492.241C635.815 492.778 634.696 493.132 633.396 493.303C631.415 493.563 629.782 493.363 628.499 492.7C627.22 492.03 626.388 491 626 489.61L630.055 488.86C630.257 489.442 630.616 489.86 631.132 490.113C631.647 490.36 632.275 490.434 633.015 490.337C633.743 490.241 634.309 490.026 634.715 489.691C635.126 489.348 635.305 488.955 635.253 488.509C635.197 488.137 634.999 487.852 634.655 487.655C634.311 487.451 633.806 487.328 633.139 487.285L630.479 487.114C628.98 487.017 627.825 486.658 627.017 486.037C626.215 485.416 625.74 484.552 625.595 483.444C625.469 482.492 625.621 481.637 626.05 480.879C626.486 480.121 627.153 479.493 628.053 478.995C628.958 478.496 630.051 478.162 631.331 477.993C633.221 477.744 634.761 477.944 635.95 478.593C637.146 479.242 637.924 480.236 638.287 481.577ZM649.987 491.118C648.474 491.318 647.122 491.171 645.934 490.679C644.752 490.18 643.786 489.397 643.037 488.33C642.289 487.256 641.813 485.959 641.613 484.44C641.412 482.908 641.535 481.529 641.981 480.305C642.427 479.074 643.157 478.067 644.171 477.285C645.19 476.496 646.458 476.002 647.971 475.802C649.485 475.603 650.833 475.753 652.016 476.252C653.204 476.744 654.173 477.527 654.922 478.601C655.671 479.668 656.146 480.968 656.348 482.5C656.548 484.019 656.424 485.395 655.978 486.626C655.532 487.85 654.799 488.857 653.779 489.647C652.765 490.428 651.501 490.919 649.987 491.118ZM649.588 487.929C650.276 487.838 650.825 487.569 651.236 487.122C651.646 486.669 651.923 486.089 652.068 485.382C652.219 484.675 652.238 483.889 652.124 483.027C652.01 482.164 651.789 481.411 651.46 480.766C651.137 480.121 650.719 479.632 650.206 479.3C649.693 478.968 649.093 478.848 648.404 478.938C647.709 479.03 647.15 479.303 646.727 479.758C646.311 480.213 646.028 480.794 645.876 481.501C645.731 482.208 645.715 482.993 645.829 483.856C645.942 484.718 646.161 485.472 646.484 486.117C646.813 486.762 647.238 487.249 647.757 487.581C648.282 487.904 648.892 488.02 649.588 487.929ZM667.366 488.83C665.852 489.03 664.501 488.883 663.312 488.391C662.13 487.892 661.164 487.109 660.415 486.042C659.667 484.968 659.192 483.671 658.992 482.152C658.79 480.62 658.913 479.241 659.359 478.017C659.805 476.786 660.535 475.779 661.549 474.997C662.569 474.208 663.836 473.714 665.349 473.515C666.863 473.315 668.212 473.465 669.394 473.964C670.582 474.456 671.551 475.239 672.3 476.313C673.049 477.38 673.524 478.68 673.726 480.212C673.926 481.732 673.803 483.107 673.357 484.338C672.91 485.563 672.177 486.569 671.157 487.359C670.144 488.141 668.879 488.631 667.366 488.83ZM666.966 485.641C667.655 485.55 668.204 485.282 668.614 484.835C669.024 484.381 669.301 483.801 669.446 483.094C669.597 482.387 669.616 481.602 669.502 480.739C669.389 479.876 669.167 479.123 668.838 478.478C668.515 477.833 668.098 477.344 667.584 477.012C667.071 476.68 666.471 476.56 665.782 476.65C665.087 476.742 664.528 477.015 664.105 477.47C663.69 477.925 663.406 478.506 663.255 479.213C663.11 479.92 663.093 480.705 663.207 481.568C663.321 482.43 663.539 483.184 663.862 483.829C664.192 484.474 664.616 484.961 665.135 485.293C665.66 485.616 666.271 485.733 666.966 485.641ZM680.965 478.021L682.094 486.597L677.943 487.143L675.991 472.31L679.947 471.789L680.291 474.406L680.467 474.383C680.684 473.477 681.15 472.721 681.864 472.117C682.576 471.505 683.488 471.127 684.599 470.98C685.638 470.843 686.574 470.949 687.406 471.298C688.239 471.647 688.924 472.212 689.463 472.992C690.001 473.766 690.346 474.73 690.498 475.882L691.741 485.327L687.591 485.873L686.444 477.162C686.331 476.254 686.003 475.577 685.462 475.13C684.92 474.678 684.234 474.506 683.402 474.616C682.843 474.689 682.365 474.873 681.968 475.168C681.577 475.462 681.291 475.853 681.111 476.342C680.936 476.823 680.888 477.383 680.965 478.021Z" fill="white"/>
</g>
</g>
<defs>
<filter id="filter0_d_3602_885" x="-72.001" y="445" width="790.635" height="160.747" filterUnits="userSpaceOnUse" color-interpolation-filters="sRGB">
<feFlood flood-opacity="0" result="BackgroundImageFix"/>
<feColorMatrix in="SourceAlpha" type="matrix" values="0 0 0 0 0 0 0 0 0 0 0 0 0 0 0 0 0 0 127 0" result="hardAlpha"/>
<feOffset dx="10"/>
<feGaussianBlur stdDeviation="3"/>
<feComposite in2="hardAlpha" operator="out"/>
<feColorMatrix type="matrix" values="0 0 0 0 0 0 0 0 0 0 0 0 0 0 0 0 0 0 0.65 0"/>
<feBlend mode="normal" in2="BackgroundImageFix" result="effect1_dropShadow_3602_885"/>
<feBlend mode="normal" in="SourceGraphic" in2="effect1_dropShadow_3602_885" result="shape"/>
</filter>
<clipPath id="clip0_3602_885">
<rect width="600" height="600" fill="white"/>
</clipPath>
<clipPath id="clip1_3602_885">
<rect width="775" height="48" fill="white" transform="translate(-95.7344 451) rotate(7.5)"/>
</clipPath>
<clipPath id="clip2_3602_885">
<rect width="775" height="48" fill="white" transform="translate(-72.001 552.158) rotate(-7.5)"/>
</clipPath>
</defs>
</svg>
