<svg width="214" height="54" viewBox="0 0 214 54" fill="none" xmlns="http://www.w3.org/2000/svg">
<path d="M87.4039 38.7422V34.9332H75.0521V31.1515H86.4517V27.3426H75.0521V23.5064H87.4039V19.6975H71.2431V38.7422H87.4039ZM93.6504 29.247V23.5064H103.146V29.247H93.6504ZM93.6504 38.7422V33.056H105.05L106.927 31.1515V21.6292L105.05 19.6975H89.8415V38.7422H93.6504ZM113.179 38.7422V19.6975H109.37V38.7422H113.179ZM131.114 38.7422L132.992 36.8649V33.056H129.21V34.9332H119.715V23.5064H129.21V25.4109H132.992V21.6292L131.114 19.6975H117.783L115.906 21.6292V36.8649L117.783 38.7422H131.114ZM135.434 19.6975V36.8649L137.311 38.7422H150.643L152.52 36.8649V19.6975H148.738V34.9332H139.243V19.6975H135.434ZM159.037 29.247V23.5064H168.532V29.247H159.037ZM172.314 38.7422V34.9332L170.436 33.056L172.314 31.1515V21.6292L170.436 19.6975H155.228V38.7422H159.037V33.056H164.723L166.628 34.9332L168.532 36.8649V38.7422H172.314ZM175.022 19.6975V36.8649L176.899 38.7422H190.23L192.108 36.8649V19.6975H188.326V34.9332H178.831V19.6975H175.022ZM210.024 38.7422L211.902 36.8649V29.2198L210.024 27.3154H198.625V23.5064H208.12V25.4109H211.902V21.6292L210.024 19.6975H196.693L194.816 21.6292V29.7912L196.693 31.1515H208.12V34.9332H198.625V33.056H194.816V36.8649L196.693 38.7422H210.024Z" fill="white"/>

<path d="M0.86741 41.5878C0.337237 41.3332 0 40.7972 0 40.2091L0 3.28717C0 2.1356 1.22459 1.39712 2.2431 1.93449L11.6976 6.92278C12.1994 7.18749 12.5134 7.70818 12.5134 8.27546L12.5134 44.7487C12.5134 45.875 11.3372 46.615 10.322 46.1275L0.86741 41.5878Z" fill="url(#paint0_linear_1512_3655)"/>
<path d="M34.2887 48.6727C33.7313 48.4294 33.3711 47.8791 33.3711 47.271V9.84187C33.3711 8.69029 34.5957 7.95181 35.6142 8.48918L45.0687 13.4775C45.5705 13.7422 45.8845 14.2629 45.8845 14.8301V51.398C45.8845 52.5004 44.7535 53.2407 43.7432 52.7997L34.2887 48.6727Z" fill="url(#paint1_linear_1512_3655)"/>
<path d="M18.9792 17.2768C18.4297 17.5235 18.0762 18.0698 18.0762 18.6721V47.8853C18.0762 49.0448 19.316 49.7826 20.3351 49.2296L27.0089 45.6078C27.5018 45.3403 27.8088 44.8245 27.8088 44.2636V15.6757C27.8088 14.5664 26.6649 13.8261 25.6529 14.2804L18.9792 17.2768Z" fill="url(#paint2_linear_1512_3655)"/>

<defs>
<linearGradient id="paint0_linear_1512_3655" x1="0" y1="23.9654" x2="12.5134" y2="23.9654" gradientUnits="userSpaceOnUse">
<stop stop-color="#0F135A"/>
<stop offset="0.322917" stop-color="#6530DA"/>
<stop offset="0.703125" stop-color="#763FBF"/>
<stop offset="1" stop-color="#7E49F3"/>
</linearGradient>
<linearGradient id="paint1_linear_1512_3655" x1="33.3711" y1="53.7344" x2="63.3091" y2="31.5306" gradientUnits="userSpaceOnUse">
<stop stop-color="#0F135A"/>
<stop offset="0.322917" stop-color="#6530DA"/>
<stop offset="0.703125" stop-color="#763FBF"/>
<stop offset="1" stop-color="#7E49F3"/>
</linearGradient>
<linearGradient id="paint2_linear_1512_3655" x1="18.0762" y1="13.3125" x2="41.823" y2="30.4353" gradientUnits="userSpaceOnUse">
<stop stop-color="#0F135A"/>
<stop offset="0.322917" stop-color="#6530DA"/>
<stop offset="0.703125" stop-color="#763FBF"/>
<stop offset="1" stop-color="#7E49F3"/>
</linearGradient>
</defs>
</svg>
