<svg width="20" height="19" viewBox="0 0 20 19" fill="none" xmlns="http://www.w3.org/2000/svg">
<path d="M1.33886 15.0102C1.13085 14.9207 0.998535 14.7321 0.998535 14.5252V1.5368C0.998535 1.1317 1.479 0.871914 1.8786 1.06095L5.58802 2.81574C5.78489 2.90886 5.90809 3.09203 5.90809 3.29159V16.1222C5.90809 16.5184 5.44661 16.7787 5.04831 16.6072L1.33886 15.0102Z" fill="#7B46E5"/>
<path d="M14.4518 17.5015C14.2332 17.4159 14.0918 17.2223 14.0918 17.0084V3.84149C14.0918 3.43639 14.5723 3.1766 14.9719 3.36564L18.6813 5.12042C18.8782 5.21354 19.0014 5.39671 19.0014 5.59628V18.4602C19.0014 18.848 18.5577 19.1084 18.1612 18.9533L14.4518 17.5015Z" fill="#7B46E5"/>
<path d="M8.44462 6.45735C8.22903 6.54414 8.09033 6.73632 8.09033 6.9482V17.2249C8.09033 17.6328 8.57676 17.8923 8.9766 17.6978L11.595 16.4237C11.7884 16.3296 11.9089 16.1481 11.9089 15.9508V5.89412C11.9089 5.50388 11.4601 5.24346 11.063 5.40328L8.44462 6.45735Z" fill="#7B46E5"/>
</svg>
