<svg width="600" height="600" viewBox="0 0 600 600" fill="none" xmlns="http://www.w3.org/2000/svg">
<g clip-path="url(#clip0_3602_885)">
<g clip-path="url(#clip1_3602_885)">
<path d="M665.015 553.586L-83.5771 353.001L-96.0005 399.365L652.592 599.95L665.015 553.586Z" fill="#C03466"/>
<path d="M-77.4175 389.562C-78.9112 389.162 -80.1121 388.504 -81.02 387.588C-81.92 386.668 -82.5075 385.57 -82.7826 384.292C-83.0514 383.017 -82.99 381.649 -82.5984 380.187C-82.2018 378.707 -81.5659 377.486 -80.6908 376.524C-79.8077 375.557 -78.7472 374.903 -77.5095 374.563C-76.2701 374.216 -74.913 374.24 -73.4382 374.635C-72.166 374.976 -71.1134 375.503 -70.2803 376.217C-69.4473 376.931 -68.8632 377.777 -68.528 378.754C-68.1929 379.731 -68.1464 380.786 -68.3886 381.918L-72.2052 380.895C-72.1195 380.145 -72.2489 379.488 -72.5933 378.925C-72.9297 378.358 -73.4682 377.975 -74.2087 377.777C-74.8353 377.609 -75.4282 377.631 -75.9873 377.844C-76.5384 378.053 -77.0295 378.443 -77.4605 379.013C-77.8914 379.583 -78.2287 380.323 -78.4724 381.232C-78.7194 382.154 -78.8029 382.972 -78.7228 383.686C-78.6364 384.402 -78.4044 384.992 -78.0268 385.456C-77.6492 385.92 -77.1471 386.236 -76.5205 386.404C-76.0584 386.528 -75.6186 386.545 -75.2011 386.455C-74.7772 386.367 -74.3972 386.176 -74.0608 385.883C-73.7165 385.586 -73.4383 385.193 -73.2262 384.705L-69.4096 385.728C-69.7687 386.815 -70.333 387.706 -71.1025 388.4C-71.864 389.09 -72.7826 389.543 -73.858 389.759C-74.9335 389.975 -76.12 389.91 -77.4175 389.562ZM-61.1914 393.91C-62.6661 393.515 -63.8583 392.862 -64.7679 391.953C-65.6695 391.039 -66.262 389.946 -66.545 388.674C-66.8266 387.395 -66.769 386.015 -66.3723 384.535C-65.9724 383.042 -65.3316 381.816 -64.4501 380.855C-63.567 379.889 -62.5074 379.238 -61.2713 378.904C-60.0273 378.565 -58.6679 378.593 -57.1932 378.988C-55.7184 379.383 -54.5302 380.038 -53.6286 380.951C-52.7189 381.861 -52.1234 382.955 -51.8419 384.234C-51.5588 385.506 -51.6173 386.889 -52.0172 388.381C-52.4139 389.862 -53.0537 391.085 -53.9369 392.052C-54.8183 393.012 -55.8811 393.662 -57.1252 394.001C-58.3612 394.335 -59.7166 394.305 -61.1914 393.91ZM-60.3404 390.81C-59.6695 390.99 -59.059 390.952 -58.5088 390.696C-57.9568 390.434 -57.4787 390.004 -57.0744 389.406C-56.6638 388.81 -56.3458 388.092 -56.1206 387.252C-55.8954 386.411 -55.8117 385.63 -55.8694 384.909C-55.9208 384.189 -56.1199 383.578 -56.4668 383.075C-56.8137 382.572 -57.3225 382.231 -57.9934 382.051C-58.6707 381.869 -59.2916 381.908 -59.8562 382.167C-60.4145 382.427 -60.8988 382.856 -61.3095 383.451C-61.7139 384.049 -62.0286 384.768 -62.2538 385.608C-62.479 386.449 -62.566 387.229 -62.5145 387.949C-62.4568 388.67 -62.2514 389.283 -61.8982 389.788C-61.537 390.288 -61.0177 390.629 -60.3404 390.81ZM-50.7736 396.399L-46.9014 381.947L-43.0468 382.98L-43.73 385.53L-43.5591 385.576C-43.0284 384.81 -42.3431 384.278 -41.5031 383.979C-40.6631 383.679 -39.7494 383.662 -38.762 383.927C-37.7619 384.195 -36.977 384.67 -36.4072 385.354C-35.8358 386.032 -35.5455 386.822 -35.5366 387.725L-35.3847 387.766C-34.8653 387.018 -34.15 386.5 -33.2387 386.213C-32.3194 385.922 -31.3249 385.919 -30.2553 386.206C-28.8944 386.571 -27.905 387.296 -27.2872 388.383C-26.6613 389.465 -26.5584 390.79 -26.9786 392.358L-29.5827 402.077L-33.6177 400.996L-31.2253 392.067C-31.0102 391.264 -31.064 390.604 -31.3869 390.088C-31.7097 389.571 -32.194 389.226 -32.8396 389.053C-33.5738 388.856 -34.2088 388.935 -34.7445 389.289C-35.2786 389.636 -35.6465 390.187 -35.8482 390.939L-38.2129 399.764L-42.1339 398.714L-39.7188 389.7C-39.5289 388.992 -39.5834 388.372 -39.8823 387.842C-40.1747 387.313 -40.6533 386.959 -41.3178 386.781C-41.7672 386.661 -42.2025 386.665 -42.6239 386.794C-43.0371 386.919 -43.4019 387.154 -43.7184 387.499C-44.0331 387.839 -44.2619 388.275 -44.4048 388.808L-46.7291 397.482L-50.7736 396.399ZM-25.8532 403.076L-21.981 388.625L-17.9365 389.709L-21.8087 404.16L-25.8532 403.076ZM-19.4501 387.306C-20.0514 387.145 -20.5143 386.809 -20.8389 386.299C-21.1554 385.784 -21.2389 385.247 -21.0893 384.689C-20.9414 384.137 -20.6025 383.72 -20.0725 383.439C-19.5345 383.153 -18.9649 383.09 -18.3636 383.251C-17.7623 383.412 -17.3034 383.751 -16.9869 384.266C-16.6624 384.776 -16.5741 385.307 -16.722 385.859C-16.8716 386.417 -17.2154 386.84 -17.7533 387.126C-18.2832 387.407 -18.8489 387.467 -19.4501 387.306ZM-11.7511 397.9L-13.9897 406.255L-18.0342 405.171L-14.162 390.72L-10.3073 391.753L-10.9905 394.302L-10.8196 394.348C-10.2716 393.594 -9.55231 393.074 -8.66169 392.789C-7.76938 392.497 -6.78213 392.496 -5.69977 392.786C-4.68674 393.057 -3.86328 393.513 -3.22732 394.154C-2.5922 394.795 -2.1746 395.579 -1.97535 396.506C-1.77439 397.427 -1.82435 398.449 -2.12519 399.572L-4.59069 408.773L-8.63526 407.69L-6.36135 399.203C-6.11769 398.321 -6.16075 397.57 -6.49008 396.95C-6.81764 396.325 -7.38656 395.903 -8.19672 395.686C-8.74104 395.54 -9.25313 395.528 -9.73305 395.648C-10.2067 395.77 -10.6202 396.022 -10.9737 396.404C-11.3192 396.782 -11.5783 397.281 -11.7511 397.9ZM4.16887 417.251C2.85884 416.9 1.78301 416.421 0.942227 415.812C0.105634 415.211 -0.506045 414.533 -0.893596 413.777C-1.28117 413.021 -1.45556 412.242 -1.4168 411.439L2.45726 411.942C2.49441 412.262 2.60179 412.579 2.78185 412.897C2.9611 413.214 3.234 413.502 3.59804 413.761C3.96792 414.028 4.44653 414.24 5.03554 414.398C5.91531 414.634 6.69682 414.614 7.38089 414.341C8.06998 414.075 8.54646 413.446 8.81199 412.455L9.52038 409.812L9.34995 409.766C9.06528 410.12 8.69707 410.428 8.24702 410.69C7.79699 410.953 7.26266 411.123 6.64573 411.199C6.02797 411.276 5.33349 411.211 4.56068 411.004C3.46619 410.71 2.53668 410.192 1.77217 409.45C1.01599 408.703 0.510883 407.737 0.25851 406.553C0.013674 405.365 0.105926 403.971 0.534508 402.372C0.97314 400.735 1.60856 399.44 2.44071 398.486C3.27288 397.533 4.20821 396.903 5.24673 396.596C6.29193 396.291 7.34923 396.282 8.41864 396.569C9.23491 396.787 9.88137 397.108 10.3588 397.532C10.8372 397.949 11.1892 398.407 11.415 398.904C11.65 399.397 11.8064 399.863 11.886 400.301L12.0373 400.342L12.6877 397.914L16.7038 398.99L12.7938 413.583C12.4644 414.812 11.8855 415.759 11.0554 416.424C10.2262 417.09 9.21848 417.485 8.03146 417.611C6.8486 417.744 5.56163 417.625 4.16887 417.251ZM6.64903 408.336C7.30154 408.511 7.89495 408.499 8.43017 408.299C8.97289 408.095 9.44567 407.724 9.84762 407.187C10.2571 406.644 10.5757 405.95 10.8026 405.103C11.0295 404.256 11.1058 403.49 11.0316 402.805C10.959 402.113 10.7417 401.534 10.378 401.067C10.0151 400.6 9.50736 400.279 8.85485 400.104C8.19065 399.926 7.58298 399.955 7.03101 400.19C6.48156 400.419 6.00542 400.816 5.60258 401.38C5.20058 401.945 4.88949 402.638 4.66934 403.46C4.4458 404.294 4.3695 405.047 4.44043 405.718C4.5197 406.384 4.73954 406.944 5.09996 407.397C5.46873 407.845 5.98482 408.158 6.64903 408.336ZM38.2095 409.169L34.4461 408.403C34.4667 408.073 34.4061 407.754 34.2645 407.447C34.1245 407.134 33.9042 406.856 33.602 406.614C33.309 406.367 32.9282 406.181 32.4595 406.056C31.8328 405.888 31.2695 405.878 30.7687 406.026C30.2686 406.168 29.9615 406.455 29.8455 406.888C29.7531 407.233 29.8136 407.562 30.0288 407.875C30.2432 408.188 30.6698 408.507 31.3087 408.833L33.8069 410.067C35.1474 410.735 36.0799 411.483 36.6044 412.309C37.1298 413.136 37.2521 414.069 36.9731 415.11C36.7194 416.057 36.2151 416.813 35.4604 417.377C34.7116 417.943 33.7967 418.296 32.7141 418.436C31.6399 418.572 30.4699 418.47 29.2042 418.131C27.2734 417.614 25.842 416.803 24.91 415.7C23.9855 414.592 23.6104 413.321 23.7838 411.889L27.8169 412.748C27.781 413.363 27.9532 413.887 28.3329 414.318C28.7142 414.743 29.2654 415.052 29.9873 415.245C30.6958 415.435 31.3017 415.453 31.8043 415.298C32.3152 415.14 32.6315 414.845 32.7542 414.413C32.8449 414.048 32.7702 413.709 32.5283 413.395C32.288 413.075 31.8689 412.768 31.2692 412.473L28.8772 411.297C27.5291 410.634 26.6 409.86 26.0906 408.978C25.587 408.097 25.4798 407.117 25.7689 406.038C26.0176 405.109 26.485 404.378 27.1712 403.842C27.864 403.308 28.7211 402.983 29.7427 402.867C30.77 402.753 31.9074 402.862 33.1548 403.197C34.9962 403.69 36.3424 404.464 37.1926 405.519C38.0494 406.575 38.3878 407.792 38.2095 409.169ZM45.3682 422.462C43.8936 422.067 42.701 421.415 41.7913 420.506C40.89 419.592 40.2973 418.498 40.0141 417.226C39.7334 415.947 39.7906 414.568 40.1872 413.088C40.5872 411.595 41.2284 410.368 42.109 409.408C42.9922 408.441 44.0521 407.79 45.2879 407.456C46.532 407.117 47.8919 407.145 49.3665 407.541C50.8411 407.936 52.0295 408.59 52.9309 409.504C53.8406 410.413 54.4358 411.507 54.7173 412.786C55.0005 414.059 54.9425 415.441 54.5425 416.934C54.1458 418.414 53.5055 419.638 52.6224 420.604C51.7409 421.565 50.6785 422.215 49.4343 422.553C48.1985 422.888 46.8429 422.857 45.3682 422.462ZM46.2194 419.363C46.8903 419.542 47.5005 419.504 48.0508 419.248C48.6028 418.986 49.0807 418.556 49.4852 417.959C49.8956 417.363 50.2134 416.645 50.4386 415.804C50.6638 414.964 50.7477 414.183 50.6902 413.462C50.6386 412.742 50.4397 412.131 50.0928 411.628C49.7458 411.124 49.2373 410.783 48.5664 410.603C47.8888 410.422 47.2678 410.461 46.7032 410.719C46.1454 410.98 45.6608 411.408 45.2504 412.004C44.8459 412.601 44.5306 413.32 44.3054 414.161C44.0801 415.001 43.9938 415.781 44.0454 416.501C44.1029 417.222 44.3084 417.836 44.6612 418.34C45.0224 418.84 45.5418 419.181 46.2194 419.363ZM62.2993 426.999C60.8247 426.604 59.6321 425.951 58.7224 425.042C57.821 424.128 57.2283 423.035 56.9452 421.763C56.6645 420.484 56.7216 419.105 57.1183 417.624C57.5183 416.131 58.1594 414.905 59.0401 413.944C59.9232 412.978 60.9832 412.327 62.219 411.993C63.4631 411.654 64.8229 411.682 66.2975 412.077C67.7722 412.472 68.9606 413.127 69.862 414.041C70.7717 414.95 71.3668 416.044 71.6484 417.323C71.9315 418.595 71.8735 419.978 71.4735 421.471C71.0769 422.951 70.4366 424.174 69.5534 425.141C68.6719 426.101 67.6095 426.751 66.3654 427.09C65.1296 427.425 63.7739 427.394 62.2993 426.999ZM63.1505 423.899C63.8213 424.079 64.4315 424.041 64.9818 423.785C65.5339 423.523 66.0117 423.093 66.4163 422.495C66.8267 421.9 67.1445 421.181 67.3697 420.341C67.5949 419.5 67.6788 418.72 67.6213 417.998C67.5697 417.279 67.3708 416.667 67.0238 416.164C66.6769 415.661 66.1683 415.32 65.4975 415.14C64.8199 414.959 64.1988 414.997 63.6343 415.256C63.0764 415.517 62.5919 415.945 62.1815 416.541C61.7769 417.138 61.4616 417.857 61.2364 418.697C61.0112 419.538 60.9248 420.318 60.9765 421.038C61.0339 421.759 61.2395 422.372 61.5923 422.877C61.9535 423.377 62.4729 423.718 63.1505 423.899ZM78.9997 422.217L76.7611 430.571L72.7174 429.488L76.5896 415.037L80.4436 416.069L79.7605 418.619L79.9318 418.665C80.4795 417.911 81.199 417.391 82.0895 417.105C82.9818 416.813 83.9688 416.812 85.0516 417.102C86.0642 417.374 86.8885 417.83 87.5236 418.471C88.1596 419.112 88.5764 419.896 88.7756 420.823C88.9766 421.744 88.9266 422.766 88.6258 423.889L86.1603 433.09L82.1166 432.006L84.3905 423.52C84.6333 422.637 84.5901 421.886 84.2608 421.267C83.9332 420.641 83.3647 420.22 82.5542 420.003C82.0104 419.857 81.498 419.844 81.0181 419.964C80.5448 420.086 80.1308 420.338 79.7775 420.721C79.4318 421.099 79.1728 421.598 78.9997 422.217Z" fill="white"/>
<path d="M109.73 439.707C108.236 439.307 107.035 438.649 106.128 437.734C105.228 436.814 104.64 435.715 104.365 434.438C104.096 433.163 104.157 431.794 104.549 430.333C104.946 428.853 105.582 427.631 106.457 426.669C107.34 425.702 108.4 425.049 109.638 424.708C110.878 424.362 112.234 424.386 113.709 424.781C114.982 425.122 116.035 425.649 116.867 426.363C117.7 427.077 118.285 427.923 118.619 428.9C118.955 429.877 119.001 430.931 118.759 432.063L114.942 431.04C115.028 430.29 114.899 429.634 114.555 429.071C114.218 428.503 113.679 428.12 112.939 427.922C112.312 427.754 111.72 427.777 111.16 427.99C110.609 428.199 110.118 428.588 109.688 429.158C109.256 429.729 108.919 430.468 108.676 431.378C108.428 432.3 108.345 433.118 108.425 433.832C108.511 434.547 108.743 435.137 109.121 435.601C109.499 436.066 110.001 436.382 110.627 436.55C111.089 436.673 111.529 436.69 111.947 436.601C112.371 436.513 112.751 436.322 113.087 436.029C113.431 435.731 113.71 435.339 113.921 434.851L117.738 435.874C117.379 436.96 116.814 437.851 116.045 438.546C115.284 439.236 114.365 439.689 113.289 439.905C112.214 440.121 111.028 440.055 109.73 439.707ZM125.956 444.055C124.481 443.66 123.29 443.008 122.38 442.099C121.479 441.185 120.886 440.092 120.603 438.819C120.321 437.54 120.379 436.161 120.776 434.681C121.176 433.188 121.816 431.961 122.698 431.001C123.581 430.034 124.641 429.384 125.876 429.049C127.121 428.71 128.48 428.738 129.954 429.134C131.43 429.529 132.617 430.183 133.519 431.097C134.428 432.006 135.024 433.1 135.306 434.379C135.589 435.652 135.53 437.034 135.13 438.527C134.734 440.007 134.094 441.231 133.211 442.197C132.329 443.158 131.266 443.807 130.023 444.147C128.786 444.481 127.431 444.451 125.956 444.055ZM126.807 440.956C127.478 441.135 128.089 441.097 128.639 440.841C129.19 440.579 129.669 440.149 130.073 439.552C130.484 438.956 130.802 438.238 131.027 437.397C131.252 436.557 131.336 435.776 131.278 435.054C131.227 434.335 131.027 433.724 130.681 433.221C130.334 432.718 129.825 432.376 129.154 432.196C128.477 432.015 127.856 432.054 127.292 432.312C126.733 432.573 126.249 433.001 125.838 433.597C125.434 434.194 125.119 434.913 124.894 435.754C124.669 436.594 124.581 437.374 124.633 438.094C124.691 438.815 124.896 439.428 125.25 439.933C125.611 440.433 126.13 440.774 126.807 440.956ZM136.374 446.544L140.246 432.093L144.101 433.126L143.418 435.675L143.588 435.721C144.119 434.956 144.805 434.424 145.644 434.124C146.485 433.825 147.398 433.808 148.386 434.072C149.386 434.34 150.171 434.816 150.741 435.5C151.312 436.177 151.602 436.968 151.612 437.871L151.763 437.911C152.282 437.163 152.997 436.646 153.909 436.359C154.829 436.067 155.822 436.065 156.893 436.352C158.253 436.716 159.242 437.442 159.861 438.528C160.486 439.61 160.59 440.935 160.169 442.504L157.565 452.222L153.53 451.141L155.922 442.212C156.137 441.41 156.084 440.75 155.76 440.233C155.438 439.716 154.953 439.371 154.308 439.199C153.574 439.002 152.939 439.08 152.403 439.434C151.869 439.782 151.501 440.332 151.299 441.085L148.935 449.91L145.014 448.859L147.429 439.846C147.619 439.137 147.564 438.518 147.265 437.987C146.973 437.458 146.494 437.105 145.83 436.927C145.38 436.806 144.945 436.811 144.524 436.94C144.111 437.064 143.746 437.299 143.429 437.645C143.115 437.984 142.886 438.42 142.743 438.953L140.419 447.628L136.374 446.544ZM161.295 453.222L165.167 438.77L169.211 439.854L165.339 454.305L161.295 453.222ZM167.697 437.452C167.097 437.291 166.633 436.955 166.309 436.444C165.993 435.93 165.909 435.393 166.059 434.835C166.207 434.283 166.546 433.866 167.075 433.584C167.613 433.298 168.183 433.236 168.784 433.397C169.385 433.558 169.844 433.896 170.161 434.411C170.485 434.922 170.574 435.453 170.426 436.005C170.276 436.563 169.932 436.985 169.394 437.271C168.865 437.553 168.299 437.613 167.697 437.452ZM175.396 448.046L173.158 456.4L169.113 455.317L172.985 440.865L176.84 441.898L176.157 444.448L176.328 444.494C176.876 443.74 177.596 443.22 178.486 442.934C179.378 442.642 180.366 442.641 181.448 442.931C182.461 443.203 183.284 443.659 183.92 444.3C184.555 444.94 184.973 445.724 185.172 446.652C185.373 447.573 185.323 448.595 185.022 449.717L182.557 458.919L178.512 457.835L180.786 449.349C181.03 448.466 180.987 447.715 180.658 447.096C180.33 446.47 179.761 446.049 178.951 445.832C178.407 445.686 177.895 445.673 177.415 445.793C176.941 445.915 176.527 446.167 176.174 446.55C175.829 446.928 175.569 447.427 175.396 448.046ZM191.317 467.397C190.007 467.046 188.931 466.566 188.09 465.958C187.253 465.357 186.642 464.679 186.254 463.923C185.867 463.167 185.692 462.387 185.731 461.584L189.605 462.088C189.642 462.407 189.749 462.725 189.93 463.042C190.109 463.359 190.382 463.647 190.746 463.906C191.116 464.173 191.594 464.386 192.183 464.544C193.063 464.779 193.844 464.76 194.529 464.486C195.218 464.22 195.694 463.592 195.96 462.601L196.668 459.957L196.498 459.911C196.213 460.265 195.845 460.573 195.395 460.836C194.945 461.099 194.41 461.268 193.793 461.345C193.176 461.421 192.481 461.356 191.708 461.149C190.614 460.856 189.684 460.338 188.92 459.595C188.164 458.848 187.659 457.883 187.406 456.699C187.161 455.511 187.254 454.117 187.682 452.517C188.121 450.88 188.756 449.585 189.588 448.632C190.421 447.678 191.356 447.048 192.394 446.742C193.44 446.437 194.497 446.428 195.566 446.714C196.383 446.933 197.029 447.254 197.507 447.678C197.985 448.095 198.337 448.552 198.563 449.05C198.798 449.543 198.954 450.008 199.034 450.447L199.185 450.487L199.835 448.06L203.851 449.136L199.941 463.728C199.612 464.958 199.033 465.905 198.203 466.57C197.374 467.235 196.366 467.631 195.179 467.756C193.996 467.89 192.709 467.77 191.317 467.397ZM193.797 458.482C194.449 458.657 195.043 458.644 195.578 458.445C196.121 458.241 196.593 457.87 196.995 457.332C197.405 456.79 197.723 456.095 197.95 455.249C198.177 454.402 198.254 453.636 198.179 452.95C198.107 452.259 197.889 451.679 197.526 451.212C197.163 450.745 196.655 450.424 196.003 450.25C195.338 450.072 194.731 450.1 194.179 450.336C193.629 450.565 193.153 450.962 192.75 451.526C192.348 452.09 192.037 452.784 191.817 453.605C191.593 454.439 191.517 455.192 191.588 455.863C191.667 456.53 191.887 457.09 192.248 457.542C192.616 457.991 193.133 458.304 193.797 458.482ZM225.357 459.315L221.594 458.549C221.614 458.218 221.554 457.899 221.412 457.592C221.272 457.279 221.052 457.002 220.75 456.76C220.457 456.513 220.076 456.327 219.607 456.201C218.981 456.033 218.417 456.024 217.916 456.172C217.416 456.313 217.109 456.601 216.993 457.034C216.901 457.379 216.961 457.707 217.176 458.021C217.391 458.333 217.817 458.653 218.456 458.979L220.955 460.213C222.295 460.881 223.228 461.628 223.752 462.455C224.277 463.281 224.4 464.215 224.121 465.256C223.867 466.203 223.363 466.959 222.608 467.523C221.859 468.089 220.944 468.442 219.862 468.582C218.788 468.718 217.618 468.616 216.352 468.277C214.421 467.759 212.99 466.949 212.058 465.845C211.133 464.737 210.758 463.467 210.931 462.034L214.965 462.893C214.929 463.509 215.101 464.032 215.481 464.463C215.862 464.888 216.413 465.197 217.135 465.391C217.843 465.581 218.449 465.598 218.952 465.444C219.463 465.285 219.779 464.99 219.902 464.559C219.993 464.194 219.918 463.854 219.676 463.541C219.436 463.221 219.017 462.913 218.417 462.618L216.025 461.443C214.677 460.779 213.748 460.006 213.238 459.123C212.735 458.242 212.627 457.262 212.917 456.183C213.165 455.255 213.633 454.523 214.319 453.988C215.012 453.454 215.869 453.129 216.89 453.013C217.918 452.898 219.055 453.008 220.302 453.342C222.144 453.836 223.49 454.61 224.34 455.664C225.197 456.721 225.536 457.938 225.357 459.315ZM232.516 472.608C231.041 472.213 229.849 471.56 228.939 470.651C228.038 469.737 227.445 468.644 227.162 467.372C226.881 466.093 226.938 464.713 227.335 463.233C227.735 461.74 228.376 460.514 229.257 459.553C230.14 458.587 231.2 457.936 232.436 457.602C233.68 457.263 235.04 457.291 236.514 457.686C237.989 458.081 239.177 458.736 240.079 459.65C240.988 460.559 241.583 461.653 241.865 462.932C242.148 464.204 242.09 465.587 241.69 467.08C241.294 468.56 240.653 469.783 239.77 470.75C238.889 471.71 237.826 472.36 236.582 472.699C235.346 473.033 233.991 473.003 232.516 472.608ZM233.367 469.508C234.038 469.688 234.648 469.65 235.198 469.394C235.75 469.132 236.228 468.702 236.633 468.104C237.043 467.508 237.361 466.79 237.586 465.95C237.812 465.109 237.895 464.328 237.838 463.607C237.786 462.887 237.587 462.276 237.24 461.773C236.893 461.27 236.385 460.929 235.714 460.749C235.036 460.567 234.415 460.606 233.851 460.865C233.293 461.126 232.808 461.554 232.398 462.15C231.994 462.747 231.678 463.466 231.453 464.306C231.228 465.147 231.141 465.927 231.193 466.647C231.251 467.368 231.456 467.981 231.809 468.486C232.17 468.986 232.689 469.327 233.367 469.508ZM249.447 477.144C247.972 476.749 246.78 476.097 245.87 475.188C244.969 474.274 244.376 473.181 244.093 471.908C243.812 470.63 243.869 469.25 244.266 467.77C244.666 466.277 245.307 465.051 246.188 464.09C247.071 463.123 248.131 462.473 249.367 462.138C250.611 461.799 251.971 461.828 253.445 462.223C254.92 462.618 256.108 463.273 257.01 464.186C257.919 465.096 258.515 466.19 258.796 467.468C259.079 468.741 259.021 470.124 258.621 471.616C258.225 473.097 257.584 474.32 256.701 475.287C255.82 476.247 254.757 476.897 253.513 477.236C252.277 477.57 250.922 477.54 249.447 477.144ZM250.298 474.045C250.969 474.225 251.579 474.186 252.13 473.931C252.682 473.668 253.159 473.238 253.564 472.641C253.974 472.045 254.292 471.327 254.517 470.486C254.743 469.646 254.826 468.865 254.769 468.144C254.717 467.424 254.518 466.813 254.172 466.31C253.825 465.807 253.316 465.465 252.645 465.286C251.968 465.104 251.346 465.143 250.782 465.402C250.224 465.662 249.74 466.09 249.329 466.686C248.925 467.284 248.609 468.003 248.384 468.843C248.159 469.684 248.073 470.464 248.124 471.183C248.182 471.905 248.387 472.518 248.74 473.022C249.101 473.522 249.621 473.863 250.298 474.045ZM266.147 472.362L263.909 480.717L259.865 479.633L263.737 465.182L267.591 466.215L266.908 468.765L267.079 468.81C267.627 468.056 268.347 467.537 269.237 467.251C270.129 466.959 271.117 466.958 272.199 467.248C273.212 467.519 274.036 467.975 274.671 468.616C275.307 469.257 275.724 470.041 275.923 470.968C276.124 471.889 276.074 472.911 275.773 474.034L273.308 483.235L269.264 482.152L271.538 473.666C271.781 472.783 271.738 472.032 271.408 471.412C271.081 470.787 270.512 470.366 269.702 470.148C269.158 470.003 268.646 469.99 268.166 470.11C267.693 470.232 267.278 470.484 266.925 470.867C266.579 471.245 266.32 471.743 266.147 472.362Z" fill="white"/>
<path d="M296.878 489.854C295.385 489.454 294.184 488.796 293.277 487.88C292.376 486.96 291.788 485.862 291.514 484.585C291.245 483.309 291.306 481.941 291.697 480.479C292.094 478.999 292.73 477.778 293.605 476.816C294.488 475.849 295.549 475.195 296.786 474.855C298.026 474.508 299.383 474.532 300.858 474.927C302.13 475.268 303.183 475.796 304.015 476.509C304.849 477.223 305.433 478.069 305.768 479.046C306.103 480.023 306.149 481.078 305.908 482.21L302.091 481.187C302.177 480.437 302.047 479.78 301.703 479.217C301.366 478.65 300.828 478.267 300.087 478.069C299.461 477.901 298.868 477.923 298.309 478.136C297.758 478.345 297.266 478.735 296.836 479.305C296.405 479.875 296.068 480.615 295.824 481.524C295.577 482.447 295.493 483.264 295.573 483.978C295.66 484.694 295.891 485.284 296.269 485.748C296.647 486.212 297.149 486.528 297.776 486.696C298.238 486.82 298.677 486.837 299.095 486.747C299.519 486.659 299.899 486.468 300.235 486.175C300.579 485.878 300.858 485.485 301.07 484.997L304.887 486.02C304.528 487.107 303.963 487.998 303.194 488.692C302.432 489.382 301.514 489.836 300.438 490.051C299.363 490.267 298.176 490.202 296.878 489.854ZM313.104 494.202C311.63 493.807 310.438 493.154 309.528 492.245C308.627 491.331 308.034 490.238 307.751 488.966C307.47 487.687 307.528 486.307 307.924 484.827C308.324 483.334 308.965 482.108 309.846 481.147C310.729 480.181 311.789 479.53 313.025 479.196C314.269 478.857 315.628 478.885 317.103 479.28C318.578 479.675 319.766 480.33 320.668 481.244C321.577 482.153 322.173 483.247 322.454 484.526C322.737 485.798 322.679 487.181 322.279 488.673C321.882 490.154 321.243 491.377 320.359 492.344C319.478 493.304 318.415 493.954 317.171 494.293C315.935 494.627 314.58 494.597 313.104 494.202ZM313.956 491.102C314.626 491.282 315.237 491.244 315.788 490.988C316.339 490.726 316.818 490.296 317.221 489.698C317.633 489.103 317.95 488.384 318.176 487.544C318.401 486.703 318.485 485.922 318.426 485.201C318.376 484.482 318.176 483.87 317.83 483.367C317.483 482.864 316.973 482.523 316.303 482.343C315.626 482.162 315.005 482.2 314.44 482.459C313.882 482.719 313.397 483.148 312.987 483.743C312.582 484.341 312.268 485.06 312.042 485.9C311.817 486.741 311.73 487.521 311.782 488.241C311.839 488.962 312.045 489.575 312.398 490.08C312.759 490.58 313.279 490.921 313.956 491.102ZM323.522 496.691L327.395 482.239L331.25 483.272L330.566 485.822L330.737 485.868C331.268 485.102 331.953 484.57 332.793 484.271C333.633 483.971 334.547 483.954 335.534 484.219C336.534 484.487 337.319 484.963 337.889 485.646C338.461 486.324 338.75 487.114 338.76 488.017L338.911 488.058C339.43 487.31 340.146 486.792 341.057 486.505C341.977 486.214 342.971 486.211 344.041 486.498C345.401 486.863 346.391 487.588 347.009 488.675C347.635 489.757 347.738 491.082 347.318 492.65L344.714 502.369L340.678 501.288L343.071 492.359C343.286 491.556 343.232 490.896 342.909 490.38C342.586 489.863 342.102 489.518 341.457 489.345C340.723 489.148 340.087 489.227 339.552 489.581C339.017 489.928 338.649 490.479 338.448 491.231L336.083 500.056L332.162 499.006L334.577 489.992C334.767 489.284 334.713 488.664 334.414 488.134C334.121 487.605 333.643 487.251 332.978 487.073C332.529 486.953 332.093 486.957 331.672 487.086C331.259 487.211 330.894 487.446 330.578 487.791C330.263 488.131 330.034 488.567 329.891 489.1L327.567 497.774L323.522 496.691ZM348.443 503.368L352.315 488.917L356.359 490L352.487 504.452L348.443 503.368ZM354.846 487.598C354.245 487.437 353.782 487.101 353.457 486.591C353.141 486.076 353.057 485.539 353.207 484.981C353.355 484.429 353.694 484.012 354.224 483.731C354.761 483.445 355.332 483.382 355.932 483.543C356.534 483.704 356.993 484.043 357.309 484.558C357.633 485.068 357.722 485.599 357.574 486.151C357.425 486.71 357.08 487.132 356.543 487.418C356.013 487.699 355.447 487.759 354.846 487.598ZM362.545 498.192L360.306 506.547L356.262 505.463L360.134 491.012L363.989 492.045L363.306 494.594L363.476 494.64C364.025 493.886 364.744 493.366 365.635 493.081C366.527 492.789 367.514 492.788 368.596 493.078C369.609 493.349 370.433 493.805 371.069 494.446C371.704 495.087 372.122 495.871 372.321 496.798C372.522 497.719 372.472 498.741 372.171 499.864L369.705 509.065L365.661 507.982L367.935 499.495C368.178 498.613 368.135 497.862 367.806 497.242C367.478 496.617 366.91 496.195 366.099 495.978C365.556 495.833 365.043 495.82 364.563 495.94C364.089 496.062 363.676 496.314 363.323 496.696C362.977 497.074 362.718 497.573 362.545 498.192ZM378.465 517.543C377.155 517.192 376.079 516.713 375.238 516.104C374.402 515.503 373.79 514.825 373.403 514.069C373.015 513.313 372.841 512.534 372.879 511.731L376.753 512.234C376.791 512.554 376.898 512.871 377.078 513.189C377.257 513.506 377.53 513.794 377.894 514.053C378.264 514.32 378.743 514.532 379.332 514.69C380.211 514.926 380.993 514.907 381.677 514.633C382.366 514.367 382.843 513.738 383.108 512.747L383.817 510.104L383.646 510.058C383.361 510.412 382.993 510.72 382.543 510.983C382.093 511.245 381.559 511.415 380.942 511.491C380.324 511.568 379.63 511.503 378.857 511.296C377.762 511.002 376.833 510.484 376.068 509.742C375.312 508.995 374.807 508.029 374.555 506.845C374.31 505.657 374.402 504.263 374.831 502.664C375.269 501.027 375.905 499.732 376.737 498.778C377.569 497.825 378.504 497.195 379.543 496.888C380.588 496.583 381.645 496.574 382.715 496.861C383.531 497.079 384.178 497.4 384.655 497.824C385.133 498.241 385.485 498.699 385.711 499.196C385.946 499.69 386.103 500.155 386.182 500.593L386.333 500.634L386.984 498.206L391 499.282L387.09 513.875C386.761 515.104 386.182 516.051 385.352 516.716C384.522 517.382 383.515 517.777 382.328 517.903C381.145 518.036 379.858 517.917 378.465 517.543ZM380.945 508.628C381.598 508.803 382.191 508.791 382.726 508.591C383.269 508.387 383.742 508.016 384.144 507.479C384.553 506.936 384.872 506.242 385.099 505.395C385.326 504.548 385.402 503.782 385.328 503.097C385.255 502.405 385.038 501.826 384.674 501.359C384.311 500.892 383.803 500.571 383.151 500.396C382.487 500.218 381.879 500.247 381.327 500.482C380.778 500.711 380.302 501.108 379.899 501.672C379.497 502.237 379.186 502.93 378.965 503.752C378.742 504.586 378.666 505.339 378.737 506.01C378.816 506.676 379.036 507.236 379.396 507.689C379.765 508.137 380.281 508.45 380.945 508.628ZM412.506 509.462L408.742 508.695C408.763 508.365 408.702 508.046 408.561 507.739C408.421 507.426 408.2 507.148 407.898 506.906C407.605 506.659 407.224 506.473 406.756 506.348C406.129 506.18 405.566 506.17 405.065 506.318C404.565 506.46 404.258 506.747 404.142 507.18C404.049 507.525 404.11 507.854 404.325 508.167C404.539 508.48 404.966 508.799 405.605 509.125L408.103 510.359C409.443 511.028 410.376 511.775 410.9 512.601C411.426 513.428 411.548 514.361 411.269 515.402C411.015 516.349 410.511 517.105 409.757 517.669C409.008 518.235 408.093 518.588 407.01 518.728C405.936 518.864 404.766 518.762 403.5 518.423C401.569 517.906 400.138 517.095 399.206 515.992C398.282 514.884 397.906 513.613 398.08 512.181L402.113 513.04C402.077 513.655 402.249 514.179 402.629 514.61C403.01 515.035 403.562 515.344 404.283 515.537C404.992 515.727 405.598 515.745 406.1 515.59C406.611 515.432 406.928 515.137 407.05 514.706C407.141 514.34 407.066 514.001 406.824 513.687C406.584 513.367 406.165 513.06 405.565 512.765L403.173 511.589C401.825 510.926 400.896 510.152 400.387 509.27C399.883 508.389 399.776 507.409 400.065 506.33C400.314 505.401 400.781 504.67 401.467 504.134C402.16 503.6 403.017 503.276 404.039 503.159C405.066 503.045 406.204 503.155 407.451 503.489C409.292 503.982 410.638 504.756 411.489 505.811C412.346 506.867 412.684 508.084 412.506 509.462ZM419.664 522.754C418.19 522.359 416.997 521.707 416.087 520.798C415.186 519.884 414.593 518.791 414.31 517.518C414.03 516.24 414.087 514.86 414.483 513.38C414.883 511.887 415.525 510.66 416.405 509.7C417.288 508.733 418.348 508.083 419.584 507.748C420.828 507.409 422.188 507.438 423.663 507.833C425.137 508.228 426.326 508.882 427.227 509.796C428.137 510.705 428.732 511.799 429.013 513.078C429.297 514.351 429.239 515.733 428.839 517.226C428.442 518.706 427.802 519.93 426.919 520.896C426.037 521.857 424.975 522.507 423.73 522.845C422.495 523.18 421.139 523.149 419.664 522.754ZM420.515 519.655C421.186 519.834 421.797 519.796 422.347 519.54C422.899 519.278 423.377 518.848 423.781 518.251C424.192 517.655 424.51 516.937 424.735 516.096C424.96 515.256 425.044 514.475 424.986 513.754C424.935 513.034 424.736 512.423 424.389 511.92C424.042 511.417 423.533 511.075 422.863 510.896C422.185 510.714 421.564 510.753 420.999 511.011C420.441 511.272 419.957 511.7 419.547 512.296C419.142 512.894 418.827 513.612 418.602 514.453C418.376 515.293 418.29 516.074 418.342 516.793C418.399 517.515 418.605 518.128 418.957 518.632C419.319 519.132 419.838 519.473 420.515 519.655ZM436.595 527.291C435.121 526.896 433.928 526.244 433.018 525.334C432.117 524.42 431.524 523.327 431.241 522.055C430.961 520.776 431.018 519.397 431.414 517.916C431.814 516.424 432.456 515.197 433.336 514.236C434.219 513.27 435.279 512.619 436.515 512.285C437.759 511.946 439.119 511.974 440.594 512.369C442.068 512.764 443.257 513.419 444.158 514.333C445.068 515.242 445.663 516.336 445.944 517.615C446.228 518.887 446.17 520.27 445.77 521.763C445.373 523.243 444.733 524.466 443.85 525.433C442.968 526.394 441.906 527.043 440.661 527.382C439.426 527.717 438.07 527.686 436.595 527.291ZM437.447 524.191C438.117 524.371 438.728 524.333 439.278 524.077C439.83 523.815 440.308 523.385 440.712 522.787C441.123 522.192 441.441 521.473 441.666 520.633C441.891 519.792 441.975 519.012 441.917 518.29C441.866 517.571 441.667 516.959 441.32 516.456C440.973 515.953 440.464 515.612 439.794 515.432C439.116 515.251 438.495 515.289 437.93 515.548C437.373 515.809 436.888 516.237 436.478 516.833C436.073 517.43 435.758 518.149 435.533 518.989C435.307 519.83 435.221 520.61 435.273 521.33C435.33 522.051 435.536 522.664 435.888 523.169C436.25 523.669 436.769 524.01 437.447 524.191ZM453.296 522.509L451.057 530.863L447.014 529.78L450.886 515.329L454.74 516.361L454.057 518.911L454.228 518.957C454.776 518.203 455.495 517.683 456.386 517.397C457.278 517.105 458.265 517.104 459.348 517.394C460.36 517.666 461.185 518.122 461.82 518.763C462.456 519.404 462.873 520.188 463.072 521.115C463.273 522.036 463.223 523.058 462.922 524.181L460.456 533.382L456.413 532.298L458.687 523.812C458.929 522.929 458.886 522.178 458.557 521.559C458.229 520.933 457.661 520.512 456.85 520.295C456.306 520.149 455.794 520.136 455.314 520.256C454.841 520.378 454.427 520.63 454.074 521.013C453.728 521.391 453.469 521.89 453.296 522.509Z" fill="white"/>
<path d="M484.026 540C482.532 539.6 481.331 538.942 480.424 538.027C479.523 537.107 478.936 536.008 478.661 534.731C478.392 533.456 478.453 532.087 478.845 530.626C479.242 529.145 479.878 527.924 480.752 526.962C481.636 525.995 482.696 525.342 483.934 525.001C485.174 524.655 486.53 524.678 488.005 525.074C489.277 525.415 490.331 525.942 491.163 526.656C491.996 527.37 492.581 528.216 492.915 529.193C493.251 530.17 493.297 531.224 493.055 532.356L489.238 531.333C489.324 530.583 489.195 529.927 488.851 529.364C488.514 528.796 487.975 528.413 487.235 528.215C486.608 528.047 486.016 528.07 485.456 528.283C484.905 528.492 484.414 528.881 483.983 529.451C483.552 530.022 483.215 530.761 482.971 531.671C482.724 532.593 482.64 533.411 482.721 534.125C482.807 534.84 483.039 535.43 483.417 535.894C483.795 536.359 484.297 536.675 484.923 536.843C485.385 536.966 485.825 536.983 486.243 536.894C486.667 536.806 487.046 536.615 487.383 536.322C487.727 536.024 488.006 535.632 488.217 535.144L492.034 536.167C491.675 537.253 491.11 538.144 490.341 538.839C489.58 539.529 488.661 539.982 487.585 540.198C486.51 540.414 485.323 540.348 484.026 540ZM500.252 544.348C498.777 543.953 497.585 543.301 496.676 542.392C495.774 541.478 495.182 540.385 494.899 539.112C494.617 537.833 494.675 536.454 495.072 534.974C495.472 533.481 496.112 532.254 496.993 531.294C497.877 530.327 498.937 529.677 500.172 529.342C501.416 529.003 502.775 529.031 504.25 529.426C505.726 529.822 506.913 530.476 507.815 531.39C508.724 532.299 509.32 533.393 509.602 534.672C509.885 535.945 509.826 537.327 509.426 538.82C509.029 540.3 508.39 541.524 507.507 542.49C506.625 543.451 505.562 544.1 504.319 544.44C503.082 544.774 501.727 544.743 500.252 544.348ZM501.103 541.249C501.774 541.428 502.385 541.39 502.935 541.134C503.486 540.872 503.965 540.442 504.369 539.845C504.78 539.249 505.098 538.531 505.323 537.69C505.548 536.85 505.632 536.069 505.574 535.347C505.523 534.628 505.323 534.017 504.977 533.514C504.63 533.011 504.121 532.669 503.45 532.489C502.773 532.308 502.152 532.347 501.588 532.605C501.029 532.866 500.544 533.294 500.134 533.89C499.729 534.487 499.415 535.206 499.19 536.047C498.965 536.887 498.877 537.667 498.929 538.387C498.986 539.108 499.192 539.721 499.546 540.226C499.907 540.726 500.426 541.067 501.103 541.249ZM510.67 546.837L514.542 532.386L518.397 533.419L517.714 535.968L517.884 536.014C518.415 535.249 519.101 534.717 519.94 534.417C520.781 534.118 521.694 534.101 522.682 534.365C523.682 534.633 524.467 535.109 525.037 535.793C525.608 536.47 525.898 537.261 525.907 538.164L526.059 538.204C526.578 537.456 527.293 536.939 528.205 536.652C529.125 536.36 530.118 536.358 531.189 536.645C532.549 537.009 533.538 537.735 534.157 538.821C534.782 539.903 534.885 541.228 534.465 542.796L531.861 552.515L527.826 551.434L530.218 542.505C530.433 541.703 530.38 541.043 530.056 540.526C529.734 540.009 529.249 539.664 528.604 539.492C527.87 539.295 527.235 539.373 526.699 539.727C526.165 540.075 525.797 540.625 525.595 541.378L523.231 550.203L519.31 549.152L521.725 540.139C521.915 539.43 521.86 538.811 521.561 538.28C521.268 537.751 520.79 537.398 520.126 537.22C519.676 537.099 519.241 537.104 518.819 537.233C518.406 537.357 518.042 537.592 517.725 537.938C517.41 538.277 517.182 538.713 517.039 539.246L514.714 547.921L510.67 546.837ZM535.591 553.515L539.463 539.063L543.507 540.147L539.634 554.598L535.591 553.515ZM541.993 537.745C541.392 537.584 540.929 537.248 540.605 536.737C540.289 536.222 540.205 535.686 540.355 535.128C540.502 534.576 540.842 534.159 541.371 533.877C541.909 533.591 542.479 533.529 543.08 533.69C543.681 533.851 544.14 534.189 544.456 534.704C544.781 535.214 544.87 535.746 544.722 536.298C544.572 536.856 544.228 537.278 543.69 537.564C543.161 537.846 542.595 537.906 541.993 537.745ZM549.692 548.339L547.454 556.693L543.409 555.61L547.281 541.158L551.136 542.191L550.453 544.741L550.624 544.787C551.172 544.033 551.892 543.513 552.782 543.227C553.674 542.935 554.661 542.934 555.743 543.224C556.757 543.496 557.58 543.952 558.216 544.592C558.851 545.233 559.269 546.017 559.468 546.945C559.669 547.866 559.619 548.888 559.318 550.01L556.853 559.212L552.808 558.128L555.082 549.642C555.326 548.759 555.283 548.008 554.953 547.389C554.626 546.763 554.057 546.342 553.247 546.125C552.703 545.979 552.191 545.966 551.711 546.086C551.237 546.208 550.823 546.46 550.47 546.843C550.124 547.221 549.865 547.72 549.692 548.339ZM565.612 567.69C564.302 567.339 563.227 566.859 562.386 566.251C561.549 565.65 560.938 564.972 560.55 564.216C560.162 563.46 559.988 562.68 560.027 561.877L563.901 562.381C563.938 562.7 564.045 563.018 564.225 563.335C564.405 563.652 564.678 563.94 565.042 564.199C565.411 564.466 565.89 564.679 566.479 564.836C567.359 565.072 568.14 565.053 568.824 564.779C569.514 564.513 569.99 563.885 570.256 562.894L570.964 560.25L570.794 560.204C570.509 560.558 570.141 560.866 569.691 561.129C569.241 561.392 568.706 561.561 568.089 561.638C567.472 561.714 566.777 561.649 566.004 561.442C564.91 561.149 563.98 560.631 563.216 559.888C562.46 559.141 561.954 558.175 561.702 556.992C561.457 555.804 561.55 554.41 561.978 552.81C562.417 551.173 563.052 549.878 563.884 548.925C564.716 547.971 565.652 547.341 566.69 547.035C567.736 546.73 568.793 546.721 569.862 547.007C570.678 547.226 571.325 547.547 571.802 547.971C572.281 548.388 572.633 548.845 572.859 549.343C573.094 549.836 573.25 550.301 573.33 550.74L573.481 550.78L574.131 548.353L578.147 549.429L574.237 564.021C573.908 565.251 573.329 566.198 572.499 566.863C571.67 567.528 570.662 567.924 569.475 568.049C568.292 568.183 567.005 568.063 565.612 567.69ZM568.093 558.775C568.745 558.95 569.339 558.937 569.874 558.738C570.416 558.534 570.889 558.163 571.291 557.625C571.701 557.083 572.019 556.388 572.246 555.542C572.473 554.695 572.549 553.929 572.475 553.243C572.403 552.552 572.185 551.972 571.822 551.505C571.459 551.038 570.951 550.717 570.298 550.543C569.634 550.365 569.027 550.393 568.475 550.629C567.925 550.858 567.449 551.255 567.046 551.819C566.644 552.383 566.333 553.077 566.113 553.898C565.889 554.732 565.813 555.485 565.884 556.156C565.963 556.823 566.183 557.383 566.544 557.835C566.912 558.284 567.428 558.597 568.093 558.775ZM599.653 559.608L595.89 558.842C595.91 558.511 595.85 558.192 595.708 557.885C595.568 557.572 595.348 557.295 595.046 557.052C594.753 556.806 594.372 556.62 593.903 556.494C593.276 556.326 592.713 556.317 592.212 556.465C591.712 556.606 591.405 556.894 591.289 557.327C591.197 557.672 591.257 558 591.472 558.313C591.687 558.626 592.113 558.946 592.752 559.272L595.25 560.506C596.591 561.174 597.523 561.921 598.048 562.748C598.573 563.574 598.696 564.508 598.417 565.549C598.163 566.496 597.659 567.252 596.904 567.816C596.155 568.381 595.24 568.735 594.158 568.875C593.083 569.011 591.914 568.909 590.648 568.57C588.717 568.052 587.286 567.242 586.354 566.138C585.429 565.03 585.054 563.76 585.227 562.327L589.261 563.186C589.225 563.802 589.397 564.325 589.776 564.756C590.158 565.181 590.709 565.49 591.431 565.684C592.139 565.874 592.745 565.891 593.248 565.737C593.759 565.578 594.075 565.283 594.198 564.852C594.289 564.486 594.214 564.147 593.972 563.834C593.732 563.514 593.312 563.206 592.713 562.911L590.321 561.736C588.973 561.072 588.044 560.299 587.534 559.416C587.031 558.535 586.923 557.555 587.212 556.476C587.461 555.548 587.929 554.816 588.615 554.281C589.308 553.747 590.165 553.422 591.186 553.306C592.214 553.191 593.351 553.301 594.598 553.635C596.44 554.129 597.786 554.903 598.636 555.957C599.493 557.014 599.831 558.231 599.653 559.608ZM606.812 572.901C605.337 572.506 604.145 571.853 603.235 570.944C602.334 570.03 601.741 568.937 601.458 567.665C601.177 566.386 601.234 565.006 601.631 563.526C602.031 562.033 602.672 560.807 603.553 559.846C604.436 558.88 605.496 558.229 606.732 557.895C607.976 557.556 609.335 557.584 610.81 557.979C612.285 558.374 613.473 559.029 614.374 559.943C615.284 560.852 615.879 561.946 616.161 563.225C616.444 564.497 616.386 565.88 615.986 567.373C615.589 568.853 614.949 570.076 614.066 571.043C613.184 572.003 612.122 572.653 610.878 572.992C609.642 573.326 608.286 573.296 606.812 572.901ZM607.663 569.801C608.334 569.981 608.944 569.943 609.494 569.687C610.046 569.425 610.524 568.995 610.929 568.397C611.339 567.801 611.657 567.083 611.882 566.243C612.107 565.402 612.191 564.621 612.134 563.9C612.082 563.18 611.883 562.569 611.536 562.066C611.189 561.563 610.681 561.222 610.01 561.042C609.332 560.86 608.711 560.899 608.147 561.158C607.589 561.418 607.104 561.847 606.694 562.443C606.289 563.04 605.974 563.759 605.749 564.599C605.524 565.44 605.437 566.22 605.489 566.94C605.546 567.661 605.752 568.274 606.105 568.779C606.466 569.279 606.985 569.62 607.663 569.801ZM623.743 577.437C622.268 577.042 621.076 576.39 620.166 575.481C619.265 574.567 618.672 573.474 618.389 572.201C618.108 570.923 618.165 569.543 618.562 568.063C618.962 566.57 619.603 565.343 620.484 564.383C621.367 563.416 622.427 562.766 623.663 562.431C624.907 562.092 626.267 562.121 627.741 562.516C629.216 562.911 630.404 563.565 631.306 564.479C632.215 565.388 632.81 566.482 633.092 567.761C633.375 569.034 633.317 570.416 632.917 571.909C632.52 573.39 631.88 574.613 630.997 575.58C630.116 576.54 629.053 577.19 627.809 577.529C626.573 577.863 625.218 577.833 623.743 577.437ZM624.594 574.338C625.265 574.518 625.875 574.479 626.425 574.224C626.977 573.961 627.455 573.531 627.86 572.934C628.27 572.338 628.588 571.62 628.813 570.779C629.038 569.939 629.122 569.158 629.065 568.437C629.013 567.717 628.814 567.106 628.467 566.603C628.12 566.1 627.612 565.758 626.941 565.579C626.263 565.397 625.642 565.436 625.078 565.694C624.52 565.955 624.035 566.383 623.625 566.979C623.221 567.577 622.905 568.296 622.68 569.136C622.455 569.976 622.368 570.757 622.42 571.476C622.478 572.198 622.683 572.811 623.036 573.315C623.397 573.815 623.916 574.156 624.594 574.338ZM640.443 572.655L638.205 581.01L634.161 579.926L638.033 565.475L641.887 566.508L641.204 569.058L641.375 569.103C641.923 568.349 642.643 567.83 643.533 567.544C644.425 567.252 645.412 567.251 646.495 567.541C647.508 567.812 648.332 568.268 648.967 568.909C649.603 569.55 650.02 570.334 650.219 571.261C650.42 572.182 650.37 573.204 650.069 574.327L647.604 583.528L643.56 582.445L645.834 573.959C646.077 573.076 646.034 572.325 645.704 571.705C645.377 571.08 644.808 570.659 643.998 570.441C643.454 570.296 642.942 570.283 642.462 570.403C641.988 570.525 641.574 570.777 641.221 571.16C640.875 571.537 640.616 572.036 640.443 572.655Z" fill="white"/>
</g>
<g clip-path="url(#clip2_3602_885)" filter="url(#filter0_d_3602_885)">
<path d="M682.593 353L-66 553.585L-53.5767 599.949L695.016 399.365L682.593 353Z" fill="#C03466"/>
<path d="M-42.3856 582.168C-43.8793 582.568 -45.2483 582.599 -46.4924 582.26C-47.7318 581.913 -48.7898 581.255 -49.6667 580.287C-50.5371 579.317 -51.1682 578.101 -51.5598 576.639C-51.9564 575.159 -52.0163 573.784 -51.7394 572.513C-51.458 571.234 -50.8664 570.138 -49.9648 569.224C-49.0649 568.304 -47.8776 567.646 -46.4028 567.251C-45.1306 566.91 -43.9553 566.841 -42.8768 567.042C-41.7984 567.244 -40.8698 567.684 -40.0909 568.363C-39.3122 569.042 -38.7446 569.932 -38.3886 571.033L-42.2052 572.056C-42.506 571.363 -42.9463 570.859 -43.5261 570.544C-44.1011 570.221 -44.7588 570.158 -45.4994 570.357C-46.126 570.525 -46.6281 570.841 -47.0058 571.305C-47.3787 571.761 -47.6093 572.344 -47.6974 573.053C-47.7855 573.763 -47.7077 574.572 -47.464 575.481C-47.2169 576.403 -46.8802 577.154 -46.4539 577.732C-46.0213 578.308 -45.5254 578.703 -44.9663 578.916C-44.4072 579.13 -43.8143 579.152 -43.1877 578.984C-42.7257 578.861 -42.3363 578.655 -42.0196 578.369C-41.6966 578.081 -41.4627 577.725 -41.318 577.303C-41.1686 576.874 -41.1241 576.394 -41.1842 575.866L-37.3676 574.843C-37.135 575.964 -37.1784 577.018 -37.4975 578.004C-37.812 578.983 -38.3809 579.834 -39.2042 580.559C-40.0276 581.284 -41.0881 581.82 -42.3856 582.168ZM-26.1595 577.82C-27.6342 578.215 -28.9928 578.246 -30.2352 577.914C-31.4729 577.573 -32.5326 576.923 -33.414 575.962C-34.2971 574.995 -34.937 573.772 -35.3337 572.292C-35.7336 570.799 -35.7921 569.416 -35.5089 568.144C-35.2275 566.865 -34.635 565.772 -33.7318 564.864C-32.8238 563.949 -31.6325 563.293 -30.1578 562.898C-28.683 562.503 -27.3267 562.476 -26.089 562.816C-24.8466 563.149 -23.7839 563.799 -22.9007 564.765C-22.0192 565.726 -21.3786 566.952 -20.9786 568.445C-20.5819 569.925 -20.5243 571.305 -20.8058 572.584C-21.0889 573.856 -21.6845 574.95 -22.5924 575.866C-23.4957 576.773 -24.6847 577.425 -26.1595 577.82ZM-26.9724 574.71C-26.3015 574.53 -25.7918 574.192 -25.4432 573.695C-25.0963 573.192 -24.8972 572.581 -24.8458 571.861C-24.7881 571.14 -24.8718 570.359 -25.097 569.518C-25.3222 568.678 -25.6402 567.96 -26.0509 567.364C-26.4552 566.767 -26.9333 566.337 -27.4852 566.074C-28.0371 565.812 -28.6485 565.771 -29.3194 565.951C-29.9966 566.132 -30.5151 566.476 -30.8746 566.983C-31.2278 567.487 -31.4332 568.1 -31.4909 568.822C-31.5424 569.541 -31.4554 570.321 -31.2302 571.162C-31.005 572.002 -30.6903 572.721 -30.2859 573.319C-29.8753 573.915 -29.3909 574.343 -28.8326 574.603C-28.2698 574.856 -27.6496 574.891 -26.9724 574.71ZM-15.8929 574.766L-19.7651 560.315L-15.9106 559.282L-15.2274 561.832L-15.0565 561.786C-14.9795 560.858 -14.6522 560.054 -14.0744 559.375C-13.4966 558.696 -12.714 558.224 -11.7266 557.96C-10.7265 557.692 -9.80886 557.711 -8.97353 558.019C-8.13988 558.319 -7.49338 558.859 -7.03397 559.637L-6.88208 559.596C-6.80641 558.688 -6.44574 557.882 -5.79993 557.178C-5.14954 556.466 -4.28954 555.967 -3.21987 555.68C-1.85904 555.316 -0.639412 555.449 0.438941 556.081C1.52196 556.705 2.27358 557.801 2.69375 559.37L5.2979 569.088L1.26294 570.17L-1.12946 561.241C-1.34458 560.438 -1.72115 559.894 -2.25914 559.608C-2.79707 559.321 -3.3889 559.265 -4.03447 559.438C-4.7687 559.635 -5.27932 560.02 -5.56635 560.595C-5.85503 561.163 -5.89856 561.823 -5.69688 562.576L-3.33222 571.401L-7.2533 572.451L-9.6684 563.438C-9.85829 562.729 -10.2152 562.22 -10.7393 561.91C-11.257 561.598 -11.8482 561.532 -12.5127 561.71C-12.9621 561.83 -13.3369 562.052 -13.6372 562.374C-13.9328 562.689 -14.1313 563.074 -14.2326 563.532C-14.3356 563.983 -14.3156 564.475 -14.1728 565.008L-11.8485 573.683L-15.8929 574.766ZM9.02742 568.089L5.15522 553.638L9.19971 552.554L13.0719 567.005L9.02742 568.089ZM6.6878 551.231C6.08651 551.392 5.51772 551.332 4.98139 551.052C4.44975 550.765 4.10915 550.342 3.95956 549.783C3.81165 549.231 3.89682 548.701 4.21503 548.192C4.53792 547.676 4.99995 547.337 5.60125 547.175C6.20254 547.014 6.76899 547.078 7.30063 547.366C7.83688 547.645 8.17897 548.061 8.32687 548.613C8.47646 549.171 8.3898 549.709 8.067 550.226C7.74879 550.734 7.2891 551.069 6.6878 551.231ZM18.6523 556.556L20.8909 564.91L16.8464 565.994L12.9743 551.543L16.8289 550.51L17.5121 553.059L17.6829 553.014C17.7806 552.087 18.1436 551.277 18.772 550.584C19.3988 549.885 20.2533 549.391 21.3356 549.101C22.3487 548.829 23.2897 548.812 24.161 549.049C25.0314 549.287 25.7851 549.757 26.4214 550.461C27.0559 551.158 27.5236 552.068 27.8245 553.19L30.2899 562.392L26.2454 563.475L23.9715 554.989C23.7412 554.103 23.3284 553.474 22.7335 553.102C22.137 552.724 21.4337 552.644 20.6235 552.861C20.0792 553.007 19.6293 553.252 19.2737 553.596C18.9245 553.938 18.6925 554.363 18.5776 554.871C18.4674 555.372 18.4923 555.933 18.6523 556.556ZM42.115 565.354C40.805 565.705 39.6334 565.828 38.601 565.721C37.5761 565.619 36.7073 565.338 35.9937 564.877C35.2801 564.416 34.7393 563.828 34.3714 563.113L37.9782 561.612C38.17 561.87 38.4219 562.092 38.7364 562.276C39.0501 562.461 39.4306 562.574 39.8753 562.617C40.3292 562.663 40.8498 562.608 41.4388 562.45C42.3186 562.214 42.9858 561.807 43.4413 561.227C43.9052 560.653 44.0035 559.87 43.738 558.879L43.0296 556.235L42.8592 556.281C42.7896 556.73 42.6248 557.181 42.3663 557.633C42.1079 558.086 41.7299 558.5 41.2339 558.874C40.7372 559.25 40.1032 559.54 39.3304 559.748C38.2359 560.041 37.172 560.057 36.1385 559.796C35.1101 559.527 34.1899 558.943 33.3795 558.045C32.5733 557.138 31.9564 555.885 31.5278 554.285C31.0892 552.648 30.9918 551.209 31.2357 549.967C31.4797 548.725 31.9747 547.712 32.7208 546.927C33.4735 546.141 34.3846 545.604 35.454 545.318C36.2703 545.099 36.9907 545.054 37.6161 545.182C38.2389 545.304 38.7725 545.524 39.2168 545.842C39.6669 546.152 40.0351 546.477 40.3231 546.816L40.4743 546.776L39.8239 544.348L43.8401 543.272L47.7501 557.865C48.0795 559.094 48.0518 560.204 47.6654 561.195C47.2799 562.185 46.6049 563.032 45.6398 563.734C44.6821 564.441 43.5078 564.981 42.115 565.354ZM39.8053 556.393C40.4578 556.219 40.9656 555.911 41.3293 555.471C41.6973 555.023 41.9213 554.465 42.0006 553.799C42.084 553.124 42.0127 552.363 41.7858 551.517C41.5589 550.67 41.242 549.968 40.835 549.412C40.4263 548.849 39.9485 548.456 39.3999 548.233C38.8521 548.01 38.252 547.986 37.5995 548.161C36.9353 548.339 36.4234 548.668 36.063 549.148C35.7018 549.621 35.4878 550.203 35.4211 550.893C35.3552 551.583 35.4324 552.338 35.6526 553.16C35.8761 553.994 36.1863 554.684 36.5833 555.23C36.9852 555.768 37.4555 556.142 37.9941 556.354C38.5376 556.558 39.1411 556.571 39.8053 556.393ZM67.5541 541.335L63.9118 542.553C63.7642 542.256 63.5524 542.01 63.2763 541.815C62.9985 541.614 62.669 541.484 62.2861 541.425C61.9091 541.358 61.4862 541.388 61.0175 541.513C60.3909 541.681 59.8982 541.954 59.5385 542.333C59.1763 542.706 59.054 543.108 59.17 543.541C59.2624 543.886 59.4792 544.14 59.8222 544.304C60.1642 544.468 60.6934 544.531 61.4096 544.494L64.1901 544.313C65.6852 544.222 66.8665 544.403 67.7339 544.856C68.6021 545.309 69.1748 546.057 69.4538 547.098C69.7076 548.045 69.6487 548.952 69.2772 549.817C68.9115 550.682 68.2958 551.445 67.4283 552.108C66.5659 552.762 65.5018 553.259 64.236 553.598C62.3052 554.116 60.6604 554.13 59.3015 553.64C57.9468 553.142 56.9868 552.23 56.4207 550.903L60.343 549.63C60.6196 550.181 61.0305 550.548 61.5749 550.732C62.1176 550.909 62.7495 550.901 63.4713 550.708C64.1798 550.518 64.7135 550.23 65.0715 549.845C65.4345 549.452 65.5609 549.038 65.4516 548.604C65.3475 548.242 65.1131 547.985 64.7468 547.835C64.3788 547.678 63.8622 547.621 63.1953 547.666L60.536 547.844C59.0367 547.943 57.8454 547.738 56.9629 547.228C56.0862 546.717 55.5034 545.922 55.2143 544.843C54.9656 543.915 55.0044 543.047 55.3309 542.24C55.6641 541.432 56.2439 540.722 57.0705 540.11C57.9029 539.497 58.9428 539.024 60.1902 538.69C62.0316 538.196 63.5845 538.193 64.8481 538.682C66.1184 539.168 67.0198 540.053 67.5541 541.335ZM80.4001 549.267C78.9255 549.662 77.5665 549.694 76.3241 549.361C75.0866 549.02 74.0267 548.37 73.1452 547.41C72.2629 546.443 71.6225 545.219 71.2259 543.739C70.8259 542.246 70.7679 540.864 71.0503 539.591C71.3317 538.313 71.9244 537.219 72.8275 536.312C73.7355 535.396 74.9273 534.741 76.4019 534.346C77.8765 533.951 79.233 533.923 80.4705 534.264C81.7129 534.596 82.7754 535.246 83.6585 536.213C84.54 537.173 85.1812 538.4 85.5812 539.893C85.9778 541.373 86.035 542.753 85.7534 544.031C85.4703 545.304 84.8751 546.398 83.967 547.313C83.064 548.221 81.8748 548.872 80.4001 549.267ZM79.5874 546.157C80.2583 545.978 80.7677 545.639 81.1163 545.143C81.4633 544.64 81.6622 544.028 81.7138 543.309C81.7713 542.587 81.6874 541.807 81.4622 540.966C81.237 540.126 80.9192 539.407 80.5088 538.811C80.1042 538.214 79.6264 537.784 79.0743 537.522C78.5223 537.26 77.9113 537.218 77.2404 537.398C76.5628 537.58 76.0443 537.924 75.6848 538.43C75.332 538.935 75.1264 539.548 75.0689 540.269C75.0173 540.989 75.1037 541.769 75.3289 542.609C75.5541 543.45 75.8694 544.169 76.274 544.766C76.6844 545.362 77.1689 545.79 77.7268 546.051C78.2896 546.303 78.9099 546.339 79.5874 546.157ZM97.3312 544.731C95.8566 545.126 94.4976 545.157 93.2551 544.824C92.0176 544.484 90.9577 543.833 90.0762 542.873C89.1939 541.906 88.5536 540.683 88.1569 539.202C87.757 537.71 87.699 536.327 87.9813 535.055C88.2628 533.776 88.8555 532.683 89.7585 531.775C90.6666 530.86 91.8583 530.204 93.3329 529.809C94.8076 529.414 96.164 529.387 97.4015 529.727C98.644 530.06 99.7064 530.71 100.59 531.676C101.471 532.637 102.112 533.863 102.512 535.356C102.909 536.836 102.966 538.216 102.685 539.495C102.401 540.767 101.806 541.861 100.898 542.777C99.9951 543.684 98.8058 544.335 97.3312 544.731ZM96.5185 541.621C97.1894 541.441 97.6987 541.103 98.0474 540.606C98.3944 540.103 98.5932 539.492 98.6449 538.772C98.7023 538.051 98.6185 537.27 98.3932 536.429C98.1681 535.589 97.8502 534.871 97.4398 534.275C97.0353 533.677 96.5574 533.247 96.0054 532.985C95.4534 532.723 94.8424 532.682 94.1715 532.862C93.4939 533.043 92.9754 533.387 92.6158 533.893C92.2631 534.398 92.0575 535.011 92 535.732C91.9484 536.452 92.0348 537.232 92.26 538.073C92.4852 538.913 92.8005 539.632 93.205 540.23C93.6154 540.826 94.1 541.254 94.6578 541.514C95.2207 541.767 95.8409 541.802 96.5185 541.621ZM109.403 532.239L111.642 540.594L107.598 541.677L103.726 527.226L107.58 526.193L108.263 528.743L108.434 528.697C108.532 527.77 108.895 526.96 109.523 526.267C110.15 525.568 111.004 525.074 112.087 524.784C113.1 524.512 114.042 524.495 114.912 524.733C115.783 524.97 116.536 525.44 117.172 526.144C117.807 526.841 118.275 527.751 118.575 528.874L121.041 538.075L116.997 539.159L114.723 530.672C114.492 529.786 114.079 529.158 113.484 528.786C112.888 528.408 112.185 528.327 111.374 528.544C110.831 528.69 110.38 528.935 110.025 529.279C109.676 529.621 109.443 530.047 109.329 530.555C109.218 531.055 109.243 531.616 109.403 532.239Z" fill="white"/>
<path d="M144.762 532.022C143.268 532.422 141.899 532.453 140.656 532.114C139.416 531.767 138.358 531.11 137.481 530.141C136.61 529.171 135.979 527.955 135.588 526.494C135.191 525.014 135.131 523.638 135.408 522.367C135.689 521.089 136.281 519.992 137.183 519.078C138.083 518.158 139.27 517.501 140.744 517.106C142.017 516.765 143.193 516.695 144.27 516.897C145.349 517.099 146.278 517.539 147.056 518.218C147.836 518.896 148.403 519.786 148.759 520.887L144.942 521.91C144.642 521.217 144.202 520.714 143.622 520.398C143.046 520.075 142.389 520.013 141.648 520.211C141.022 520.379 140.52 520.695 140.142 521.159C139.769 521.616 139.538 522.198 139.451 522.908C139.362 523.617 139.44 524.426 139.684 525.336C139.931 526.258 140.267 527.008 140.694 527.586C141.126 528.163 141.622 528.558 142.181 528.771C142.741 528.984 143.333 529.007 143.96 528.839C144.422 528.715 144.811 528.51 145.128 528.223C145.451 527.935 145.685 527.58 145.83 527.158C145.979 526.728 146.024 526.249 145.963 525.721L149.78 524.698C150.013 525.819 149.969 526.872 149.65 527.859C149.336 528.837 148.767 529.688 147.943 530.413C147.12 531.138 146.059 531.674 144.762 532.022ZM160.988 527.674C159.513 528.069 158.155 528.101 156.913 527.768C155.675 527.427 154.615 526.777 153.734 525.816C152.851 524.85 152.211 523.626 151.814 522.146C151.414 520.653 151.356 519.271 151.639 517.998C151.92 516.719 152.513 515.626 153.416 514.719C154.324 513.803 155.515 513.148 156.99 512.753C158.465 512.357 159.821 512.33 161.059 512.671C162.301 513.003 163.364 513.653 164.247 514.62C165.129 515.58 165.769 516.807 166.169 518.3C166.565 519.78 166.624 521.159 166.342 522.438C166.059 523.711 165.463 524.805 164.556 525.72C163.652 526.628 162.463 527.279 160.988 527.674ZM160.175 524.564C160.846 524.385 161.356 524.046 161.705 523.55C162.051 523.047 162.251 522.435 162.302 521.716C162.36 520.994 162.276 520.213 162.051 519.373C161.826 518.532 161.508 517.814 161.096 517.219C160.693 516.621 160.214 516.191 159.663 515.929C159.111 515.667 158.499 515.626 157.828 515.805C157.151 515.987 156.633 516.331 156.273 516.837C155.92 517.342 155.714 517.955 155.657 518.676C155.605 519.396 155.692 520.176 155.917 521.016C156.143 521.857 156.457 522.576 156.862 523.173C157.272 523.769 157.757 524.197 158.315 524.458C158.878 524.71 159.498 524.746 160.175 524.564ZM171.255 524.621L167.382 510.17L171.237 509.137L171.921 511.686L172.091 511.641C172.168 510.712 172.496 509.909 173.073 509.23C173.651 508.55 174.434 508.079 175.421 507.814C176.421 507.546 177.339 507.566 178.174 507.873C179.008 508.174 179.654 508.713 180.114 509.491L180.265 509.45C180.341 508.543 180.702 507.737 181.348 507.033C181.998 506.32 182.858 505.821 183.928 505.535C185.288 505.17 186.508 505.304 187.587 505.936C188.669 506.56 189.422 507.656 189.842 509.224L192.446 518.943L188.41 520.024L186.018 511.095C185.803 510.293 185.427 509.748 184.888 509.462C184.35 509.176 183.759 509.119 183.114 509.292C182.379 509.489 181.868 509.875 181.581 510.449C181.292 511.017 181.249 511.678 181.451 512.43L183.815 521.255L179.894 522.306L177.479 513.293C177.289 512.584 176.933 512.074 176.408 511.765C175.89 511.453 175.299 511.386 174.635 511.564C174.186 511.684 173.811 511.906 173.51 512.228C173.215 512.543 173.016 512.929 172.915 513.386C172.812 513.837 172.832 514.329 172.975 514.863L175.299 523.537L171.255 524.621ZM196.175 517.943L192.303 503.492L196.347 502.409L200.219 516.86L196.175 517.943ZM193.835 501.085C193.234 501.246 192.665 501.187 192.129 500.907C191.598 500.619 191.257 500.196 191.107 499.638C190.96 499.086 191.045 498.555 191.363 498.047C191.685 497.53 192.148 497.191 192.749 497.03C193.35 496.869 193.917 496.932 194.448 497.22C194.984 497.5 195.327 497.916 195.475 498.468C195.624 499.026 195.537 499.563 195.214 500.08C194.897 500.589 194.437 500.924 193.835 501.085ZM205.8 506.41L208.038 514.765L203.994 515.848L200.122 501.397L203.977 500.364L204.66 502.914L204.83 502.868C204.928 501.941 205.292 501.131 205.92 500.438C206.547 499.739 207.401 499.245 208.483 498.955C209.496 498.684 210.437 498.667 211.309 498.904C212.179 499.141 212.933 499.611 213.569 500.315C214.204 501.012 214.671 501.922 214.972 503.045L217.438 512.246L213.393 513.33L211.119 504.844C210.889 503.957 210.476 503.329 209.881 502.957C209.285 502.579 208.582 502.498 207.771 502.715C207.227 502.861 206.777 503.106 206.422 503.45C206.072 503.793 205.84 504.218 205.726 504.726C205.615 505.226 205.64 505.787 205.8 506.41ZM229.263 515.209C227.953 515.56 226.781 515.682 225.749 515.575C224.724 515.474 223.855 515.192 223.141 514.731C222.428 514.27 221.887 513.682 221.519 512.968L225.126 511.467C225.318 511.725 225.57 511.946 225.884 512.131C226.198 512.316 226.578 512.429 227.023 512.471C227.477 512.517 227.998 512.462 228.587 512.304C229.466 512.068 230.133 511.661 230.589 511.082C231.053 510.507 231.151 509.725 230.886 508.734L230.177 506.09L230.007 506.135C229.937 506.584 229.772 507.035 229.514 507.488C229.256 507.94 228.878 508.354 228.382 508.729C227.885 509.104 227.251 509.395 226.478 509.602C225.384 509.895 224.32 509.911 223.286 509.651C222.258 509.382 221.338 508.798 220.527 507.899C219.721 506.992 219.104 505.739 218.675 504.14C218.237 502.503 218.139 501.063 218.383 499.822C218.627 498.58 219.122 497.566 219.868 496.782C220.621 495.995 221.532 495.459 222.602 495.172C223.418 494.953 224.138 494.908 224.764 495.036C225.387 495.159 225.92 495.379 226.364 495.697C226.815 496.006 227.183 496.331 227.471 496.671L227.622 496.63L226.972 494.203L230.988 493.127L234.898 507.719C235.227 508.948 235.2 510.058 234.813 511.049C234.428 512.04 233.753 512.886 232.787 513.589C231.83 514.296 230.655 514.835 229.263 515.209ZM226.953 506.248C227.606 506.073 228.113 505.766 228.477 505.325C228.845 504.877 229.069 504.32 229.148 503.653C229.232 502.978 229.16 502.218 228.934 501.371C228.707 500.524 228.39 499.823 227.983 499.266C227.574 498.703 227.096 498.31 226.548 498.088C226 497.865 225.4 497.841 224.747 498.016C224.083 498.194 223.571 498.522 223.211 499.002C222.849 499.475 222.636 500.057 222.569 500.747C222.503 501.437 222.58 502.193 222.8 503.014C223.024 503.849 223.334 504.539 223.731 505.084C224.133 505.622 224.603 505.997 225.142 506.209C225.685 506.413 226.289 506.426 226.953 506.248ZM254.702 491.189L251.059 492.407C250.912 492.111 250.7 491.865 250.424 491.67C250.146 491.469 249.817 491.339 249.434 491.28C249.057 491.213 248.634 491.242 248.165 491.368C247.539 491.536 247.046 491.809 246.686 492.187C246.324 492.56 246.202 492.963 246.318 493.395C246.41 493.74 246.627 493.995 246.97 494.158C247.312 494.322 247.841 494.385 248.557 494.348L251.338 494.168C252.833 494.076 254.014 494.257 254.882 494.711C255.75 495.164 256.323 495.911 256.601 496.952C256.855 497.899 256.796 498.806 256.425 499.672C256.059 500.536 255.444 501.3 254.576 501.962C253.714 502.617 252.649 503.114 251.384 503.453C249.453 503.97 247.808 503.984 246.449 503.494C245.094 502.997 244.134 502.084 243.568 500.757L247.491 499.484C247.767 500.035 248.178 500.403 248.723 500.586C249.265 500.763 249.897 500.755 250.619 500.562C251.327 500.372 251.861 500.085 252.219 499.7C252.582 499.307 252.709 498.893 252.599 498.458C252.495 498.096 252.261 497.84 251.894 497.689C251.526 497.532 251.01 497.476 250.343 497.52L247.684 497.698C246.184 497.797 244.993 497.592 244.111 497.083C243.234 496.571 242.651 495.776 242.362 494.697C242.113 493.769 242.152 492.902 242.479 492.095C242.812 491.286 243.392 490.576 244.218 489.965C245.051 489.352 246.09 488.878 247.338 488.544C249.179 488.051 250.732 488.048 251.996 488.536C253.266 489.023 254.168 489.907 254.702 491.189ZM267.548 499.122C266.073 499.517 264.714 499.548 263.472 499.216C262.234 498.875 261.174 498.224 260.293 497.264C259.411 496.297 258.77 495.074 258.374 493.594C257.974 492.101 257.916 490.718 258.198 489.446C258.479 488.167 259.072 487.074 259.975 486.166C260.883 485.251 262.075 484.595 263.55 484.2C265.024 483.805 266.381 483.778 267.618 484.118C268.861 484.451 269.923 485.101 270.806 486.067C271.688 487.028 272.329 488.254 272.729 489.747C273.125 491.227 273.183 492.607 272.901 493.886C272.618 495.158 272.023 496.252 271.115 497.168C270.212 498.075 269.022 498.727 267.548 499.122ZM266.735 496.012C267.406 495.832 267.915 495.494 268.264 494.997C268.611 494.494 268.81 493.883 268.861 493.163C268.919 492.442 268.835 491.661 268.61 490.82C268.385 489.98 268.067 489.262 267.656 488.666C267.252 488.068 266.774 487.639 266.222 487.376C265.67 487.114 265.059 487.073 264.388 487.253C263.711 487.434 263.192 487.778 262.832 488.285C262.48 488.789 262.274 489.402 262.217 490.123C262.165 490.843 262.251 491.623 262.477 492.464C262.702 493.304 263.017 494.023 263.422 494.621C263.832 495.217 264.317 495.645 264.874 495.905C265.437 496.158 266.058 496.193 266.735 496.012ZM284.479 494.585C283.004 494.98 281.645 495.012 280.403 494.679C279.165 494.338 278.105 493.688 277.224 492.727C276.342 491.761 275.701 490.537 275.305 489.057C274.905 487.564 274.847 486.181 275.129 484.909C275.411 483.63 276.003 482.537 276.906 481.629C277.814 480.714 279.006 480.059 280.481 479.663C281.955 479.268 283.312 479.241 284.549 479.582C285.792 479.914 286.854 480.564 287.737 481.531C288.619 482.491 289.26 483.718 289.66 485.21C290.057 486.691 290.114 488.07 289.832 489.349C289.549 490.622 288.954 491.715 288.046 492.631C287.143 493.539 285.953 494.19 284.479 494.585ZM283.666 491.475C284.337 491.295 284.846 490.957 285.195 490.46C285.542 489.957 285.741 489.346 285.793 488.626C285.85 487.905 285.766 487.124 285.541 486.284C285.316 485.443 284.998 484.725 284.588 484.129C284.183 483.532 283.705 483.102 283.153 482.84C282.601 482.577 281.99 482.536 281.319 482.716C280.642 482.898 280.123 483.241 279.764 483.748C279.411 484.253 279.205 484.866 279.148 485.587C279.096 486.307 279.182 487.087 279.408 487.927C279.633 488.768 279.948 489.487 280.353 490.084C280.763 490.68 281.248 491.108 281.806 491.369C282.368 491.621 282.989 491.657 283.666 491.475ZM296.551 482.093L298.789 490.448L294.746 491.532L290.873 477.08L294.728 476.048L295.411 478.597L295.582 478.551C295.679 477.624 296.043 476.815 296.671 476.122C297.298 475.423 298.152 474.928 299.235 474.638C300.247 474.367 301.189 474.35 302.06 474.587C302.931 474.824 303.684 475.295 304.32 475.998C304.955 476.695 305.422 477.605 305.723 478.728L308.189 487.93L304.145 489.013L301.871 480.527C301.64 479.641 301.227 479.012 300.632 478.64C300.036 478.262 299.333 478.182 298.522 478.399C297.978 478.545 297.528 478.79 297.173 479.134C296.824 479.476 296.591 479.901 296.477 480.409C296.366 480.909 296.391 481.471 296.551 482.093Z" fill="white"/>
<path d="M331.91 481.876C330.417 482.276 329.048 482.307 327.804 481.967C326.564 481.621 325.506 480.963 324.629 479.995C323.759 479.025 323.128 477.809 322.736 476.347C322.34 474.867 322.28 473.492 322.556 472.221C322.838 470.942 323.43 469.846 324.331 468.932C325.232 468.012 326.418 467.354 327.893 466.959C329.165 466.618 330.341 466.548 331.419 466.75C332.497 466.952 333.427 467.392 334.205 468.071C334.984 468.75 335.551 469.64 335.908 470.741L332.091 471.764C331.79 471.071 331.35 470.567 330.77 470.252C330.195 469.929 329.537 469.866 328.797 470.065C328.17 470.233 327.668 470.549 327.29 471.013C326.917 471.469 326.687 472.052 326.599 472.761C326.511 473.47 326.589 474.28 326.832 475.189C327.08 476.111 327.416 476.862 327.842 477.44C328.275 478.016 328.77 478.411 329.33 478.624C329.889 478.837 330.482 478.86 331.108 478.692C331.57 478.568 331.96 478.363 332.277 478.077C332.6 477.788 332.833 477.433 332.978 477.011C333.127 476.582 333.173 476.102 333.112 475.574L336.929 474.551C337.161 475.672 337.118 476.726 336.799 477.712C336.484 478.69 335.916 479.542 335.092 480.267C334.269 480.992 333.208 481.528 331.91 481.876ZM348.136 477.528C346.662 477.923 345.304 477.954 344.061 477.622C342.824 477.281 341.764 476.63 340.882 475.67C339.999 474.703 339.36 473.48 338.963 471.999C338.563 470.507 338.504 469.124 338.787 467.852C339.069 466.573 339.661 465.48 340.564 464.572C341.473 463.657 342.663 463.001 344.138 462.606C345.614 462.211 346.969 462.184 348.207 462.524C349.449 462.857 350.512 463.507 351.396 464.473C352.277 465.434 352.917 466.66 353.317 468.153C353.714 469.633 353.772 471.013 353.49 472.292C353.207 473.564 352.611 474.658 351.704 475.574C350.8 476.481 349.612 477.133 348.136 477.528ZM347.324 474.418C347.994 474.238 348.505 473.9 348.853 473.403C349.199 472.9 349.399 472.289 349.45 471.569C349.508 470.848 349.424 470.067 349.199 469.226C348.974 468.386 348.656 467.668 348.245 467.072C347.841 466.474 347.363 466.045 346.811 465.782C346.259 465.52 345.647 465.479 344.977 465.659C344.3 465.84 343.781 466.184 343.422 466.69C343.068 467.195 342.863 467.808 342.805 468.53C342.753 469.249 342.841 470.029 343.066 470.87C343.291 471.71 343.606 472.429 344.01 473.027C344.421 473.623 344.905 474.051 345.464 474.311C346.027 474.564 346.647 474.599 347.324 474.418ZM358.403 474.474L354.531 460.023L358.386 458.99L359.069 461.54L359.239 461.494C359.317 460.566 359.644 459.762 360.221 459.083C360.8 458.404 361.582 457.932 362.57 457.668C363.57 457.4 364.487 457.419 365.323 457.726C366.157 458.027 366.803 458.567 367.263 459.344L367.414 459.304C367.489 458.396 367.85 457.59 368.496 456.886C369.147 456.174 370.006 455.675 371.077 455.388C372.437 455.024 373.656 455.157 374.735 455.789C375.818 456.413 376.57 457.509 376.99 459.077L379.594 468.796L375.559 469.878L373.166 460.949C372.951 460.146 372.575 459.601 372.037 459.316C371.499 459.029 370.907 458.973 370.262 459.146C369.528 459.343 369.017 459.728 368.73 460.302C368.441 460.871 368.397 461.531 368.599 462.284L370.964 471.109L367.043 472.159L364.628 463.146C364.438 462.437 364.081 461.928 363.557 461.618C363.039 461.306 362.448 461.24 361.784 461.418C361.334 461.538 360.959 461.759 360.659 462.082C360.363 462.396 360.165 462.782 360.064 463.24C359.961 463.691 359.981 464.183 360.123 464.716L362.448 473.391L358.403 474.474ZM383.324 467.797L379.452 453.346L383.495 452.262L387.368 466.713L383.324 467.797ZM380.984 450.939C380.383 451.1 379.814 451.04 379.277 450.76C378.746 450.473 378.406 450.05 378.256 449.491C378.108 448.939 378.193 448.409 378.511 447.9C378.834 447.384 379.296 447.044 379.897 446.884C380.499 446.722 381.065 446.786 381.597 447.074C382.133 447.353 382.475 447.769 382.623 448.321C382.773 448.879 382.686 449.417 382.363 449.934C382.045 450.442 381.585 450.777 380.984 450.939ZM392.948 456.264L395.187 464.618L391.142 465.702L387.27 451.251L391.125 450.218L391.808 452.767L391.979 452.722C392.077 451.795 392.44 450.985 393.068 450.292C393.695 449.593 394.549 449.099 395.631 448.809C396.645 448.537 397.586 448.52 398.457 448.757C399.328 448.995 400.081 449.465 400.718 450.168C401.352 450.866 401.82 451.776 402.121 452.898L404.586 462.1L400.542 463.183L398.268 454.697C398.037 453.811 397.624 453.182 397.03 452.81C396.433 452.432 395.73 452.352 394.92 452.569C394.376 452.715 393.926 452.96 393.57 453.304C393.22 453.646 392.989 454.071 392.874 454.579C392.764 455.079 392.789 455.641 392.948 456.264ZM416.411 465.062C415.101 465.413 413.929 465.536 412.897 465.429C411.872 465.327 411.003 465.046 410.29 464.585C409.576 464.124 409.035 463.536 408.668 462.821L412.274 461.32C412.466 461.578 412.718 461.8 413.033 461.984C413.346 462.169 413.727 462.282 414.171 462.325C414.625 462.371 415.146 462.315 415.735 462.158C416.615 461.922 417.282 461.515 417.737 460.935C418.201 460.361 418.3 459.578 418.034 458.587L417.326 455.943L417.155 455.989C417.086 456.438 416.921 456.889 416.662 457.341C416.404 457.794 416.026 458.208 415.53 458.582C415.033 458.957 414.399 459.248 413.627 459.455C412.532 459.749 411.468 459.765 410.435 459.504C409.406 459.235 408.486 458.651 407.676 457.753C406.869 456.846 406.253 455.593 405.824 453.993C405.385 452.356 405.288 450.917 405.532 449.675C405.776 448.433 406.271 447.42 407.017 446.635C407.77 445.849 408.681 445.312 409.75 445.026C410.566 444.807 411.287 444.762 411.912 444.89C412.535 445.012 413.069 445.232 413.513 445.55C413.963 445.86 414.331 446.185 414.619 446.524L414.77 446.484L414.12 444.056L418.136 442.98L422.046 457.573C422.376 458.802 422.348 459.912 421.962 460.903C421.576 461.893 420.901 462.74 419.936 463.442C418.978 464.149 417.804 464.689 416.411 465.062ZM414.101 456.101C414.754 455.927 415.262 455.619 415.625 455.179C415.993 454.731 416.217 454.173 416.297 453.506C416.38 452.832 416.309 452.071 416.082 451.225C415.855 450.378 415.538 449.676 415.131 449.12C414.722 448.557 414.245 448.164 413.696 447.941C413.148 447.718 412.548 447.694 411.896 447.869C411.231 448.047 410.72 448.376 410.359 448.856C409.998 449.329 409.784 449.91 409.717 450.601C409.651 451.291 409.729 452.046 409.949 452.868C410.172 453.702 410.482 454.392 410.879 454.938C411.281 455.476 411.752 455.85 412.29 456.062C412.834 456.266 413.437 456.279 414.101 456.101ZM441.85 441.043L438.208 442.261C438.06 441.964 437.849 441.718 437.572 441.523C437.295 441.322 436.965 441.192 436.582 441.133C436.205 441.066 435.782 441.096 435.314 441.221C434.687 441.389 434.194 441.662 433.835 442.041C433.472 442.414 433.35 442.816 433.466 443.249C433.559 443.594 433.775 443.848 434.118 444.012C434.46 444.176 434.99 444.239 435.706 444.202L438.486 444.021C439.981 443.93 441.163 444.111 442.03 444.564C442.898 445.017 443.471 445.765 443.75 446.806C444.004 447.753 443.945 448.659 443.573 449.525C443.208 450.39 442.592 451.153 441.724 451.816C440.862 452.47 439.798 452.967 438.532 453.306C436.601 453.824 434.957 453.838 433.598 453.348C432.243 452.85 431.283 451.938 430.717 450.611L434.639 449.338C434.916 449.889 435.327 450.256 435.871 450.44C436.414 450.617 437.046 450.609 437.767 450.416C438.476 450.226 439.01 449.938 439.368 449.553C439.731 449.16 439.857 448.746 439.748 448.312C439.644 447.95 439.409 447.693 439.043 447.543C438.675 447.386 438.158 447.329 437.491 447.374L434.832 447.552C433.333 447.651 432.142 447.446 431.259 446.936C430.382 446.425 429.799 445.63 429.51 444.551C429.262 443.623 429.301 442.755 429.627 441.948C429.96 441.14 430.54 440.43 431.367 439.818C432.199 439.205 433.239 438.732 434.486 438.397C436.328 437.904 437.881 437.901 439.144 438.39C440.414 438.876 441.316 439.761 441.85 441.043ZM454.696 448.975C453.222 449.37 451.863 449.402 450.62 449.069C449.383 448.728 448.323 448.078 447.441 447.118C446.559 446.151 445.919 444.927 445.522 443.447C445.122 441.954 445.064 440.571 445.346 439.299C445.628 438.02 446.221 436.927 447.124 436.02C448.032 435.104 449.223 434.449 450.698 434.054C452.173 433.658 453.529 433.631 454.767 433.972C456.009 434.304 457.072 434.954 457.955 435.921C458.836 436.881 459.477 438.108 459.877 439.601C460.274 441.081 460.331 442.46 460.05 443.739C459.766 445.012 459.171 446.106 458.263 447.021C457.36 447.929 456.171 448.58 454.696 448.975ZM453.884 445.865C454.554 445.686 455.064 445.347 455.412 444.851C455.759 444.348 455.958 443.736 456.01 443.017C456.067 442.295 455.984 441.514 455.758 440.674C455.533 439.834 455.215 439.115 454.805 438.519C454.4 437.922 453.922 437.492 453.37 437.23C452.818 436.968 452.207 436.926 451.537 437.106C450.859 437.288 450.34 437.632 449.981 438.138C449.628 438.643 449.423 439.256 449.365 439.977C449.313 440.697 449.4 441.477 449.625 442.317C449.85 443.158 450.166 443.877 450.57 444.474C450.981 445.07 451.465 445.498 452.023 445.759C452.586 446.011 453.206 446.047 453.884 445.865ZM471.627 444.439C470.153 444.834 468.794 444.865 467.551 444.532C466.314 444.192 465.254 443.541 464.372 442.581C463.49 441.614 462.85 440.391 462.453 438.91C462.053 437.418 461.995 436.035 462.277 434.763C462.559 433.484 463.152 432.391 464.055 431.483C464.963 430.568 466.154 429.912 467.629 429.517C469.104 429.122 470.46 429.094 471.698 429.435C472.94 429.768 474.003 430.418 474.886 431.384C475.767 432.345 476.408 433.571 476.808 435.064C477.205 436.544 477.262 437.924 476.981 439.203C476.697 440.475 476.102 441.569 475.194 442.485C474.291 443.392 473.102 444.043 471.627 444.439ZM470.815 441.329C471.486 441.149 471.995 440.811 472.344 440.314C472.69 439.811 472.889 439.2 472.941 438.48C472.998 437.759 472.915 436.978 472.689 436.137C472.464 435.297 472.146 434.579 471.736 433.983C471.331 433.385 470.854 432.955 470.302 432.693C469.75 432.431 469.139 432.39 468.468 432.569C467.79 432.751 467.271 433.095 466.912 433.601C466.559 434.106 466.354 434.719 466.296 435.44C466.245 436.16 466.331 436.94 466.556 437.781C466.781 438.621 467.097 439.34 467.501 439.938C467.912 440.533 468.396 440.962 468.954 441.222C469.517 441.475 470.137 441.51 470.815 441.329ZM483.699 431.947L485.938 440.302L481.894 441.385L478.022 426.934L481.876 425.901L482.559 428.451L482.73 428.405C482.828 427.478 483.191 426.668 483.819 425.975C484.446 425.276 485.3 424.782 486.383 424.492C487.396 424.22 488.338 424.203 489.208 424.441C490.079 424.678 490.832 425.148 491.468 425.852C492.103 426.549 492.571 427.459 492.872 428.582L495.337 437.783L491.293 438.867L489.019 430.38C488.788 429.494 488.375 428.865 487.781 428.494C487.184 428.116 486.481 428.035 485.671 428.252C485.127 428.398 484.677 428.643 484.321 428.987C483.972 429.329 483.74 429.755 483.625 430.263C483.515 430.763 483.54 431.324 483.699 431.947Z" fill="white"/>
<path d="M519.059 431.729C517.565 432.129 516.196 432.16 514.953 431.821C513.713 431.474 512.654 430.817 511.778 429.848C510.907 428.878 510.276 427.662 509.885 426.201C509.488 424.721 509.428 423.345 509.705 422.074C509.986 420.796 510.578 419.699 511.479 418.785C512.38 417.865 513.567 417.208 515.041 416.813C516.314 416.472 517.49 416.402 518.567 416.604C519.646 416.806 520.575 417.246 521.353 417.925C522.132 418.603 522.7 419.493 523.056 420.594L519.239 421.617C518.939 420.925 518.498 420.421 517.919 420.105C517.343 419.782 516.685 419.72 515.945 419.918C515.319 420.086 514.817 420.402 514.439 420.866C514.066 421.323 513.835 421.905 513.748 422.615C513.659 423.324 513.737 424.133 513.981 425.043C514.228 425.965 514.564 426.715 514.99 427.293C515.423 427.87 515.919 428.265 516.478 428.478C517.038 428.691 517.63 428.714 518.257 428.546C518.719 428.422 519.108 428.217 519.425 427.93C519.748 427.642 519.982 427.287 520.127 426.865C520.276 426.435 520.321 425.956 520.26 425.428L524.077 424.405C524.31 425.526 524.266 426.579 523.947 427.566C523.633 428.544 523.064 429.396 522.24 430.12C521.417 430.845 520.356 431.381 519.059 431.729ZM535.285 427.381C533.81 427.777 532.452 427.808 531.209 427.475C529.972 427.134 528.912 426.484 528.031 425.524C527.147 424.557 526.508 423.333 526.111 421.853C525.711 420.36 525.652 418.978 525.936 417.705C526.217 416.426 526.81 415.333 527.713 414.426C528.621 413.51 529.812 412.855 531.286 412.46C532.762 412.064 534.118 412.037 535.356 412.378C536.598 412.711 537.661 413.36 538.544 414.327C539.425 415.287 540.066 416.514 540.466 418.007C540.862 419.487 540.92 420.866 540.639 422.145C540.356 423.418 539.76 424.512 538.852 425.427C537.949 426.335 536.76 426.986 535.285 427.381ZM534.472 424.271C535.143 424.092 535.653 423.753 536.002 423.257C536.348 422.754 536.548 422.142 536.598 421.423C536.657 420.701 536.573 419.92 536.348 419.08C536.122 418.239 535.805 417.521 535.393 416.926C534.99 416.328 534.511 415.898 533.96 415.636C533.408 415.374 532.796 415.333 532.125 415.512C531.448 415.694 530.93 416.038 530.57 416.544C530.217 417.049 530.011 417.662 529.954 418.383C529.902 419.103 529.989 419.883 530.214 420.723C530.44 421.564 530.754 422.283 531.159 422.88C531.569 423.476 532.054 423.904 532.612 424.165C533.175 424.417 533.795 424.453 534.472 424.271ZM545.552 424.328L541.679 409.877L545.534 408.844L546.217 411.393L546.388 411.348C546.465 410.42 546.792 409.616 547.37 408.937C547.948 408.257 548.731 407.786 549.718 407.521C550.718 407.253 551.636 407.273 552.471 407.58C553.305 407.881 553.951 408.42 554.411 409.198L554.562 409.157C554.638 408.25 554.999 407.444 555.644 406.74C556.295 406.028 557.155 405.528 558.225 405.242C559.585 404.877 560.805 405.011 561.884 405.643C562.966 406.267 563.718 407.363 564.139 408.931L566.743 418.65L562.707 419.731L560.315 410.802C560.1 410 559.724 409.455 559.185 409.169C558.647 408.883 558.055 408.826 557.41 408.999C556.676 409.196 556.165 409.582 555.878 410.156C555.589 410.724 555.546 411.385 555.748 412.137L558.112 420.962L554.191 422.013L551.776 413C551.586 412.291 551.229 411.782 550.705 411.472C550.187 411.16 549.596 411.093 548.932 411.271C548.482 411.392 548.107 411.613 547.807 411.936C547.512 412.25 547.313 412.636 547.212 413.093C547.109 413.544 547.129 414.037 547.272 414.57L549.596 423.244L545.552 424.328ZM570.472 417.65L566.6 403.199L570.644 402.116L574.516 416.567L570.472 417.65ZM568.132 400.792C567.531 400.953 566.962 400.894 566.426 400.614C565.895 400.326 565.554 399.903 565.404 399.345C565.256 398.793 565.342 398.262 565.66 397.754C565.982 397.237 566.445 396.898 567.045 396.737C567.647 396.576 568.214 396.639 568.745 396.927C569.281 397.207 569.624 397.623 569.771 398.175C569.921 398.733 569.834 399.27 569.511 399.787C569.194 400.296 568.734 400.631 568.132 400.792ZM580.097 406.117L582.335 414.472L578.291 415.555L574.419 401.104L578.274 400.071L578.957 402.621L579.127 402.575C579.225 401.648 579.588 400.838 580.217 400.146C580.843 399.446 581.698 398.952 582.78 398.662C583.793 398.391 584.734 398.374 585.606 398.611C586.476 398.848 587.23 399.318 587.866 400.022C588.5 400.719 588.968 401.629 589.269 402.752L591.735 411.953L587.69 413.037L585.416 404.551C585.186 403.664 584.773 403.036 584.178 402.664C583.582 402.286 582.879 402.205 582.068 402.423C581.524 402.568 581.074 402.813 580.718 403.157C580.369 403.5 580.137 403.925 580.022 404.433C579.912 404.933 579.937 405.494 580.097 406.117ZM603.56 414.916C602.25 415.267 601.078 415.389 600.046 415.283C599.021 415.181 598.152 414.899 597.438 414.438C596.725 413.977 596.184 413.39 595.816 412.675L599.423 411.174C599.615 411.432 599.866 411.653 600.181 411.838C600.495 412.023 600.875 412.136 601.32 412.178C601.774 412.224 602.294 412.169 602.883 412.011C603.763 411.775 604.43 411.368 604.886 410.789C605.35 410.214 605.448 409.432 605.183 408.441L604.474 405.797L604.304 405.842C604.234 406.291 604.069 406.742 603.811 407.195C603.552 407.647 603.174 408.061 602.679 408.436C602.182 408.811 601.548 409.102 600.775 409.309C599.68 409.602 598.617 409.618 597.583 409.358C596.555 409.089 595.634 408.505 594.824 407.606C594.018 406.699 593.401 405.446 592.972 403.847C592.534 402.21 592.436 400.77 592.68 399.529C592.924 398.287 593.419 397.273 594.165 396.489C594.918 395.702 595.829 395.166 596.899 394.879C597.715 394.66 598.435 394.615 599.061 394.743C599.683 394.866 600.217 395.086 600.661 395.404C601.111 395.713 601.48 396.038 601.768 396.378L601.919 396.337L601.268 393.91L605.285 392.834L609.195 407.426C609.524 408.655 609.496 409.765 609.11 410.756C608.724 411.747 608.05 412.593 607.084 413.296C606.127 414.003 604.952 414.543 603.56 414.916ZM601.25 405.955C601.902 405.78 602.41 405.473 602.774 405.032C603.142 404.584 603.366 404.027 603.445 403.36C603.529 402.686 603.457 401.925 603.23 401.078C603.004 400.231 602.687 399.53 602.28 398.973C601.871 398.41 601.393 398.017 600.844 397.795C600.297 397.572 599.697 397.548 599.044 397.723C598.38 397.901 597.868 398.229 597.508 398.709C597.146 399.182 596.932 399.764 596.866 400.454C596.8 401.144 596.877 401.9 597.097 402.721C597.321 403.556 597.631 404.246 598.028 404.791C598.43 405.329 598.9 405.704 599.439 405.916C599.982 406.12 600.586 406.133 601.25 405.955ZM628.999 390.896L625.356 392.114C625.209 391.818 624.997 391.572 624.721 391.377C624.443 391.176 624.114 391.046 623.731 390.987C623.354 390.92 622.931 390.949 622.462 391.075C621.835 391.243 621.343 391.516 620.983 391.894C620.621 392.267 620.499 392.67 620.615 393.102C620.707 393.447 620.924 393.702 621.267 393.865C621.609 394.029 622.138 394.092 622.854 394.055L625.635 393.875C627.13 393.784 628.311 393.964 629.178 394.418C630.047 394.871 630.619 395.618 630.898 396.659C631.152 397.606 631.093 398.513 630.722 399.379C630.356 400.243 629.74 401.007 628.873 401.669C628.01 402.324 626.946 402.821 625.681 403.16C623.75 403.677 622.105 403.691 620.746 403.201C619.391 402.704 618.431 401.791 617.865 400.464L621.788 399.191C622.064 399.742 622.475 400.11 623.019 400.293C623.562 400.47 624.194 400.463 624.916 400.269C625.624 400.079 626.158 399.792 626.516 399.407C626.879 399.014 627.005 398.6 626.896 398.165C626.792 397.803 626.558 397.547 626.191 397.396C625.823 397.239 625.307 397.183 624.64 397.227L621.981 397.405C620.481 397.504 619.29 397.299 618.407 396.79C617.531 396.278 616.948 395.483 616.659 394.404C616.41 393.476 616.449 392.609 616.775 391.802C617.109 390.993 617.688 390.283 618.515 389.672C619.347 389.059 620.387 388.585 621.635 388.251C623.476 387.758 625.029 387.755 626.293 388.243C627.563 388.73 628.464 389.614 628.999 390.896ZM641.845 398.829C640.37 399.224 639.011 399.255 637.769 398.923C636.531 398.582 635.471 397.932 634.59 396.971C633.707 396.004 633.067 394.781 632.67 393.301C632.27 391.808 632.212 390.425 632.495 389.153C632.776 387.874 633.369 386.781 634.272 385.873C635.18 384.958 636.372 384.302 637.846 383.907C639.321 383.512 640.678 383.485 641.915 383.825C643.157 384.158 644.22 384.808 645.103 385.774C645.985 386.735 646.626 387.961 647.026 389.454C647.422 390.934 647.48 392.314 647.198 393.593C646.915 394.865 646.32 395.959 645.412 396.875C644.509 397.782 643.319 398.434 641.845 398.829ZM641.032 395.719C641.703 395.539 642.212 395.201 642.561 394.704C642.908 394.201 643.107 393.59 643.158 392.87C643.216 392.149 643.132 391.368 642.907 390.527C642.682 389.687 642.364 388.969 641.953 388.373C641.549 387.776 641.071 387.346 640.519 387.083C639.967 386.821 639.356 386.78 638.685 386.96C638.007 387.141 637.489 387.485 637.129 387.992C636.777 388.496 636.571 389.109 636.514 389.831C636.462 390.55 636.548 391.33 636.773 392.171C636.999 393.011 637.314 393.73 637.719 394.328C638.129 394.924 638.613 395.352 639.171 395.612C639.734 395.865 640.354 395.9 641.032 395.719ZM658.776 394.292C657.301 394.687 655.942 394.719 654.7 394.386C653.462 394.045 652.402 393.395 651.521 392.434C650.638 391.468 649.998 390.244 649.602 388.764C649.202 387.271 649.144 385.888 649.426 384.616C649.707 383.337 650.3 382.244 651.203 381.337C652.111 380.421 653.303 379.766 654.778 379.37C656.252 378.975 657.609 378.948 658.846 379.289C660.089 379.621 661.151 380.271 662.034 381.238C662.916 382.198 663.557 383.425 663.957 384.917C664.353 386.398 664.411 387.777 664.129 389.056C663.846 390.329 663.251 391.422 662.343 392.338C661.44 393.246 660.25 393.897 658.776 394.292ZM657.963 391.182C658.634 391.002 659.143 390.664 659.492 390.167C659.839 389.664 660.038 389.053 660.089 388.333C660.147 387.612 660.063 386.831 659.838 385.991C659.613 385.15 659.295 384.432 658.884 383.836C658.48 383.239 658.002 382.809 657.45 382.547C656.898 382.285 656.287 382.243 655.616 382.423C654.938 382.605 654.42 382.949 654.06 383.455C653.708 383.96 653.502 384.573 653.445 385.294C653.393 386.014 653.479 386.794 653.705 387.634C653.93 388.475 654.245 389.194 654.65 389.791C655.06 390.387 655.545 390.815 656.102 391.076C656.665 391.328 657.285 391.364 657.963 391.182ZM670.848 381.8L673.086 390.155L669.043 391.239L665.17 376.787L669.024 375.755L669.708 378.304L669.879 378.258C669.976 377.331 670.339 376.522 670.968 375.829C671.594 375.13 672.449 374.635 673.532 374.345C674.544 374.074 675.486 374.057 676.357 374.294C677.228 374.531 677.981 375.002 678.617 375.705C679.251 376.402 679.719 377.312 680.02 378.435L682.485 387.637L678.442 388.72L676.168 380.234C675.937 379.348 675.524 378.719 674.929 378.347C674.332 377.969 673.629 377.889 672.819 378.106C672.275 378.252 671.825 378.497 671.469 378.841C671.121 379.183 670.888 379.608 670.773 380.116C670.663 380.616 670.688 381.178 670.848 381.8Z" fill="white"/>
</g>
</g>
<defs>
<filter id="filter0_d_3602_885" x="-66" y="347" width="777.016" height="258.949" filterUnits="userSpaceOnUse" color-interpolation-filters="sRGB">
<feFlood flood-opacity="0" result="BackgroundImageFix"/>
<feColorMatrix in="SourceAlpha" type="matrix" values="0 0 0 0 0 0 0 0 0 0 0 0 0 0 0 0 0 0 127 0" result="hardAlpha"/>
<feOffset dx="10"/>
<feGaussianBlur stdDeviation="3"/>
<feComposite in2="hardAlpha" operator="out"/>
<feColorMatrix type="matrix" values="0 0 0 0 0 0 0 0 0 0 0 0 0 0 0 0 0 0 0.65 0"/>
<feBlend mode="normal" in2="BackgroundImageFix" result="effect1_dropShadow_3602_885"/>
<feBlend mode="normal" in="SourceGraphic" in2="effect1_dropShadow_3602_885" result="shape"/>
</filter>
<clipPath id="clip0_3602_885">
<rect width="600" height="600" fill="white"/>
</clipPath>
<clipPath id="clip1_3602_885">
<rect width="775" height="48" fill="white" transform="translate(-83.5771 353.001) rotate(15)"/>
</clipPath>
<clipPath id="clip2_3602_885">
<rect width="775" height="48" fill="white" transform="translate(-66 553.585) rotate(-15)"/>
</clipPath>
</defs>
</svg>
